<?xml version="1.0" encoding="utf-8"?>
<!-- Generator: Adobe Illustrator 16.0.4, SVG Export Plug-In . SVG Version: 6.00 Build 0)  -->
<!DOCTYPE svg PUBLIC "-//W3C//DTD SVG 1.1//EN" "http://www.w3.org/Graphics/SVG/1.1/DTD/svg11.dtd">
<svg version="1.1" id="Layer_1" xmlns="http://www.w3.org/2000/svg" xmlns:xlink="http://www.w3.org/1999/xlink" x="0px" y="0px"
	 width="90.3px" height="56.185px" viewBox="0 0 90.3 56.185" enable-background="new 0 0 90.3 56.185" xml:space="preserve">
<path fill="#6E6F71" d="M69.548,14.681c-1.822,0-3.59,0.237-5.273,0.678C61.121,6.412,52.597,0,42.572,0
	C30.289,0,20.256,9.624,19.596,21.742c-0.75-0.099-1.512-0.169-2.291-0.169C7.746,21.573,0,29.321,0,38.88
	c0,9.558,7.746,17.305,17.305,17.305c7.115,0,41.277,0,52.244,0c11.461,0,20.752-9.288,20.752-20.752
	C90.3,23.97,81.009,14.681,69.548,14.681z"/>
</svg>
