<?xml version="1.0" encoding="utf-8"?>
<!-- Generator: Adobe Illustrator 16.0.4, SVG Export Plug-In . SVG Version: 6.00 Build 0)  -->
<!DOCTYPE svg PUBLIC "-//W3C//DTD SVG 1.1//EN" "http://www.w3.org/Graphics/SVG/1.1/DTD/svg11.dtd">
<svg version="1.1" id="Layer_1" xmlns="http://www.w3.org/2000/svg" xmlns:xlink="http://www.w3.org/1999/xlink" x="0px" y="0px"
	 width="91.322px" height="54.059px" viewBox="0 0 91.322 54.059" enable-background="new 0 0 91.322 54.059" xml:space="preserve">
<g>
	<path fill="#6E6F71" d="M4,22.559h83.323c2.199,0,4-1.588,4-3.529c0-1.939-1.801-3.527-4-3.527H4c-2.2,0-4,1.588-4,3.527
		C0,20.971,1.8,22.559,4,22.559z"/>
	<path fill="#6E6F71" d="M87.323,31.336H4c-2.2,0-4,1.588-4,3.527c0,1.941,1.8,3.529,4,3.529h83.323c2.199,0,4-1.588,4-3.529
		C91.323,32.924,89.522,31.336,87.323,31.336z"/>
	<path fill="#6E6F71" d="M76.323,47.002H15c-2.2,0-4,1.588-4,3.528s1.8,3.528,4,3.528h61.323c2.199,0,4-1.588,4-3.528
		S78.522,47.002,76.323,47.002z"/>
	<path fill="#6E6F71" d="M15,7.059h61.323c2.199,0,4-1.588,4-3.529S78.522,0,76.323,0H15c-2.2,0-4,1.588-4,3.529
		S12.8,7.059,15,7.059z"/>
</g>
</svg>
