<?xml version="1.0" encoding="utf-8"?>
<!-- Generator: Adobe Illustrator 16.0.4, SVG Export Plug-In . SVG Version: 6.00 Build 0)  -->
<!DOCTYPE svg PUBLIC "-//W3C//DTD SVG 1.1//EN" "http://www.w3.org/Graphics/SVG/1.1/DTD/svg11.dtd">
<svg version="1.1" id="Layer_1" xmlns="http://www.w3.org/2000/svg" xmlns:xlink="http://www.w3.org/1999/xlink" x="0px" y="0px"
	 width="115.181px" height="117.312px" viewBox="0 0 115.181 117.312" enable-background="new 0 0 115.181 117.312"
	 xml:space="preserve">
<g>
	<path fill="#6E6F71" d="M110.429,39.646h-6.988c-2.201,0-4,1.588-4,3.529s1.799,3.529,4,3.529h6.988c2.199,0,4-1.588,4-3.529
		S112.628,39.646,110.429,39.646z"/>
	<path fill="#6E6F71" d="M91.054,43.269c0-11.463-9.291-20.752-20.752-20.752c-1.822,0-3.588,0.238-5.273,0.678
		C61.875,14.249,53.351,7.837,43.325,7.837c-12.283,0-22.316,9.623-22.975,21.742c-0.752-0.1-1.514-0.17-2.293-0.17
		c-9.557,0-17.305,7.748-17.305,17.307s7.748,17.306,17.305,17.306c7.115,0,41.278,0,52.245,0
		C81.763,64.021,91.054,54.733,91.054,43.269z"/>
	<path fill="#6E6F71" d="M92.814,5.735c-1.682-0.971-3.957-0.205-5.057,1.699l-3.494,6.053c-1.1,1.906-0.625,4.258,1.057,5.229
		c1.68,0.971,3.955,0.207,5.055-1.699l3.494-6.053C94.97,9.06,94.494,6.706,92.814,5.735z"/>
	<path fill="#6E6F71" d="M90.375,69.332c-1.1-1.904-3.375-2.67-5.055-1.699c-1.682,0.971-2.156,3.322-1.057,5.229l3.494,6.053
		c1.1,1.906,3.375,2.67,5.057,1.699c1.68-0.971,2.156-3.322,1.055-5.229L90.375,69.332z"/>
	<path fill="#6E6F71" d="M106.937,59.733l-6.053-3.494c-1.904-1.1-4.258-0.625-5.229,1.057s-0.205,3.956,1.701,5.056l6.051,3.494
		c1.906,1.1,4.26,0.625,5.229-1.057C109.607,63.107,108.843,60.833,106.937,59.733z"/>
	<path fill="#6E6F71" d="M100.884,30.11l6.053-3.494c1.906-1.1,2.67-3.375,1.699-5.057c-0.969-1.682-3.322-2.156-5.227-1.057
		l-6.055,3.496c-1.904,1.1-2.67,3.375-1.699,5.057C96.626,30.735,98.98,31.21,100.884,30.11z"/>
	<path fill="#6E6F71" d="M71.199,14.933c1.939,0,3.527-1.801,3.527-4V3.944c0-2.201-1.588-4-3.527-4c-1.941,0-3.529,1.799-3.529,4
		v6.988C67.669,13.132,69.257,14.933,71.199,14.933z"/>
	<path fill="#6E6F71" d="M71.199,71.418c-1.941,0-3.529,1.799-3.529,4v6.988c0,2.199,1.588,4,3.529,4c1.939,0,3.527-1.801,3.527-4
		v-6.988C74.726,73.217,73.138,71.418,71.199,71.418z"/>
	<path fill="#6E6F71" d="M61.076,89.164L48.246,89.5l8.32-15.676c0.135-0.254,0.105-0.543-0.078-0.775
		c-0.182-0.23-0.494-0.373-0.832-0.379l-14.069-0.197c-0.416,0.029-0.832,0.221-0.975,0.561L29.921,98.701
		c-0.105,0.252-0.055,0.531,0.137,0.748c0.189,0.215,0.496,0.342,0.82,0.342c0.002,0,0.006,0,0.008,0l12.705-0.074l-5.225,16.564
		c-0.121,0.389,0.117,0.795,0.566,0.959c0.135,0.049,0.275,0.072,0.412,0.072c0.33,0,0.648-0.131,0.842-0.365l21.762-26.5
		c0.211-0.256,0.229-0.588,0.045-0.859S61.449,89.139,61.076,89.164z"/>
</g>
</svg>
