<?xml version="1.0" encoding="utf-8"?>
<!-- Generator: Adobe Illustrator 16.0.4, SVG Export Plug-In . SVG Version: 6.00 Build 0)  -->
<!DOCTYPE svg PUBLIC "-//W3C//DTD SVG 1.1//EN" "http://www.w3.org/Graphics/SVG/1.1/DTD/svg11.dtd">
<svg version="1.1" id="Layer_1" xmlns="http://www.w3.org/2000/svg" xmlns:xlink="http://www.w3.org/1999/xlink" x="0px" y="0px"
	 width="90.3px" height="109.306px" viewBox="0 0 90.3 109.306" enable-background="new 0 0 90.3 109.306" xml:space="preserve">
<g>
	<path fill="#6E6F71" d="M69.548,14.681c-1.822,0-3.59,0.237-5.273,0.678C61.121,6.412,52.597,0,42.572,0
		C30.289,0,20.254,9.624,19.595,21.742c-0.751-0.099-1.512-0.169-2.291-0.169C7.746,21.573,0,29.321,0,38.88
		c0,9.558,7.746,17.305,17.305,17.305c7.115,0,41.277,0,52.244,0c11.461,0,20.752-9.288,20.752-20.752
		C90.3,23.97,81.009,14.681,69.548,14.681z"/>
	<path fill="#6E6F71" d="M60.475,81.158l-12.83,0.336l8.32-15.678c0.134-0.253,0.105-0.543-0.078-0.775
		c-0.183-0.23-0.495-0.373-0.832-0.378l-14.069-0.197c-0.416,0.029-0.832,0.22-0.974,0.56L29.32,90.694
		c-0.105,0.253-0.055,0.531,0.138,0.749c0.189,0.215,0.495,0.342,0.819,0.342c0.003,0,0.006,0,0.008,0l12.706-0.074l-5.225,16.565
		c-0.122,0.389,0.116,0.793,0.565,0.959c0.135,0.047,0.275,0.07,0.413,0.07c0.329,0,0.648-0.131,0.841-0.365l21.762-26.499
		c0.212-0.257,0.229-0.589,0.045-0.859C61.208,81.311,60.847,81.133,60.475,81.158z"/>
</g>
</svg>
