<?xml version="1.0" encoding="utf-8"?>
<!-- Generator: Adobe Illustrator 16.0.4, SVG Export Plug-In . SVG Version: 6.00 Build 0)  -->
<!DOCTYPE svg PUBLIC "-//W3C//DTD SVG 1.1//EN" "http://www.w3.org/Graphics/SVG/1.1/DTD/svg11.dtd">
<svg version="1.1" id="Layer_1" xmlns="http://www.w3.org/2000/svg" xmlns:xlink="http://www.w3.org/1999/xlink" x="0px" y="0px"
	 width="115.743px" height="105.439px" viewBox="0 0 115.743 105.439" enable-background="new 0 0 115.743 105.439"
	 xml:space="preserve">
<g>
	<path fill="#6E6F71" d="M70.702,29.266c-1.822,0-3.588,0.236-5.273,0.678c-3.154-8.947-11.678-15.359-21.703-15.359
		c-12.283,0-22.316,9.625-22.974,21.742c-0.752-0.098-1.514-0.168-2.293-0.168c-9.557,0-17.305,7.748-17.305,17.307
		c0,9.557,7.748,17.304,17.305,17.304c7.115,0,41.277,0,52.244,0c11.004,0,19.982-8.567,20.684-19.396l0,0
		c0.029-0.451,0.068-0.898,0.068-1.355C91.454,38.555,82.163,29.266,70.702,29.266z"/>
	<path fill="#6E6F71" d="M115.614,40.984c-0.199-0.357-0.6-0.555-1.004-0.502c-1.088,0.145-2.168,0.219-3.207,0.219
		c-13.209,0-23.955-10.746-23.955-23.955c0-5.492,1.908-10.859,5.373-15.115c0.26-0.318,0.299-0.762,0.098-1.119
		c-0.199-0.357-0.6-0.555-1.006-0.504C79.237,1.703,69.659,12.539,69.448,25.301c0.418-0.021,0.836-0.035,1.254-0.035
		c13.648,0,24.752,11.104,24.752,24.752c0,0.559-0.025,1.113-0.062,1.664c7.836-0.002,15.172-3.492,20.127-9.576
		C115.776,41.787,115.815,41.342,115.614,40.984z"/>
	<path fill="#6E6F71" d="M76.059,94.048L69.1,91.323l5.428-5.139c0.473-0.449,0.494-1.203,0.045-1.676l-2.191-2.312
		c-0.447-0.473-1.201-0.494-1.676-0.047l-4.934,4.674l-1.299-6.674c-0.125-0.641-0.75-1.062-1.391-0.938l-3.131,0.611
		c-0.637,0.125-1.061,0.75-0.936,1.389l1.301,6.674l-6.328-2.479c-0.607-0.238-1.299,0.064-1.537,0.67l-1.162,2.969
		c-0.238,0.605,0.064,1.297,0.672,1.535l6.961,2.725l-5.428,5.139c-0.475,0.449-0.494,1.203-0.047,1.678l2.193,2.316
		c0.447,0.473,1.201,0.492,1.674,0.045l4.936-4.676l1.301,6.674c0.125,0.641,0.75,1.061,1.389,0.936l3.131-0.609
		c0.639-0.125,1.061-0.75,0.936-1.389l-1.299-6.672l6.326,2.477c0.607,0.238,1.297-0.064,1.535-0.672l1.162-2.967
		C76.969,94.976,76.667,94.284,76.059,94.048z"/>
	<path fill="#6E6F71" d="M38.81,94.173l-6.959-2.725l5.428-5.139c0.473-0.449,0.494-1.203,0.045-1.676l-2.191-2.312
		c-0.447-0.473-1.201-0.494-1.676-0.047l-4.934,4.674l-1.299-6.674c-0.125-0.641-0.75-1.062-1.391-0.938l-3.131,0.611
		c-0.637,0.125-1.061,0.75-0.936,1.389l1.301,6.674l-6.328-2.479c-0.607-0.238-1.299,0.064-1.537,0.67l-1.162,2.969
		c-0.238,0.605,0.064,1.297,0.672,1.535l6.961,2.725l-5.428,5.139c-0.475,0.449-0.494,1.203-0.047,1.678l2.193,2.316
		c0.447,0.473,1.201,0.492,1.674,0.045l4.936-4.676l1.301,6.674c0.125,0.641,0.75,1.061,1.389,0.936l3.131-0.609
		c0.639-0.125,1.061-0.75,0.936-1.389l-1.299-6.672l6.326,2.477c0.607,0.238,1.297-0.064,1.535-0.672l1.162-2.967
		C39.72,95.101,39.417,94.409,38.81,94.173z"/>
</g>
</svg>
