<?xml version="1.0" encoding="utf-8"?>
<!-- Generator: Adobe Illustrator 16.0.4, SVG Export Plug-In . SVG Version: 6.00 Build 0)  -->
<!DOCTYPE svg PUBLIC "-//W3C//DTD SVG 1.1//EN" "http://www.w3.org/Graphics/SVG/1.1/DTD/svg11.dtd">
<svg version="1.1" id="Layer_1" xmlns="http://www.w3.org/2000/svg" xmlns:xlink="http://www.w3.org/1999/xlink" x="0px" y="0px"
	 width="90.3px" height="109.14px" viewBox="0 0 90.3 109.14" enable-background="new 0 0 90.3 109.14" xml:space="preserve">
<g>
	<path fill="#6E6F71" d="M69.548,14.681c-1.822,0-3.59,0.237-5.273,0.678C61.121,6.412,52.597,0,42.572,0
		C30.289,0,20.254,9.624,19.596,21.742c-0.752-0.099-1.512-0.169-2.291-0.169C7.746,21.573,0,29.321,0,38.88
		c0,9.558,7.746,17.305,17.305,17.305c7.115,0,41.277,0,52.244,0c11.461,0,20.752-9.288,20.752-20.752
		C90.3,23.97,81.009,14.681,69.548,14.681z"/>
	<path fill="#6E6F71" d="M37.525,64.425c0,0-13.107,6.461-15.251,7.809c-2.15,1.353-2.967,1.977-4.023,3.534
		c-3.318,4.879-2.051,11.526,2.83,14.843c4.881,3.317,11.527,2.051,14.843-2.828c1.08-1.591,1.262-2.468,1.812-5.157
		c0.551-2.688,1.471-17.067,1.471-17.067C39.304,64.413,38.548,63.903,37.525,64.425z"/>
	<path fill="#6E6F71" d="M76.8,80.99l-12.83,0.337l8.32-15.678c0.135-0.253,0.105-0.543-0.078-0.775
		c-0.182-0.23-0.494-0.373-0.832-0.378l-14.068-0.197c-0.416,0.029-0.834,0.22-0.975,0.56L45.644,90.527
		c-0.104,0.253-0.053,0.531,0.139,0.749c0.189,0.215,0.494,0.342,0.818,0.342c0.004,0,0.006,0,0.008,0l12.707-0.074l-5.225,16.564
		c-0.123,0.389,0.117,0.795,0.566,0.959c0.133,0.049,0.273,0.072,0.412,0.072c0.33,0,0.648-0.131,0.84-0.365l21.764-26.5
		c0.211-0.257,0.229-0.589,0.043-0.859C77.533,81.144,77.173,80.965,76.8,80.99z"/>
</g>
</svg>
