<?xml version="1.0" encoding="utf-8"?>
<!-- Generator: Adobe Illustrator 16.0.4, SVG Export Plug-In . SVG Version: 6.00 Build 0)  -->
<!DOCTYPE svg PUBLIC "-//W3C//DTD SVG 1.1//EN" "http://www.w3.org/Graphics/SVG/1.1/DTD/svg11.dtd">
<svg version="1.1" id="Layer_1" xmlns="http://www.w3.org/2000/svg" xmlns:xlink="http://www.w3.org/1999/xlink" x="0px" y="0px"
	 width="108.621px" height="108.19px" viewBox="0 0 108.621 108.19" enable-background="new 0 0 108.621 108.19"
	 xml:space="preserve">
<g>
	<circle fill="#6E6F71" cx="54.961" cy="54.541" r="25.704"/>
	<path fill="#6E6F71" d="M22.194,54.635v-0.188c0-2.2-1.8-4-4-4H8.804c-2.2,0-4,1.8-4,4v0.188c0,2.2,1.8,4,4,4h9.391
		C20.395,58.635,22.194,56.834,22.194,54.635z"/>
	<path fill="#6E6F71" d="M101.119,50.446h-9.391c-2.199,0-4,1.8-4,4v0.188c0,2.2,1.801,4,4,4h9.391c2.201,0,4-1.801,4-4v-0.188
		C105.119,52.246,103.32,50.446,101.119,50.446z"/>
	<path fill="#6E6F71" d="M80.123,11.15l-0.164-0.095c-1.906-1.1-4.363-0.441-5.465,1.464l-4.695,8.133
		c-1.1,1.905-0.441,4.364,1.465,5.464l0.164,0.095c1.904,1.1,4.363,0.441,5.463-1.464l4.695-8.133
		C82.685,14.709,82.027,12.25,80.123,11.15z"/>
	<path fill="#6E6F71" d="M38.659,82.965l-0.163-0.096c-1.905-1.1-4.364-0.441-5.464,1.465l-4.695,8.133
		c-1.1,1.904-0.441,4.363,1.464,5.463l0.163,0.096c1.906,1.1,4.364,0.441,5.465-1.465l4.695-8.133
		C41.224,86.524,40.565,84.065,38.659,82.965z"/>
	<path fill="#6E6F71" d="M76.89,84.334c-1.1-1.906-3.559-2.564-5.463-1.465l-0.164,0.096c-1.906,1.1-2.564,3.559-1.465,5.463
		l4.695,8.133c1.102,1.906,3.559,2.564,5.465,1.465l0.164-0.096c1.904-1.1,2.562-3.559,1.463-5.463L76.89,84.334z"/>
	<path fill="#6E6F71" d="M33.032,24.747c1.1,1.905,3.559,2.563,5.464,1.464l0.163-0.095c1.906-1.1,2.564-3.559,1.465-5.464
		l-4.695-8.133c-1.101-1.905-3.559-2.563-5.465-1.464l-0.163,0.095c-1.905,1.1-2.563,3.559-1.464,5.464L33.032,24.747z"/>
	<path fill="#6E6F71" d="M25.167,32.611l-8.133-4.695c-1.904-1.1-4.363-0.441-5.463,1.464l-0.095,0.164
		c-1.101,1.905-0.441,4.364,1.464,5.464l8.133,4.695c1.905,1.1,4.363,0.441,5.464-1.464l0.095-0.164
		C27.731,36.17,27.072,33.711,25.167,32.611z"/>
	<path fill="#6E6F71" d="M96.982,74.073l-8.133-4.695c-1.904-1.1-4.363-0.441-5.463,1.465l-0.096,0.164
		c-1.1,1.904-0.441,4.363,1.465,5.463l8.133,4.695c1.904,1.1,4.363,0.441,5.463-1.463l0.096-0.164
		C99.546,77.631,98.886,75.172,96.982,74.073z"/>
	<path fill="#6E6F71" d="M26.537,70.842c-1.101-1.906-3.559-2.564-5.464-1.465l-8.133,4.695c-1.905,1.1-2.564,3.559-1.464,5.465
		l0.095,0.164c1.1,1.904,3.559,2.562,5.463,1.463l8.133-4.695c1.905-1.1,2.564-3.559,1.465-5.463L26.537,70.842z"/>
	<path fill="#6E6F71" d="M83.386,38.239c1.1,1.905,3.559,2.563,5.463,1.464l8.133-4.695c1.904-1.1,2.564-3.559,1.465-5.464
		l-0.096-0.164c-1.1-1.905-3.559-2.563-5.463-1.464l-8.133,4.695c-1.906,1.1-2.564,3.559-1.465,5.464L83.386,38.239z"/>
	<path fill="#6E6F71" d="M54.867,21.773h0.188c2.2,0,4-1.8,4-4V8.383c0-2.2-1.801-4-4-4h-0.188c-2.2,0-4,1.8-4,4v9.391
		C50.867,19.974,52.667,21.773,54.867,21.773z"/>
	<path fill="#6E6F71" d="M55.056,87.307h-0.188c-2.2,0-4,1.801-4,4v9.391c0,2.201,1.8,4,4,4h0.188c2.2,0,4-1.799,4-4v-9.391
		C59.056,89.108,57.255,87.307,55.056,87.307z"/>
</g>
</svg>
