<?xml version="1.0" encoding="utf-8"?>
<!-- Generator: Adobe Illustrator 16.0.4, SVG Export Plug-In . SVG Version: 6.00 Build 0)  -->
<!DOCTYPE svg PUBLIC "-//W3C//DTD SVG 1.1//EN" "http://www.w3.org/Graphics/SVG/1.1/DTD/svg11.dtd">
<svg version="1.1" id="Layer_1" xmlns="http://www.w3.org/2000/svg" xmlns:xlink="http://www.w3.org/1999/xlink" x="0px" y="0px"
	 width="115.743px" height="72.212px" viewBox="0 0 115.743 72.212" enable-background="new 0 0 115.743 72.212"
	 xml:space="preserve">
<g>
	<path fill="#6E6F71" d="M70.125,30.707c-1.822,0-3.588,0.236-5.273,0.678c-3.154-8.947-11.678-15.359-21.701-15.359
		c-12.284,0-22.318,9.625-22.976,21.742c-0.752-0.098-1.514-0.168-2.292-0.168c-9.558,0-17.306,7.748-17.306,17.307
		c0,9.557,7.748,17.306,17.306,17.306c7.114,0,41.276,0,52.243,0c11.004,0,19.982-8.569,20.686-19.397l0,0
		c0.029-0.449,0.068-0.898,0.068-1.355C90.879,39.996,81.586,30.707,70.125,30.707z"/>
	<path fill="#6E6F71" d="M115.04,42.426c-0.201-0.357-0.6-0.555-1.006-0.502c-1.088,0.145-2.166,0.219-3.205,0.219
		c-13.211,0-23.957-10.746-23.957-23.955c0-5.492,1.908-10.859,5.375-15.115c0.258-0.318,0.297-0.762,0.096-1.119
		c-0.199-0.357-0.6-0.555-1.004-0.504C78.661,3.146,69.083,13.982,68.874,26.742c0.416-0.02,0.834-0.035,1.252-0.035
		c13.648,0,24.754,11.104,24.754,24.752c0,0.561-0.025,1.113-0.062,1.664c7.834-0.002,15.17-3.492,20.125-9.576
		C115.2,43.229,115.239,42.783,115.04,42.426z"/>
</g>
</svg>
