<?xml version="1.0" encoding="utf-8"?>
<!-- Generator: Adobe Illustrator 16.0.4, SVG Export Plug-In . SVG Version: 6.00 Build 0)  -->
<!DOCTYPE svg PUBLIC "-//W3C//DTD SVG 1.1//EN" "http://www.w3.org/Graphics/SVG/1.1/DTD/svg11.dtd">
<svg version="1.1" id="Layer_1" xmlns="http://www.w3.org/2000/svg" xmlns:xlink="http://www.w3.org/1999/xlink" x="0px" y="0px"
	 width="113.675px" height="100.312px" viewBox="0 0 113.675 100.312" enable-background="new 0 0 113.675 100.312"
	 xml:space="preserve">
<g>
	<path fill="#6E6F71" d="M90.301,43.326c0-11.463-9.291-20.752-20.752-20.752c-1.822,0-3.588,0.236-5.273,0.678
		C61.122,14.305,52.598,7.893,42.573,7.893c-12.283,0-22.317,9.625-22.975,21.742c-0.752-0.098-1.514-0.168-2.292-0.168
		C7.748,29.467,0,37.215,0,46.773c0,9.557,7.748,17.305,17.306,17.305c7.114,0,41.277,0,52.244,0
		C81.01,64.078,90.301,54.789,90.301,43.326z"/>
	<path fill="#6E6F71" d="M109.676,39.703h-6.988c-2.201,0-4,1.588-4,3.527c0,1.941,1.799,3.529,4,3.529h6.988
		c2.199,0,4-1.588,4-3.529C113.676,41.291,111.875,39.703,109.676,39.703z"/>
	<path fill="#6E6F71" d="M92.061,5.793c-1.682-0.971-3.957-0.207-5.057,1.699l-3.494,6.053c-1.1,1.904-0.625,4.258,1.057,5.229
		c1.68,0.971,3.955,0.205,5.055-1.699l3.494-6.053C94.217,9.115,93.741,6.764,92.061,5.793z"/>
	<path fill="#6E6F71" d="M89.622,69.389c-1.1-1.904-3.375-2.67-5.055-1.699c-1.682,0.971-2.156,3.322-1.057,5.229l3.494,6.053
		c1.1,1.906,3.375,2.67,5.057,1.699c1.68-0.971,2.156-3.322,1.055-5.229L89.622,69.389z"/>
	<path fill="#6E6F71" d="M106.184,59.789l-6.053-3.492c-1.904-1.102-4.258-0.625-5.229,1.055c-0.971,1.682-0.205,3.957,1.701,5.057
		l6.051,3.494c1.906,1.1,4.26,0.625,5.229-1.057C108.854,63.164,108.09,60.889,106.184,59.789z"/>
	<path fill="#6E6F71" d="M100.131,30.168l6.053-3.496c1.906-1.1,2.67-3.375,1.699-5.057c-0.969-1.682-3.322-2.156-5.227-1.057
		l-6.055,3.496c-1.904,1.1-2.67,3.375-1.699,5.057S98.227,31.268,100.131,30.168z"/>
	<path fill="#6E6F71" d="M70.446,14.988c1.939,0,3.527-1.799,3.527-4V4c0-2.199-1.588-4-3.527-4c-1.941,0-3.529,1.801-3.529,4v6.988
		C66.917,13.189,68.504,14.988,70.446,14.988z"/>
	<path fill="#6E6F71" d="M70.446,71.475c-1.941,0-3.529,1.799-3.529,4v6.988c0,2.199,1.588,4,3.529,4c1.939,0,3.527-1.801,3.527-4
		v-6.988C73.973,73.273,72.385,71.475,70.446,71.475z"/>
	<path fill="#6E6F71" d="M50.745,72.279c0,0-13.108,6.461-15.252,7.809c-2.15,1.352-2.966,1.977-4.023,3.533
		c-3.318,4.879-2.051,11.525,2.83,14.842c4.881,3.318,11.528,2.051,14.844-2.828c1.08-1.59,1.262-2.467,1.812-5.156
		c0.551-2.688,1.471-17.066,1.471-17.066C52.524,72.268,51.768,71.758,50.745,72.279z"/>
</g>
</svg>
