<?xml version="1.0" encoding="utf-8"?>
<!-- Generator: Adobe Illustrator 16.0.4, SVG Export Plug-In . SVG Version: 6.00 Build 0)  -->
<!DOCTYPE svg PUBLIC "-//W3C//DTD SVG 1.1//EN" "http://www.w3.org/Graphics/SVG/1.1/DTD/svg11.dtd">
<svg version="1.1" id="Layer_1" xmlns="http://www.w3.org/2000/svg" xmlns:xlink="http://www.w3.org/1999/xlink" x="0px" y="0px"
	 width="115.181px" height="98.883px" viewBox="0 0 115.181 98.883" enable-background="new 0 0 115.181 98.883"
	 xml:space="preserve">
<g>
	<path fill="#6E6F71" d="M91.805,44.02c0-11.463-9.291-20.752-20.752-20.752c-1.822,0-3.59,0.236-5.273,0.678
		C62.625,14.998,54.102,8.586,44.077,8.586c-12.283,0-22.316,9.625-22.976,21.742c-0.75-0.098-1.512-0.168-2.291-0.168
		c-9.559,0-17.305,7.748-17.305,17.307c0,9.557,7.746,17.305,17.305,17.305c7.115,0,41.277,0,52.244,0
		C82.514,64.771,91.805,55.482,91.805,44.02z"/>
	<path fill="#6E6F71" d="M111.18,40.396h-6.99c-2.199,0-4,1.588-4,3.527c0,1.941,1.801,3.529,4,3.529h6.99c2.199,0,4-1.588,4-3.529
		C115.18,41.984,113.379,40.396,111.18,40.396z"/>
	<path fill="#6E6F71" d="M93.563,6.486c-1.68-0.971-3.955-0.207-5.055,1.699l-3.494,6.053c-1.102,1.904-0.625,4.258,1.055,5.229
		c1.682,0.971,3.957,0.205,5.057-1.699l3.494-6.053C95.719,9.809,95.245,7.457,93.563,6.486z"/>
	<path fill="#6E6F71" d="M91.125,70.082c-1.1-1.904-3.375-2.67-5.057-1.699c-1.68,0.971-2.156,3.322-1.055,5.229l3.494,6.053
		c1.1,1.906,3.375,2.67,5.055,1.699c1.682-0.971,2.156-3.322,1.057-5.229L91.125,70.082z"/>
	<path fill="#6E6F71" d="M107.688,60.482l-6.053-3.492c-1.904-1.102-4.258-0.625-5.229,1.055c-0.971,1.682-0.205,3.957,1.699,5.057
		l6.053,3.494c1.906,1.1,4.258,0.625,5.229-1.057S109.592,61.582,107.688,60.482z"/>
	<path fill="#6E6F71" d="M101.635,30.861l6.053-3.496c1.906-1.1,2.67-3.375,1.699-5.057s-3.322-2.156-5.229-1.057l-6.053,3.496
		c-1.904,1.1-2.67,3.375-1.699,5.057S99.731,31.961,101.635,30.861z"/>
	<path fill="#6E6F71" d="M71.95,15.682c1.939,0,3.527-1.799,3.527-4V4.693c0-2.199-1.588-4-3.527-4c-1.941,0-3.529,1.801-3.529,4
		v6.988C68.42,13.883,70.008,15.682,71.95,15.682z"/>
	<path fill="#6E6F71" d="M71.95,72.168c-1.941,0-3.529,1.799-3.529,4v6.988c0,2.199,1.588,4,3.529,4c1.939,0,3.527-1.801,3.527-4
		v-6.988C75.477,73.967,73.889,72.168,71.95,72.168z"/>
	<path fill="#6E6F71" d="M58.137,87.494l-6.959-2.725l5.428-5.141c0.473-0.447,0.494-1.203,0.045-1.674l-2.191-2.314
		c-0.447-0.473-1.201-0.492-1.676-0.045l-4.934,4.672l-1.299-6.672c-0.125-0.641-0.75-1.062-1.391-0.938L42.03,73.27
		c-0.637,0.125-1.061,0.75-0.936,1.389l1.301,6.672l-6.328-2.477c-0.607-0.238-1.299,0.064-1.537,0.67l-1.162,2.969
		c-0.238,0.605,0.064,1.297,0.672,1.535L41,86.752l-5.427,5.139c-0.475,0.449-0.494,1.203-0.047,1.676l2.193,2.316
		c0.447,0.473,1.201,0.492,1.674,0.045l4.935-4.674l1.301,6.672c0.125,0.641,0.75,1.061,1.389,0.936l3.131-0.609
		c0.639-0.125,1.061-0.75,0.936-1.389l-1.299-6.672l6.326,2.479c0.607,0.236,1.297-0.064,1.535-0.672l1.162-2.969
		C59.047,88.422,58.745,87.73,58.137,87.494z"/>
</g>
</svg>
