<?xml version="1.0" encoding="utf-8"?>
<!-- Generator: Adobe Illustrator 16.0.4, SVG Export Plug-In . SVG Version: 6.00 Build 0)  -->
<!DOCTYPE svg PUBLIC "-//W3C//DTD SVG 1.1//EN" "http://www.w3.org/Graphics/SVG/1.1/DTD/svg11.dtd">
<svg version="1.1" id="Layer_1" xmlns="http://www.w3.org/2000/svg" xmlns:xlink="http://www.w3.org/1999/xlink" x="0px" y="0px"
	 width="90.3px" height="92.628px" viewBox="0 0 90.3 92.628" enable-background="new 0 0 90.3 92.628" xml:space="preserve">
<g>
	<path fill="#6E6F71" d="M69.548,14.681c-1.822,0-3.59,0.237-5.273,0.678C61.121,6.412,52.597,0,42.572,0
		C30.289,0,20.253,9.624,19.595,21.742c-0.752-0.099-1.512-0.169-2.291-0.169C7.746,21.573,0,29.321,0,38.88
		c0,9.558,7.746,17.305,17.305,17.305c7.115,0,41.277,0,52.244,0c11.461,0,20.752-9.288,20.752-20.752
		C90.3,23.97,81.009,14.681,69.548,14.681z"/>
	<path fill="#6E6F71" d="M70.345,64.344c0,0-13.109,6.461-15.254,7.809c-2.15,1.353-2.965,1.977-4.023,3.534
		c-3.318,4.879-2.051,11.525,2.83,14.842c4.881,3.317,11.527,2.051,14.844-2.828c1.082-1.591,1.262-2.468,1.814-5.157
		c0.549-2.688,1.469-17.066,1.469-17.066C72.125,64.332,71.367,63.822,70.345,64.344z"/>
	<path fill="#6E6F71" d="M37.471,64.594c0,0-13.11,6.461-15.254,7.809c-2.15,1.353-2.965,1.977-4.023,3.534
		c-3.317,4.879-2.05,11.525,2.83,14.842c4.881,3.317,11.528,2.051,14.844-2.828c1.082-1.591,1.262-2.468,1.814-5.157
		c0.549-2.688,1.469-17.066,1.469-17.066C39.25,64.582,38.492,64.072,37.471,64.594z"/>
</g>
</svg>
