<?xml version="1.0" encoding="utf-8"?>
<!-- Generator: Adobe Illustrator 16.0.4, SVG Export Plug-In . SVG Version: 6.00 Build 0)  -->
<!DOCTYPE svg PUBLIC "-//W3C//DTD SVG 1.1//EN" "http://www.w3.org/Graphics/SVG/1.1/DTD/svg11.dtd">
<svg version="1.1" id="Layer_1" xmlns="http://www.w3.org/2000/svg" xmlns:xlink="http://www.w3.org/1999/xlink" x="0px" y="0px"
	 width="90.3px" height="88.314px" viewBox="0 0 90.3 88.314" enable-background="new 0 0 90.3 88.314" xml:space="preserve">
<g>
	<path fill="#6E6F71" d="M69.547,14.681c-1.822,0-3.588,0.237-5.273,0.678C61.12,6.412,52.596,0,42.573,0
		C30.29,0,20.255,9.624,19.597,21.742c-0.752-0.099-1.514-0.169-2.292-0.169c-9.558,0-17.306,7.748-17.306,17.307
		c0,9.558,7.748,17.305,17.306,17.305c7.114,0,41.276,0,52.243,0c11.461,0,20.754-9.288,20.754-20.752
		C90.301,23.97,81.008,14.681,69.547,14.681z"/>
	<circle fill="#6E6F71" cx="63.571" cy="76.147" r="12.167"/>
	<circle fill="#6E6F71" cx="27.071" cy="76.147" r="12.167"/>
</g>
</svg>
