<?xml version="1.0" encoding="utf-8"?>
<!-- Generator: Adobe Illustrator 16.0.4, SVG Export Plug-In . SVG Version: 6.00 Build 0)  -->
<!DOCTYPE svg PUBLIC "-//W3C//DTD SVG 1.1//EN" "http://www.w3.org/Graphics/SVG/1.1/DTD/svg11.dtd">
<svg version="1.1" id="Layer_1" xmlns="http://www.w3.org/2000/svg" xmlns:xlink="http://www.w3.org/1999/xlink" x="0px" y="0px"
	 width="92.147px" height="92.135px" viewBox="0 0 92.147 92.135" enable-background="new 0 0 92.147 92.135" xml:space="preserve">
<path fill="#6E6F71" d="M83.174,34.688C77.075,27.603,68.682,23.7,59.542,23.7c-2.881,0-5.863,0.377-8.896,1.125
	c3.729-4.298,8.775-6.473,15.041-6.473c8.732,0,18,4.402,23.312,8.764c0.391,0.321,0.959,0.301,1.324-0.048
	c0.365-0.347,0.416-0.913,0.115-1.318c-6.307-8.541-17.584-14.06-28.729-14.06c-11.477,0-21.117,5.697-27.422,16.123
	c-0.314-4.522,0.922-8.707,3.693-12.474C43.739,7.516,54.999,3.103,63.026,2.313c0.502-0.049,0.889-0.465,0.902-0.97
	c0.014-0.504-0.352-0.939-0.852-1.015C61.625,0.111,60.112,0,58.577,0C47.377,0,35.981,5.701,29.543,14.524
	c-3.968,5.439-7.826,14.407-4.715,26.968c-3.419-2.976-5.501-6.809-6.205-11.432c-1.462-9.604,3.382-20.686,8.499-26.919
	c0.32-0.391,0.301-0.958-0.047-1.323c-0.348-0.366-0.912-0.416-1.32-0.116C16.45,8.574,10.843,21.186,11.802,33.085
	c0.828,10.285,6.483,18.984,16.02,24.769c-0.459,0.032-0.915,0.048-1.365,0.048C11.921,57.902,3.46,40.725,2.319,29.115
	c-0.049-0.502-0.465-0.889-0.969-0.902c-0.521-0.038-0.939,0.353-1.015,0.852c-1.449,9.636,1.86,20.512,8.636,28.384
	c6.1,7.085,14.492,10.987,23.63,10.987c2.883,0,5.865-0.378,8.898-1.126c-3.727,4.298-8.773,6.473-15.041,6.473
	c-8.73,0.001-17.999-4.4-23.312-8.763c-0.39-0.321-0.957-0.3-1.323,0.048c-0.366,0.347-0.415,0.913-0.115,1.318
	c6.308,8.541,17.585,14.061,28.729,14.061c11.477,0,21.115-5.697,27.422-16.121c0.312,4.521-0.926,8.707-3.697,12.474
	c-5.758,7.823-17.018,12.234-25.043,13.022c-0.501,0.049-0.888,0.465-0.901,0.97c-0.013,0.504,0.352,0.939,0.85,1.015
	c1.453,0.218,2.967,0.329,4.502,0.329c11.199,0,22.596-5.701,29.033-14.523c3.969-5.438,7.826-14.404,4.717-26.963
	c3.416,2.975,5.5,6.808,6.203,11.43c1.461,9.603-3.383,20.684-8.5,26.916c-0.32,0.391-0.299,0.958,0.049,1.323
	c0.346,0.366,0.912,0.415,1.318,0.116c9.305-6.872,14.912-19.484,13.955-31.383c-0.828-10.283-6.484-18.983-16.018-24.768
	c0.459-0.032,0.912-0.048,1.361-0.048c14.539,0,22.998,17.177,24.137,28.785c0.049,0.502,0.465,0.889,0.969,0.902
	c0.496,0.003,0.939-0.354,1.016-0.852C93.26,53.436,89.952,42.56,83.174,34.688z"/>
</svg>
