<?xml version="1.0" encoding="utf-8"?>
<!-- Generator: Adobe Illustrator 16.0.4, SVG Export Plug-In . SVG Version: 6.00 Build 0)  -->
<!DOCTYPE svg PUBLIC "-//W3C//DTD SVG 1.1//EN" "http://www.w3.org/Graphics/SVG/1.1/DTD/svg11.dtd">
<svg version="1.1" id="Layer_1" xmlns="http://www.w3.org/2000/svg" xmlns:xlink="http://www.w3.org/1999/xlink" x="0px" y="0px"
	 width="90.3px" height="94.679px" viewBox="0 0 90.3 94.679" enable-background="new 0 0 90.3 94.679" xml:space="preserve">
<g>
	<path fill="#6E6F71" d="M69.548,14.681c-1.822,0-3.59,0.237-5.273,0.678C61.121,6.412,52.597,0,42.572,0
		C30.289,0,20.253,9.624,19.595,21.742c-0.752-0.099-1.512-0.169-2.291-0.169C7.746,21.573,0,29.321,0,38.88
		c0,9.558,7.746,17.305,17.305,17.305c7.115,0,41.277,0,52.244,0c11.461,0,20.752-9.288,20.752-20.752
		C90.3,23.97,81.009,14.681,69.548,14.681z"/>
	<path fill="#6E6F71" d="M41.883,64.362c0,0-6.273,3.091-7.301,3.736c-1.029,0.647-1.42,0.945-1.926,1.69
		c-1.588,2.336-0.98,5.517,1.355,7.104c2.336,1.588,5.516,0.981,7.104-1.354c0.518-0.761,0.604-1.181,0.867-2.469
		c0.264-1.285,0.703-8.166,0.703-8.166C42.732,64.356,42.371,64.112,41.883,64.362z"/>
	<path fill="#6E6F71" d="M25.611,64.362c0,0-6.273,3.091-7.301,3.736c-1.029,0.647-1.418,0.945-1.926,1.69
		c-1.586,2.336-0.98,5.517,1.355,7.104c2.336,1.588,5.516,0.981,7.104-1.354c0.518-0.761,0.604-1.181,0.867-2.469
		c0.264-1.285,0.703-8.166,0.703-8.166C26.462,64.356,26.099,64.112,25.611,64.362z"/>
	<path fill="#6E6F71" d="M57.863,64.362c0,0-6.273,3.091-7.299,3.736c-1.029,0.647-1.42,0.945-1.926,1.69
		c-1.587,2.336-0.982,5.517,1.354,7.104c2.336,1.588,5.516,0.981,7.104-1.354c0.518-0.761,0.605-1.181,0.869-2.469
		c0.264-1.285,0.703-8.166,0.703-8.166C58.714,64.356,58.351,64.112,57.863,64.362z"/>
	<path fill="#6E6F71" d="M41.883,81.263c0,0-6.273,3.092-7.301,3.737c-1.029,0.646-1.42,0.945-1.926,1.69
		c-1.588,2.335-0.98,5.516,1.355,7.104c2.336,1.587,5.516,0.981,7.104-1.354c0.518-0.761,0.604-1.18,0.867-2.468
		c0.264-1.285,0.703-8.167,0.703-8.167C42.732,81.257,42.371,81.012,41.883,81.263z"/>
	<path fill="#6E6F71" d="M57.863,81.263c0,0-6.273,3.092-7.299,3.737c-1.029,0.646-1.42,0.945-1.926,1.69
		c-1.587,2.335-0.982,5.516,1.354,7.104c2.336,1.587,5.516,0.981,7.104-1.354c0.518-0.761,0.605-1.18,0.869-2.468
		c0.264-1.285,0.703-8.167,0.703-8.167C58.714,81.257,58.351,81.012,57.863,81.263z"/>
	<path fill="#6E6F71" d="M73.99,64.362c0,0-6.273,3.091-7.301,3.736c-1.029,0.647-1.42,0.945-1.926,1.69
		c-1.588,2.336-0.98,5.517,1.355,7.104c2.336,1.588,5.516,0.981,7.104-1.354c0.518-0.761,0.604-1.181,0.867-2.469
		c0.264-1.285,0.703-8.166,0.703-8.166C74.841,64.356,74.478,64.112,73.99,64.362z"/>
</g>
</svg>
