<?xml version="1.0" encoding="utf-8"?>
<!-- Generator: Adobe Illustrator 16.0.4, SVG Export Plug-In . SVG Version: 6.00 Build 0)  -->
<!DOCTYPE svg PUBLIC "-//W3C//DTD SVG 1.1//EN" "http://www.w3.org/Graphics/SVG/1.1/DTD/svg11.dtd">
<svg version="1.1" id="Layer_1" xmlns="http://www.w3.org/2000/svg" xmlns:xlink="http://www.w3.org/1999/xlink" x="0px" y="0px"
	 width="54.313px" height="60.61px" viewBox="0 0 54.313 60.61" enable-background="new 0 0 54.313 60.61" xml:space="preserve">
<path fill="#6E6F71" d="M54.164,48.064c-0.235-0.419-0.703-0.65-1.179-0.59c-1.276,0.171-2.542,0.258-3.76,0.258
	c-15.492,0-28.095-12.603-28.095-28.093c0-6.441,2.238-12.736,6.303-17.727c0.304-0.373,0.35-0.895,0.113-1.313
	c-0.233-0.419-0.703-0.65-1.179-0.59C11.337,2.021,0,14.987,0,30.17c0,16.785,13.655,30.44,30.438,30.44
	c9.193,0,17.799-4.095,23.612-11.232C54.353,49.005,54.398,48.483,54.164,48.064z"/>
</svg>
