<?xml version="1.0" encoding="utf-8"?>
<!-- Generator: Adobe Illustrator 16.0.4, SVG Export Plug-In . SVG Version: 6.00 Build 0)  -->
<!DOCTYPE svg PUBLIC "-//W3C//DTD SVG 1.1//EN" "http://www.w3.org/Graphics/SVG/1.1/DTD/svg11.dtd">
<svg version="1.1" id="Layer_1" xmlns="http://www.w3.org/2000/svg" xmlns:xlink="http://www.w3.org/1999/xlink" x="0px" y="0px"
	 width="113.675px" height="86.55px" viewBox="0 0 113.675 86.55" enable-background="new 0 0 113.675 86.55" xml:space="preserve">
<g>
	<path fill="#6E6F71" d="M90.3,43.413c0-11.463-9.291-20.752-20.752-20.752c-1.822,0-3.59,0.236-5.273,0.678
		C61.121,14.392,52.597,7.979,42.572,7.979c-12.283,0-22.316,9.625-22.976,21.742c-0.75-0.098-1.512-0.168-2.291-0.168
		C7.746,29.554,0,37.302,0,46.86c0,9.557,7.746,17.305,17.305,17.305c7.115,0,41.277,0,52.244,0
		C81.009,64.165,90.3,54.876,90.3,43.413z"/>
	<path fill="#6E6F71" d="M109.675,39.79h-6.99c-2.199,0-4,1.588-4,3.527c0,1.941,1.801,3.529,4,3.529h6.99c2.199,0,4-1.588,4-3.529
		C113.675,41.378,111.875,39.79,109.675,39.79z"/>
	<path fill="#6E6F71" d="M92.058,5.88c-1.68-0.971-3.955-0.207-5.055,1.699l-3.494,6.053c-1.102,1.904-0.625,4.258,1.055,5.229
		c1.682,0.971,3.957,0.205,5.057-1.699l3.494-6.053C94.214,9.202,93.74,6.851,92.058,5.88z"/>
	<path fill="#6E6F71" d="M89.621,69.478c-1.1-1.906-3.375-2.67-5.057-1.699c-1.68,0.969-2.156,3.322-1.055,5.227l3.494,6.055
		c1.1,1.904,3.375,2.67,5.055,1.699c1.682-0.971,2.156-3.324,1.057-5.229L89.621,69.478z"/>
	<path fill="#6E6F71" d="M106.183,59.876l-6.053-3.492c-1.904-1.102-4.258-0.625-5.229,1.055c-0.971,1.682-0.205,3.957,1.699,5.057
		l6.053,3.496c1.906,1.1,4.258,0.625,5.229-1.057C108.853,63.251,108.087,60.976,106.183,59.876z"/>
	<path fill="#6E6F71" d="M100.13,30.255l6.053-3.496c1.906-1.1,2.67-3.375,1.699-5.057s-3.322-2.156-5.229-1.057l-6.053,3.496
		c-1.904,1.1-2.67,3.375-1.699,5.057S98.226,31.354,100.13,30.255z"/>
	<path fill="#6E6F71" d="M70.445,15.075c1.939,0,3.527-1.799,3.527-4V4.087c0-2.199-1.588-4-3.527-4c-1.941,0-3.529,1.801-3.529,4
		v6.988C66.916,13.276,68.503,15.075,70.445,15.075z"/>
	<path fill="#6E6F71" d="M70.445,71.562c-1.941,0-3.529,1.801-3.529,4v6.988c0,2.201,1.588,4,3.529,4c1.939,0,3.527-1.799,3.527-4
		v-6.988C73.972,73.362,72.384,71.562,70.445,71.562z"/>
</g>
</svg>
