<?xml version="1.0" encoding="utf-8"?>
<!-- Generator: Adobe Illustrator 16.0.4, SVG Export Plug-In . SVG Version: 6.00 Build 0)  -->
<!DOCTYPE svg PUBLIC "-//W3C//DTD SVG 1.1//EN" "http://www.w3.org/Graphics/SVG/1.1/DTD/svg11.dtd">
<svg version="1.1" id="Layer_1" xmlns="http://www.w3.org/2000/svg" xmlns:xlink="http://www.w3.org/1999/xlink" x="0px" y="0px"
	 width="90.3px" height="92.753px" viewBox="0 0 90.3 92.753" enable-background="new 0 0 90.3 92.753" xml:space="preserve">
<g>
	<path fill="#6E6F71" d="M69.654,14.681c-1.822,0-3.59,0.237-5.273,0.678C61.226,6.412,52.703,0,42.678,0
		C30.395,0,20.361,9.624,19.701,21.742c-0.75-0.099-1.512-0.169-2.291-0.169c-9.559,0-17.305,7.748-17.305,17.307
		c0,9.558,7.746,17.305,17.305,17.305c7.115,0,41.277,0,52.244,0c11.461,0,20.752-9.288,20.752-20.752
		C90.406,23.97,81.115,14.681,69.654,14.681z"/>
	<path fill="#6E6F71" d="M50.974,64.719c0,0-13.109,6.461-15.253,7.809c-2.15,1.353-2.965,1.977-4.023,3.534
		c-3.316,4.879-2.049,11.525,2.83,14.842c4.881,3.317,11.527,2.051,14.843-2.828c1.082-1.591,1.264-2.468,1.814-5.157
		c0.551-2.688,1.469-17.066,1.469-17.066C52.753,64.707,51.996,64.197,50.974,64.719z"/>
</g>
</svg>
