<?xml version="1.0" encoding="utf-8"?>
<!-- Generator: Adobe Illustrator 16.0.4, SVG Export Plug-In . SVG Version: 6.00 Build 0)  -->
<!DOCTYPE svg PUBLIC "-//W3C//DTD SVG 1.1//EN" "http://www.w3.org/Graphics/SVG/1.1/DTD/svg11.dtd">
<svg version="1.1" id="Layer_1" xmlns="http://www.w3.org/2000/svg" xmlns:xlink="http://www.w3.org/1999/xlink" x="0px" y="0px"
	 width="91.322px" height="92.056px" viewBox="0 0 91.322 92.056" enable-background="new 0 0 91.322 92.056" xml:space="preserve">
<g>
	<path fill="#6E6F71" d="M37.417,64.021c0,0-13.108,6.461-15.253,7.809c-2.15,1.353-2.966,1.977-4.024,3.534
		c-3.316,4.879-2.049,11.525,2.831,14.842c4.88,3.317,11.526,2.051,14.843-2.828c1.082-1.591,1.264-2.468,1.814-5.157
		c0.551-2.688,1.47-17.066,1.47-17.066C39.196,64.01,38.438,63.5,37.417,64.021z"/>
	<path fill="#6E6F71" d="M69.516,14.4c-1.822,0-3.59,0.237-5.273,0.678C61.088,6.132,52.565-0.28,42.54-0.28
		c-12.283,0-22.317,9.624-22.977,21.742c-0.751-0.099-1.512-0.169-2.291-0.169c-9.559,0-17.305,7.748-17.305,17.307
		c0,9.558,7.746,17.305,17.305,17.305c7.115,0,41.277,0,52.244,0c11.461,0,20.752-9.288,20.752-20.752
		C90.268,23.689,80.977,14.4,69.516,14.4z"/>
	<circle fill="#6E6F71" cx="63.482" cy="75.992" r="12.167"/>
</g>
</svg>
