<?xml version="1.0" encoding="utf-8"?>
<!-- Generator: Adobe Illustrator 16.0.4, SVG Export Plug-In . SVG Version: 6.00 Build 0)  -->
<!DOCTYPE svg PUBLIC "-//W3C//DTD SVG 1.1//EN" "http://www.w3.org/Graphics/SVG/1.1/DTD/svg11.dtd">
<svg version="1.1" id="Layer_1" xmlns="http://www.w3.org/2000/svg" xmlns:xlink="http://www.w3.org/1999/xlink" x="0px" y="0px"
	 width="90.3px" height="94.679px" viewBox="0 0 90.3 94.679" enable-background="new 0 0 90.3 94.679" xml:space="preserve">
<g>
	<path fill="#6E6F71" d="M69.548,14.681c-1.822,0-3.588,0.237-5.273,0.678C61.121,6.412,52.597,0,42.572,0
		C30.289,0,20.255,9.624,19.597,21.742c-0.752-0.099-1.514-0.169-2.293-0.169C7.748,21.573,0,29.321,0,38.88
		c0,9.558,7.748,17.305,17.305,17.305c7.115,0,41.277,0,52.244,0c11.461,0,20.752-9.288,20.752-20.752
		C90.3,23.97,81.009,14.681,69.548,14.681z"/>
	<path fill="#6E6F71" d="M69.773,64.58c0,0-13.109,6.461-15.254,7.809c-2.15,1.352-2.965,1.977-4.023,3.533
		c-3.318,4.879-2.051,11.526,2.83,14.843c4.881,3.319,11.527,2.051,14.844-2.828c1.082-1.59,1.262-2.467,1.814-5.156
		c0.549-2.688,1.469-17.067,1.469-17.067C71.552,64.568,70.794,64.059,69.773,64.58z"/>
	<path fill="#6E6F71" d="M38.275,79.104l-6.959-2.725l5.428-5.141c0.475-0.447,0.494-1.203,0.045-1.674l-2.191-2.314
		c-0.447-0.473-1.201-0.492-1.674-0.045l-4.934,4.672l-1.301-6.672c-0.125-0.641-0.75-1.062-1.391-0.938l-3.129,0.611
		c-0.639,0.125-1.061,0.75-0.938,1.389l1.301,6.672l-6.328-2.477c-0.607-0.238-1.299,0.064-1.537,0.67l-1.162,2.969
		c-0.238,0.605,0.064,1.297,0.672,1.535l6.961,2.725l-5.428,5.14c-0.475,0.449-0.494,1.203-0.045,1.676l2.191,2.316
		c0.447,0.473,1.201,0.492,1.676,0.045l4.934-4.674l1.301,6.672c0.125,0.641,0.752,1.061,1.391,0.936l3.129-0.609
		c0.639-0.125,1.061-0.75,0.936-1.389l-1.299-6.672l6.326,2.479c0.607,0.236,1.299-0.064,1.535-0.672l1.164-2.97
		C39.186,80.031,38.883,79.34,38.275,79.104z"/>
</g>
</svg>
