<?xml version="1.0" encoding="utf-8"?>
<!-- Generator: Adobe Illustrator 16.0.4, SVG Export Plug-In . SVG Version: 6.00 Build 0)  -->
<!DOCTYPE svg PUBLIC "-//W3C//DTD SVG 1.1//EN" "http://www.w3.org/Graphics/SVG/1.1/DTD/svg11.dtd">
<svg version="1.1" id="Layer_1" xmlns="http://www.w3.org/2000/svg" xmlns:xlink="http://www.w3.org/1999/xlink" x="0px" y="0px"
	 width="90.3px" height="92.753px" viewBox="0 0 90.3 92.753" enable-background="new 0 0 90.3 92.753" xml:space="preserve">
<g>
	<path fill="#6E6F71" d="M69.548,14.681c-1.822,0-3.588,0.237-5.273,0.678C61.121,6.412,52.597,0,42.572,0
		C30.289,0,20.255,9.624,19.597,21.742c-0.752-0.099-1.514-0.169-2.293-0.169c-9.557,0-17.305,7.748-17.305,17.307
		c0,9.558,7.748,17.305,17.305,17.305c7.115,0,41.278,0,52.245,0c11.461,0,20.752-9.288,20.752-20.752
		C90.3,23.97,81.009,14.681,69.548,14.681z"/>
	<path fill="#6E6F71" d="M56.632,78.907l-6.959-2.725l5.428-5.139c0.475-0.449,0.494-1.203,0.045-1.676l-2.191-2.312
		c-0.447-0.473-1.201-0.494-1.674-0.047l-4.934,4.674l-1.301-6.674c-0.125-0.639-0.75-1.061-1.391-0.936l-3.129,0.609
		c-0.639,0.125-1.061,0.75-0.938,1.391l1.301,6.672l-6.328-2.479c-0.607-0.238-1.299,0.064-1.537,0.67l-1.162,2.969
		c-0.238,0.605,0.064,1.297,0.672,1.535l6.961,2.725l-5.428,5.139c-0.475,0.449-0.494,1.203-0.045,1.678l2.191,2.314
		c0.447,0.473,1.201,0.494,1.676,0.045l4.934-4.674l1.301,6.672c0.125,0.641,0.752,1.061,1.391,0.936l3.129-0.607
		c0.639-0.127,1.061-0.75,0.936-1.391l-1.299-6.67l6.326,2.477c0.607,0.238,1.299-0.064,1.535-0.672l1.164-2.967
		C57.542,79.835,57.24,79.144,56.632,78.907z"/>
</g>
</svg>
