<?xml version="1.0" encoding="utf-8"?>
<!-- Generator: Adobe Illustrator 16.0.4, SVG Export Plug-In . SVG Version: 6.00 Build 0)  -->
<!DOCTYPE svg PUBLIC "-//W3C//DTD SVG 1.1//EN" "http://www.w3.org/Graphics/SVG/1.1/DTD/svg11.dtd">
<svg version="1.1" id="Layer_1" xmlns="http://www.w3.org/2000/svg" xmlns:xlink="http://www.w3.org/1999/xlink" x="0px" y="0px"
	 width="115.181px" height="98.951px" viewBox="0 0 115.181 98.951" enable-background="new 0 0 115.181 98.951"
	 xml:space="preserve">
<g>
	<path fill="#6E6F71" d="M76.721,87.435l-6.959-2.725l5.428-5.139c0.475-0.449,0.494-1.203,0.045-1.676l-2.191-2.312
		c-0.447-0.473-1.201-0.494-1.674-0.047l-4.934,4.674l-1.301-6.674c-0.125-0.639-0.75-1.061-1.391-0.936l-3.129,0.609
		c-0.639,0.125-1.061,0.75-0.938,1.391l1.301,6.672l-6.328-2.479c-0.607-0.238-1.299,0.064-1.537,0.67l-1.162,2.969
		c-0.238,0.605,0.064,1.297,0.672,1.535l6.961,2.725l-5.428,5.141c-0.475,0.449-0.494,1.203-0.045,1.676l2.191,2.316
		c0.447,0.473,1.201,0.492,1.676,0.045l4.934-4.674l1.301,6.672c0.125,0.641,0.752,1.061,1.391,0.936l3.129-0.609
		c0.639-0.125,1.061-0.75,0.936-1.389l-1.299-6.672l6.326,2.479c0.607,0.236,1.299-0.064,1.535-0.672l1.164-2.969
		C77.631,88.364,77.329,87.671,76.721,87.435z"/>
	<path fill="#6E6F71" d="M39.472,87.56l-6.959-2.725l5.428-5.139c0.474-0.449,0.494-1.203,0.045-1.676l-2.191-2.312
		c-0.447-0.473-1.201-0.494-1.675-0.047l-4.934,4.674l-1.3-6.674c-0.125-0.639-0.75-1.061-1.391-0.936l-3.13,0.609
		c-0.638,0.125-1.061,0.75-0.937,1.391l1.301,6.672l-6.328-2.479c-0.607-0.238-1.299,0.064-1.537,0.67l-1.162,2.969
		c-0.238,0.605,0.064,1.297,0.672,1.535l6.961,2.725l-5.428,5.141c-0.475,0.449-0.494,1.203-0.046,1.676l2.192,2.316
		c0.447,0.473,1.201,0.492,1.675,0.045l4.935-4.674l1.301,6.672c0.125,0.641,0.751,1.061,1.39,0.936l3.13-0.609
		c0.639-0.125,1.061-0.75,0.936-1.389l-1.299-6.672l6.326,2.479c0.607,0.236,1.298-0.064,1.535-0.672l1.164-2.969
		C40.381,88.489,40.079,87.796,39.472,87.56z"/>
	<path fill="#6E6F71" d="M70.301,64.65c11.461,0,20.752-9.289,20.752-20.753c0-11.463-9.291-20.752-20.752-20.752
		c-1.822,0-3.588,0.237-5.273,0.678C61.874,14.877,53.35,8.465,43.325,8.465c-12.283,0-22.316,9.624-22.975,21.742
		c-0.751-0.099-1.513-0.169-2.292-0.169c-9.558,0-17.305,7.748-17.305,17.307c0,9.558,7.747,17.306,17.305,17.306
		C25.173,64.65,59.334,64.65,70.301,64.65z"/>
	<path fill="#6E6F71" d="M110.428,40.274h-6.988c-2.201,0-4,1.588-4,3.528c0,1.941,1.799,3.529,4,3.529h6.988
		c2.199,0,4-1.588,4-3.529C114.428,41.862,112.627,40.274,110.428,40.274z"/>
	<path fill="#6E6F71" d="M92.813,6.364c-1.682-0.971-3.957-0.206-5.057,1.699l-3.494,6.053c-1.1,1.905-0.625,4.258,1.057,5.229
		c1.68,0.971,3.955,0.206,5.055-1.699l3.494-6.053C94.969,9.688,94.493,7.335,92.813,6.364z"/>
	<path fill="#6E6F71" d="M90.374,69.962c-1.1-1.906-3.375-2.671-5.055-1.699c-1.682,0.971-2.156,3.322-1.057,5.229l3.494,6.053
		c1.1,1.906,3.375,2.67,5.057,1.699c1.68-0.971,2.156-3.322,1.055-5.229L90.374,69.962z"/>
	<path fill="#6E6F71" d="M106.936,60.361l-6.053-3.493c-1.904-1.101-4.258-0.625-5.229,1.056c-0.971,1.682-0.205,3.957,1.701,5.057
		l6.051,3.494c1.906,1.1,4.26,0.625,5.23-1.057C109.606,63.736,108.842,61.461,106.936,60.361z"/>
	<path fill="#6E6F71" d="M100.883,30.739l6.053-3.495c1.906-1.1,2.67-3.375,1.701-5.057c-0.971-1.682-3.324-2.156-5.229-1.057
		l-6.055,3.496c-1.904,1.1-2.67,3.375-1.699,5.057C96.625,31.364,98.979,31.839,100.883,30.739z"/>
	<path fill="#6E6F71" d="M71.198,15.561c1.939,0,3.527-1.8,3.527-4V4.572c0-2.2-1.588-4-3.527-4c-1.941,0-3.529,1.8-3.529,4v6.988
		C67.668,13.761,69.256,15.561,71.198,15.561z"/>
</g>
</svg>
