<?xml version="1.0" encoding="utf-8"?>
<!-- Generator: Adobe Illustrator 16.0.4, SVG Export Plug-In . SVG Version: 6.00 Build 0)  -->
<!DOCTYPE svg PUBLIC "-//W3C//DTD SVG 1.1//EN" "http://www.w3.org/Graphics/SVG/1.1/DTD/svg11.dtd">
<svg version="1.1" id="Layer_1" xmlns="http://www.w3.org/2000/svg" xmlns:xlink="http://www.w3.org/1999/xlink" x="0px" y="0px"
	 width="86.441px" height="88.312px" viewBox="0 0 86.441 88.312" enable-background="new 0 0 86.441 88.312" xml:space="preserve">
<g>
	<path fill="#6E6F71" d="M5.945,0H3.838C1.727,0,0,1.728,0,3.839v80.635c0,2.111,1.727,3.839,3.838,3.839h2.107
		c2.109,0,3.838-1.728,3.838-3.839V3.839C9.783,1.728,8.055,0,5.945,0z"/>
	<path fill="#6E6F71" d="M80.744,11.742l-8.373-1.219l0,0L29.876,4.34l0,0l-8.509-1.239c-0.247-0.036-0.488-0.05-0.727-0.054
		c-0.027,0-0.058-0.006-0.086-0.006c-0.027,0-0.055,0.007-0.082,0.008c-0.301,0.005-0.594,0.031-0.879,0.085
		c-0.037,0.006-0.072,0.017-0.109,0.024c-0.293,0.062-0.577,0.143-0.846,0.254c-0.012,0.004-0.021,0.011-0.034,0.016
		c-0.269,0.112-0.522,0.249-0.763,0.406c-0.018,0.013-0.039,0.023-0.059,0.037c-0.232,0.157-0.447,0.337-0.646,0.533
		c-0.029,0.029-0.059,0.056-0.088,0.085c-0.189,0.195-0.361,0.409-0.515,0.636c-0.026,0.039-0.053,0.078-0.078,0.117
		c-0.147,0.232-0.277,0.479-0.386,0.738c-0.018,0.043-0.033,0.085-0.049,0.127c-0.104,0.271-0.189,0.551-0.248,0.848
		c-0.006,0.032-0.01,0.067-0.016,0.1c-0.057,0.314-0.09,0.638-0.09,0.975v34.713c0,0.337,0.035,0.66,0.09,0.975
		c0.006,0.033,0.01,0.067,0.016,0.102c0.059,0.294,0.145,0.575,0.248,0.845c0.016,0.043,0.031,0.087,0.049,0.129
		c0.108,0.26,0.238,0.505,0.385,0.735c0.026,0.041,0.053,0.081,0.08,0.121c0.154,0.226,0.323,0.438,0.512,0.633
		c0.029,0.031,0.062,0.059,0.093,0.089c0.198,0.194,0.411,0.373,0.642,0.528c0.021,0.017,0.045,0.028,0.068,0.043
		c0.234,0.153,0.484,0.288,0.748,0.398c0.016,0.007,0.028,0.016,0.043,0.021c0.267,0.109,0.548,0.188,0.836,0.251
		c0.042,0.008,0.08,0.02,0.121,0.027c0.281,0.052,0.571,0.078,0.869,0.083c0.03,0.001,0.059,0.009,0.088,0.009
		c0.03,0,0.061-0.007,0.09-0.007c0.238-0.004,0.477-0.018,0.723-0.054l8.509-1.238l0,0l42.494-6.185l0,0l8.373-1.219
		c3.135-0.456,5.697-3.421,5.697-6.588V18.33C86.441,15.163,83.878,12.199,80.744,11.742z M29.876,8.219l14.086,2.05v30.234
		l-14.086,2.05V8.219z M58.287,38.418V12.354l14.084,2.05v21.965L58.287,38.418z"/>
</g>
</svg>
