<?xml version="1.0" encoding="utf-8"?>
<!-- Generator: Adobe Illustrator 16.0.0, SVG Export Plug-In . SVG Version: 6.00 Build 0)  -->
<!DOCTYPE svg PUBLIC "-//W3C//DTD SVG 1.1//EN" "http://www.w3.org/Graphics/SVG/1.1/DTD/svg11.dtd">
<svg version="1.1" id="Layer_1" xmlns="http://www.w3.org/2000/svg" xmlns:xlink="http://www.w3.org/1999/xlink" x="0px" y="0px"
	 width="50px" height="50px" viewBox="0 0 50 50" enable-background="new 0 0 50 50" xml:space="preserve">
<g>
	<g>
		<path fill="#939393" d="M30.472,39.663l-1.406-0.811c0.043-0.244,0.075-0.493,0.075-0.752s-0.032-0.508-0.078-0.752l1.409-0.812
			c0.658-0.384,0.883-1.229,0.505-1.883c-0.381-0.662-1.224-0.889-1.885-0.508l-1.421,0.82c-0.381-0.324-0.811-0.578-1.289-0.75
			v-1.633c0-0.764-0.62-1.382-1.382-1.382s-1.38,0.618-1.38,1.382v1.631c-0.479,0.171-0.91,0.428-1.291,0.752l-1.417-0.82
			c-0.663-0.381-1.507-0.156-1.888,0.506c-0.381,0.658-0.151,1.504,0.508,1.885l1.403,0.811c-0.045,0.246-0.075,0.495-0.075,0.754
			s0.029,0.508,0.075,0.752l-1.403,0.811c-0.661,0.381-0.889,1.23-0.508,1.89s1.226,0.884,1.885,0.503l1.419-0.815
			c0.381,0.322,0.812,0.576,1.292,0.747v1.636C23.62,44.385,24.238,45,25,45s1.382-0.615,1.382-1.377v-1.636
			c0.479-0.171,0.913-0.425,1.291-0.752l1.419,0.82c0.661,0.381,1.504,0.156,1.885-0.503S31.133,40.049,30.472,39.663z M25,39.482
			c-0.762,0-1.382-0.62-1.382-1.382s0.62-1.379,1.382-1.379s1.38,0.617,1.38,1.379S25.762,39.482,25,39.482z M42.044,35.957
			l-0.943-0.251c-0.023-0.299-0.095-0.584-0.227-0.857l0.686-0.686c0.322-0.322,0.32-0.843,0-1.16c-0.319-0.32-0.837-0.322-1.159,0
			l-0.687,0.684c-0.271-0.127-0.559-0.2-0.856-0.225l-0.251-0.942c-0.117-0.437-0.566-0.698-1.006-0.581
			c-0.438,0.119-0.693,0.568-0.579,1.006l0.251,0.93c-0.124,0.084-0.241,0.179-0.352,0.286c-0.107,0.11-0.199,0.228-0.283,0.349
			l-0.93-0.251c-0.438-0.117-0.891,0.146-1.008,0.581c-0.117,0.439,0.146,0.887,0.58,1.006l0.938,0.252
			c0.025,0.295,0.101,0.583,0.232,0.856l-0.688,0.688c-0.319,0.32-0.317,0.838,0.003,1.157c0.319,0.319,0.837,0.322,1.156,0.003
			l0.689-0.689c0.271,0.133,0.561,0.208,0.859,0.23l0.248,0.939c0.12,0.438,0.566,0.698,1.006,0.581
			c0.436-0.117,0.699-0.566,0.582-1.009l-0.25-0.93c0.117-0.083,0.237-0.176,0.348-0.283c0.107-0.109,0.199-0.229,0.283-0.35
			l0.932,0.25c0.438,0.117,0.889-0.145,1.004-0.579C42.739,36.526,42.48,36.077,42.044,35.957z M39.243,36.479
			c-0.322,0.322-0.842,0.32-1.162,0c-0.317-0.317-0.32-0.838,0-1.16c0.32-0.319,0.842-0.319,1.162,0
			C39.561,35.64,39.561,36.162,39.243,36.479z M14.292,31.758l-0.928,0.249c-0.086-0.117-0.176-0.236-0.285-0.347
			c-0.111-0.107-0.228-0.2-0.35-0.283l0.249-0.933c0.117-0.438-0.143-0.889-0.576-1.004c-0.439-0.117-0.889,0.143-1.006,0.579
			l-0.254,0.942c-0.298,0.024-0.583,0.098-0.854,0.227L9.6,30.503c-0.322-0.322-0.84-0.32-1.159,0c-0.321,0.32-0.321,0.84,0,1.16
			l0.685,0.686C8.998,32.622,8.922,32.91,8.9,33.206l-0.941,0.251c-0.439,0.12-0.7,0.566-0.583,1.006
			c0.119,0.437,0.568,0.693,1.007,0.579l0.928-0.252c0.083,0.125,0.176,0.242,0.288,0.352c0.107,0.107,0.225,0.203,0.347,0.283
			l-0.249,0.93c-0.117,0.439,0.144,0.892,0.58,1.009c0.439,0.117,0.885-0.144,1.002-0.581l0.254-0.938
			c0.298-0.024,0.586-0.1,0.859-0.229l0.687,0.687c0.319,0.322,0.836,0.316,1.159-0.003c0.317-0.317,0.322-0.837,0-1.157
			l-0.688-0.688c0.132-0.271,0.21-0.562,0.229-0.859l0.942-0.249c0.435-0.119,0.695-0.566,0.578-1.006
			C15.182,31.904,14.733,31.644,14.292,31.758z M11.919,33.981c-0.321,0.32-0.84,0.32-1.162,0c-0.317-0.319-0.317-0.842,0-1.159
			c0.322-0.319,0.841-0.319,1.162,0S12.236,33.662,11.919,33.981z M45,18.75c0-4.824-3.926-8.75-8.75-8.75
			c-0.415,0-0.825,0.029-1.233,0.088C32.683,6.908,28.999,5,25,5s-7.681,1.908-10.016,5.088C14.575,10.029,14.165,10,13.75,10
			C8.926,10,5,13.926,5,18.75s3.926,8.75,8.75,8.75c1.069,0,2.116-0.195,3.102-0.573C19.115,28.899,21.992,30,25,30
			c3.011,0,5.886-1.101,8.147-3.073c0.986,0.378,2.033,0.573,3.103,0.573C41.074,27.5,45,23.574,45,18.75z M32.661,23.854
			C30.827,26.064,28.096,27.5,25,27.5s-5.827-1.436-7.661-3.646C16.323,24.57,15.088,25,13.75,25c-3.452,0-6.25-2.798-6.25-6.25
			s2.798-6.25,6.25-6.25c0.845,0,1.646,0.172,2.378,0.475C17.787,9.74,21.117,7.5,25,7.5c3.884,0,7.214,2.24,8.87,5.475
			c0.734-0.303,1.537-0.475,2.38-0.475c3.452,0,6.25,2.798,6.25,6.25S39.702,25,36.25,25C34.912,25,33.679,24.57,32.661,23.854z"/>
	</g>
</g>
</svg>
