<?xml version="1.0" encoding="utf-8"?>
<!-- Generator: Adobe Illustrator 16.0.0, SVG Export Plug-In . SVG Version: 6.00 Build 0)  -->
<!DOCTYPE svg PUBLIC "-//W3C//DTD SVG 1.1//EN" "http://www.w3.org/Graphics/SVG/1.1/DTD/svg11.dtd">
<svg version="1.1" id="Layer_1" xmlns="http://www.w3.org/2000/svg" xmlns:xlink="http://www.w3.org/1999/xlink" x="0px" y="0px"
	 width="50px" height="50px" viewBox="0 0 50 50" enable-background="new 0 0 50 50" xml:space="preserve">
<g>
	<g>
		<path fill="#939393" d="M25,14.231c-5.938,0-10.769,4.832-10.769,10.769S19.062,35.77,25,35.77S35.77,30.938,35.77,25
			S30.938,14.231,25,14.231z M25,32.692c-4.249,0-7.692-3.443-7.692-7.692s3.443-7.692,7.692-7.692s7.692,3.443,7.692,7.692
			S29.249,32.692,25,32.692z M25,11.154c0.85,0,1.538-0.689,1.538-1.539V6.539C26.538,5.689,25.85,5,25,5
			c-0.849,0-1.539,0.689-1.539,1.539v3.077C23.461,10.465,24.151,11.154,25,11.154z M25,38.846c-0.849,0-1.539,0.689-1.539,1.539
			v3.077C23.461,44.311,24.151,45,25,45c0.85,0,1.538-0.689,1.538-1.538v-3.077C26.538,39.535,25.85,38.846,25,38.846z
			 M36.965,15.208l2.176-2.176c0.601-0.601,0.601-1.574,0-2.175s-1.574-0.601-2.176,0l-2.175,2.175
			c-0.602,0.601-0.602,1.575,0,2.176C35.391,15.81,36.364,15.81,36.965,15.208z M13.035,34.792l-2.175,2.175
			c-0.601,0.602-0.601,1.575,0,2.176s1.575,0.601,2.175,0l2.176-2.176c0.601-0.603,0.601-1.574,0-2.175
			C14.609,34.19,13.636,34.188,13.035,34.792z M11.154,25c0-0.849-0.689-1.539-1.539-1.539H6.539C5.689,23.461,5,24.151,5,25
			c0,0.85,0.689,1.538,1.539,1.538h3.077C10.465,26.538,11.154,25.85,11.154,25z M43.462,23.461h-3.077
			c-0.85,0-1.539,0.689-1.539,1.539c0,0.85,0.689,1.538,1.539,1.538h3.077C44.311,26.538,45,25.85,45,25
			C45,24.151,44.311,23.461,43.462,23.461z M13.033,15.208c0.601,0.601,1.575,0.601,2.176,0s0.601-1.575,0-2.176l-2.176-2.175
			c-0.601-0.601-1.574-0.601-2.175,0s-0.601,1.575,0,2.175L13.033,15.208z M36.967,34.79c-0.603-0.602-1.574-0.602-2.175,0
			c-0.602,0.601-0.604,1.574,0,2.175l2.175,2.176c0.602,0.601,1.575,0.601,2.176,0s0.601-1.574,0-2.176L36.967,34.79z"/>
	</g>
</g>
</svg>
