<?xml version="1.0" encoding="utf-8"?>
<!-- Generator: Adobe Illustrator 16.0.0, SVG Export Plug-In . SVG Version: 6.00 Build 0)  -->
<!DOCTYPE svg PUBLIC "-//W3C//DTD SVG 1.1//EN" "http://www.w3.org/Graphics/SVG/1.1/DTD/svg11.dtd">
<svg version="1.1" id="Layer_1" xmlns="http://www.w3.org/2000/svg" xmlns:xlink="http://www.w3.org/1999/xlink" x="0px" y="0px"
	 width="50px" height="50px" viewBox="0 0 50 50" enable-background="new 0 0 50 50" xml:space="preserve">
<path fill="#939393" d="M36.25,17.5c-0.415,0-0.825,0.029-1.233,0.088C32.683,14.408,28.999,12.5,25,12.5s-7.681,1.908-10.016,5.088
	c-0.409-0.059-0.819-0.088-1.234-0.088C8.926,17.5,5,21.426,5,26.25S8.926,35,13.75,35c1.069,0,2.116-0.195,3.102-0.573
	C19.115,36.399,21.992,37.5,25,37.5c3.011,0,5.886-1.101,8.147-3.073C34.134,34.805,35.181,35,36.25,35
	c4.824,0,8.75-3.926,8.75-8.75S41.074,17.5,36.25,17.5z M36.25,32.5c-1.338,0-2.571-0.43-3.589-1.146C30.827,33.564,28.096,35,25,35
	s-5.827-1.436-7.661-3.646C16.323,32.07,15.088,32.5,13.75,32.5c-3.452,0-6.25-2.798-6.25-6.25S10.298,20,13.75,20
	c0.845,0,1.646,0.172,2.378,0.475C17.787,17.24,21.117,15,25,15c3.884,0,7.214,2.24,8.87,5.475C34.604,20.172,35.407,20,36.25,20
	c3.452,0,6.25,2.798,6.25,6.25S39.702,32.5,36.25,32.5z"/>
</svg>
