<?xml version="1.0" encoding="utf-8"?>
<!-- Generator: Adobe Illustrator 16.0.0, SVG Export Plug-In . SVG Version: 6.00 Build 0)  -->
<!DOCTYPE svg PUBLIC "-//W3C//DTD SVG 1.1//EN" "http://www.w3.org/Graphics/SVG/1.1/DTD/svg11.dtd">
<svg version="1.1" id="Layer_1" xmlns="http://www.w3.org/2000/svg" xmlns:xlink="http://www.w3.org/1999/xlink" x="0px" y="0px"
	 width="50px" height="50px" viewBox="0 0 50 50" enable-background="new 0 0 50 50" xml:space="preserve">
<g>
	<g>
		<path fill="#939393" d="M36.25,12.5c-0.415,0-0.825,0.029-1.233,0.088C32.683,9.408,28.999,7.5,25,7.5s-7.681,1.908-10.016,5.088
			c-0.409-0.059-0.819-0.088-1.234-0.088C8.926,12.5,5,16.426,5,21.25S8.926,30,13.75,30c1.069,0,2.116-0.195,3.102-0.573
			C19.115,31.399,21.992,32.5,25,32.5c3.011,0,5.886-1.101,8.147-3.073C34.134,29.805,35.181,30,36.25,30
			c4.824,0,8.75-3.926,8.75-8.75S41.074,12.5,36.25,12.5z M36.25,27.5c-1.338,0-2.571-0.43-3.589-1.146
			C30.827,28.564,28.096,30,25,30s-5.827-1.436-7.661-3.646C16.323,27.07,15.088,27.5,13.75,27.5c-3.452,0-6.25-2.798-6.25-6.25
			S10.298,15,13.75,15c0.845,0,1.646,0.172,2.378,0.475C17.787,12.24,21.117,10,25,10c3.884,0,7.214,2.24,8.87,5.475
			C34.604,15.172,35.407,15,36.25,15c3.452,0,6.25,2.798,6.25,6.25S39.702,27.5,36.25,27.5z M22.5,40c0,1.382,1.118,2.5,2.5,2.5
			s2.5-1.118,2.5-2.5S25,35,25,35S22.5,38.618,22.5,40z"/>
	</g>
</g>
</svg>
