<?xml version="1.0" encoding="utf-8"?>
<!-- Generator: Adobe Illustrator 16.0.0, SVG Export Plug-In . SVG Version: 6.00 Build 0)  -->
<!DOCTYPE svg PUBLIC "-//W3C//DTD SVG 1.1//EN" "http://www.w3.org/Graphics/SVG/1.1/DTD/svg11.dtd">
<svg version="1.1" id="Layer_1" xmlns="http://www.w3.org/2000/svg" xmlns:xlink="http://www.w3.org/1999/xlink" x="0px" y="0px"
	 width="50px" height="50px" viewBox="0 0 50 50" enable-background="new 0 0 50 50" xml:space="preserve">
<g>
	<g>
		<path fill="#939393" d="M7.625,25C7.544,24.596,7.5,24.178,7.5,23.75c0-3.452,2.798-6.25,6.25-6.25
			c0.845,0,1.646,0.172,2.378,0.475C17.787,14.74,21.117,12.5,25,12.5c3.884,0,7.214,2.24,8.87,5.475
			c0.734-0.303,1.537-0.475,2.38-0.475c3.452,0,6.25,2.798,6.25,6.25c0,0.428-0.044,0.846-0.127,1.25h2.5
			C44.935,24.588,45,24.178,45,23.75c0-4.824-3.926-8.75-8.75-8.75c-0.415,0-0.825,0.029-1.233,0.088C32.683,11.908,28.999,10,25,10
			s-7.681,1.908-10.016,5.088C14.575,15.029,14.165,15,13.75,15C8.926,15,5,18.926,5,23.75c0,0.428,0.067,0.838,0.127,1.25H7.625z
			 M43.75,27.5H6.25C5.56,27.5,5,28.06,5,28.75S5.56,30,6.25,30h37.5c0.69,0,1.25-0.56,1.25-1.25S44.44,27.5,43.75,27.5z
			 M43.75,32.5H6.25C5.56,32.5,5,33.06,5,33.75S5.56,35,6.25,35h37.5c0.69,0,1.25-0.56,1.25-1.25S44.44,32.5,43.75,32.5z
			 M43.75,37.5H6.25C5.56,37.5,5,38.06,5,38.75S5.56,40,6.25,40h37.5c0.69,0,1.25-0.56,1.25-1.25S44.44,37.5,43.75,37.5z"/>
	</g>
</g>
</svg>
