<?xml version="1.0" encoding="utf-8"?>
<!-- Generator: Adobe Illustrator 16.0.0, SVG Export Plug-In . SVG Version: 6.00 Build 0)  -->
<!DOCTYPE svg PUBLIC "-//W3C//DTD SVG 1.1//EN" "http://www.w3.org/Graphics/SVG/1.1/DTD/svg11.dtd">
<svg version="1.1" id="Layer_1" xmlns="http://www.w3.org/2000/svg" xmlns:xlink="http://www.w3.org/1999/xlink" x="0px" y="0px"
	 width="50px" height="50px" viewBox="0 0 50 50" enable-background="new 0 0 50 50" xml:space="preserve">
<g>
	<g>
		<path fill="#939393" d="M25,11.154c0.85,0,1.538-0.689,1.538-1.539V6.539C26.538,5.689,25.85,5,25,5
			c-0.849,0-1.539,0.689-1.539,1.539v3.077C23.461,10.465,24.151,11.154,25,11.154z M36.965,15.208l2.176-2.176
			c0.601-0.601,0.601-1.574,0-2.175s-1.574-0.601-2.176,0l-2.175,2.175c-0.602,0.601-0.602,1.575,0,2.176
			C35.391,15.81,36.364,15.81,36.965,15.208z M6.539,26.538h3.077c0.85,0,1.539-0.688,1.539-1.538c0-0.849-0.689-1.539-1.539-1.539
			H6.539C5.689,23.461,5,24.151,5,25C5,25.85,5.689,26.538,6.539,26.538z M38.846,25c0,0.85,0.689,1.538,1.539,1.538h3.077
			C44.311,26.538,45,25.85,45,25c0-0.849-0.689-1.539-1.538-1.539h-3.077C39.535,23.461,38.846,24.151,38.846,25z M13.033,15.208
			c0.601,0.601,1.575,0.601,2.176,0s0.601-1.575,0-2.176l-2.176-2.175c-0.601-0.601-1.574-0.601-2.175,0s-0.601,1.575,0,2.175
			L13.033,15.208z M14.387,26.538h3.077c-0.102-0.496-0.156-1.012-0.156-1.538c0-4.249,3.443-7.692,7.692-7.692
			s7.692,3.443,7.692,7.692c0,0.526-0.054,1.042-0.156,1.538h3.077c0.076-0.507,0.156-1.012,0.156-1.538
			c0-5.938-4.832-10.769-10.77-10.769S14.231,19.062,14.231,25C14.231,25.526,14.315,26.031,14.387,26.538z M43.462,29.615H6.539
			C5.689,29.615,5,30.305,5,31.154c0,0.849,0.689,1.538,1.539,1.538h36.923c0.849,0,1.538-0.689,1.538-1.538
			C45,30.305,44.311,29.615,43.462,29.615z M43.462,35.77H6.539C5.689,35.77,5,36.458,5,37.308s0.689,1.538,1.539,1.538h36.923
			c0.849,0,1.538-0.688,1.538-1.538S44.311,35.77,43.462,35.77z M43.462,41.923H6.539C5.689,41.923,5,42.612,5,43.462
			C5,44.311,5.689,45,6.539,45h36.923C44.311,45,45,44.311,45,43.462C45,42.612,44.311,41.923,43.462,41.923z"/>
	</g>
</g>
</svg>
