<?xml version="1.0" encoding="utf-8"?>
<!-- Generator: Adobe Illustrator 16.0.0, SVG Export Plug-In . SVG Version: 6.00 Build 0)  -->
<!DOCTYPE svg PUBLIC "-//W3C//DTD SVG 1.1//EN" "http://www.w3.org/Graphics/SVG/1.1/DTD/svg11.dtd">
<svg version="1.1" id="Layer_1" xmlns="http://www.w3.org/2000/svg" xmlns:xlink="http://www.w3.org/1999/xlink" x="0px" y="0px"
	 width="50px" height="50px" viewBox="0 0 50 50" enable-background="new 0 0 50 50" xml:space="preserve">
<g>
	<g>
		<path fill="#939393" d="M30.472,39.663l-1.406-0.811c0.043-0.244,0.075-0.493,0.075-0.752s-0.032-0.508-0.078-0.752l1.409-0.812
			c0.658-0.384,0.883-1.229,0.505-1.883c-0.381-0.662-1.224-0.889-1.885-0.508l-1.421,0.82c-0.381-0.324-0.811-0.578-1.289-0.75
			v-1.633c0-0.764-0.62-1.382-1.382-1.382s-1.38,0.618-1.38,1.382v1.631c-0.479,0.171-0.91,0.428-1.291,0.752l-1.417-0.82
			c-0.663-0.381-1.507-0.156-1.888,0.506c-0.381,0.658-0.151,1.504,0.508,1.885l1.403,0.811c-0.045,0.246-0.075,0.495-0.075,0.754
			s0.029,0.508,0.075,0.752l-1.403,0.811c-0.661,0.381-0.889,1.23-0.508,1.89s1.226,0.884,1.885,0.503l1.419-0.815
			c0.381,0.322,0.812,0.576,1.292,0.747v1.636C23.62,44.385,24.238,45,25,45s1.382-0.615,1.382-1.377v-1.636
			c0.479-0.171,0.913-0.425,1.291-0.752l1.419,0.82c0.661,0.381,1.504,0.156,1.885-0.503S31.133,40.049,30.472,39.663z M25,39.482
			c-0.762,0-1.382-0.62-1.382-1.382s0.62-1.379,1.382-1.379s1.38,0.617,1.38,1.379S25.762,39.482,25,39.482z M45,18.75
			c0-4.824-3.926-8.75-8.75-8.75c-0.415,0-0.825,0.029-1.233,0.088C32.683,6.908,28.999,5,25,5s-7.681,1.908-10.016,5.088
			C14.575,10.029,14.165,10,13.75,10C8.926,10,5,13.926,5,18.75s3.926,8.75,8.75,8.75c1.069,0,2.116-0.195,3.102-0.573
			C19.115,28.899,21.992,30,25,30c3.011,0,5.886-1.101,8.147-3.073c0.986,0.378,2.033,0.573,3.103,0.573
			C41.074,27.5,45,23.574,45,18.75z M32.661,23.854C30.827,26.064,28.096,27.5,25,27.5s-5.827-1.436-7.661-3.646
			C16.323,24.57,15.088,25,13.75,25c-3.452,0-6.25-2.798-6.25-6.25s2.798-6.25,6.25-6.25c0.845,0,1.646,0.172,2.378,0.475
			C17.787,9.74,21.117,7.5,25,7.5c3.884,0,7.214,2.24,8.87,5.475c0.734-0.303,1.537-0.475,2.38-0.475c3.452,0,6.25,2.798,6.25,6.25
			S39.702,25,36.25,25C34.912,25,33.679,24.57,32.661,23.854z"/>
	</g>
</g>
<g>
	<g>
		<path fill="#939393" d="M9.501,34c0,1.382,1.118,2.5,2.5,2.5s2.5-1.118,2.5-2.5s-2.5-5-2.5-5S9.501,32.618,9.501,34z M35.501,36
			c0,1.382,1.118,2.5,2.5,2.5s2.5-1.118,2.5-2.5s-2.5-5-2.5-5S35.501,34.618,35.501,36z"/>
	</g>
</g>
</svg>
