<?xml version="1.0" encoding="utf-8"?>
<!-- Generator: Adobe Illustrator 16.0.0, SVG Export Plug-In . SVG Version: 6.00 Build 0)  -->
<!DOCTYPE svg PUBLIC "-//W3C//DTD SVG 1.1//EN" "http://www.w3.org/Graphics/SVG/1.1/DTD/svg11.dtd">
<svg version="1.1" id="Layer_1" xmlns="http://www.w3.org/2000/svg" xmlns:xlink="http://www.w3.org/1999/xlink" x="0px" y="0px"
	 width="50px" height="50px" viewBox="0 0 50 50" enable-background="new 0 0 50 50" xml:space="preserve">
<path fill="#939393" d="M45,19.226c0-3.841-3.125-6.965-6.966-6.965c-0.188,0-0.373,0.008-0.559,0.023
	C35.669,10.03,32.946,8.692,30,8.692c-2.944,0-5.669,1.338-7.476,3.592c-0.186-0.015-0.373-0.022-0.562-0.022
	c-3.838,0-6.963,3.123-6.963,6.964c0,0.402,0.054,0.789,0.117,1.175c-0.042,0.056-0.093,0.106-0.133,0.163
	c-0.409-0.059-0.819-0.088-1.234-0.088c-4.824,0-8.75,3.926-8.75,8.75c0,4.824,3.926,8.75,8.75,8.75
	c1.069,0,2.116-0.195,3.102-0.572c2.263,1.973,5.14,3.072,8.148,3.072c3.011,0,5.886-1.1,8.147-3.072
	c0.986,0.377,2.033,0.572,3.103,0.572c4.824,0,8.75-3.926,8.75-8.75c0-2.007-0.706-3.834-1.849-5.312
	C44.29,22.671,45,21.036,45,19.226z M36.25,35.476c-1.338,0-2.571-0.43-3.589-1.146c-1.834,2.21-4.565,3.646-7.661,3.646
	s-5.827-1.436-7.661-3.646c-1.016,0.716-2.251,1.146-3.589,1.146c-3.452,0-6.25-2.798-6.25-6.25s2.798-6.25,6.25-6.25
	c0.845,0,1.646,0.171,2.378,0.474c0.044-0.083,0.098-0.156,0.142-0.236c0.439-0.802,0.981-1.538,1.615-2.19
	c1.803-1.869,4.31-3.047,7.116-3.047c3.884,0,7.214,2.239,8.87,5.474c0.441-0.181,0.912-0.298,1.396-0.376l0.983-0.098
	c0.964,0,1.865,0.237,2.681,0.625c0.884,0.423,1.643,1.044,2.238,1.812c0.82,1.056,1.331,2.372,1.331,3.813
	C42.5,32.678,39.702,35.476,36.25,35.476z M41.372,22.166c-1.443-1.052-3.203-1.689-5.122-1.689c-0.415,0-0.825,0.029-1.233,0.088
	c-2.334-3.181-6.018-5.088-10.017-5.088c-2.666,0-5.181,0.862-7.261,2.37c0.584-1.785,2.245-3.084,4.224-3.084
	c0.605,0,1.177,0.122,1.699,0.338c1.187-2.31,3.564-3.908,6.338-3.908s5.153,1.599,6.335,3.908c0.525-0.217,1.1-0.338,1.699-0.338
	c2.467,0,4.466,1.999,4.466,4.464C42.5,20.357,42.065,21.377,41.372,22.166z"/>
</svg>
