<?xml version="1.0" encoding="utf-8"?>
<!-- Generator: Adobe Illustrator 16.0.0, SVG Export Plug-In . SVG Version: 6.00 Build 0)  -->
<!DOCTYPE svg PUBLIC "-//W3C//DTD SVG 1.1//EN" "http://www.w3.org/Graphics/SVG/1.1/DTD/svg11.dtd">
<svg version="1.1" id="Layer_1" xmlns="http://www.w3.org/2000/svg" xmlns:xlink="http://www.w3.org/1999/xlink" x="0px" y="0px"
	 width="50px" height="50px" viewBox="0 0 50 50" enable-background="new 0 0 50 50" xml:space="preserve">
<g>
	<g>
		<path fill="#939393" d="M21.25,10c0.69,0,1.25-0.56,1.25-1.25v-2.5C22.5,5.56,21.94,5,21.25,5S20,5.56,20,6.25v2.5
			C20,9.44,20.56,10,21.25,10z M30.972,13.294l1.768-1.768c0.488-0.488,0.488-1.279,0-1.768s-1.279-0.488-1.768,0l-1.768,1.768
			c-0.488,0.488-0.488,1.279,0,1.768S30.483,13.783,30.972,13.294z M6.25,22.5h2.5c0.69,0,1.25-0.56,1.25-1.25S9.44,20,8.75,20h-2.5
			C5.56,20,5,20.56,5,21.25S5.56,22.5,6.25,22.5z M32.5,21.25c0,0.69,0.56,1.25,1.25,1.25h2.5c0.69,0,1.25-0.56,1.25-1.25
			S36.94,20,36.25,20h-2.5C33.06,20,32.5,20.56,32.5,21.25z M11.527,13.294c0.488,0.488,1.279,0.488,1.768,0s0.488-1.279,0-1.768
			l-1.768-1.768c-0.488-0.488-1.279-0.488-1.768,0s-0.488,1.279,0,1.768L11.527,13.294z M36.25,25c-0.415,0-0.825,0.029-1.233,0.088
			c-1.311-1.787-3.057-3.151-5.036-4.023c-0.101-4.736-3.97-8.564-8.73-8.564c-4.824,0-8.75,3.926-8.75,8.75
			c0,1.362,0.338,2.637,0.898,3.784C8.74,25.225,5,29.048,5,33.75c0,4.824,3.926,8.75,8.75,8.75c1.069,0,2.116-0.195,3.102-0.573
			C19.115,43.899,21.992,45,25,45c3.011,0,5.886-1.101,8.147-3.073c0.986,0.378,2.033,0.573,3.103,0.573
			c4.824,0,8.75-3.926,8.75-8.75S41.074,25,36.25,25z M21.25,15c3.11,0,5.669,2.279,6.149,5.254C26.616,20.098,25.817,20,25,20
			c-3.589,0-6.914,1.548-9.248,4.16C15.288,23.288,15,22.308,15,21.25C15,17.798,17.798,15,21.25,15z M36.25,40
			c-1.338,0-2.571-0.43-3.589-1.146C30.827,41.064,28.096,42.5,25,42.5s-5.827-1.436-7.661-3.646C16.323,39.57,15.088,40,13.75,40
			c-3.452,0-6.25-2.798-6.25-6.25s2.798-6.25,6.25-6.25c0.605,0,1.177,0.114,1.729,0.276c0.22,0.062,0.443,0.111,0.649,0.197
			c0.342-0.669,0.771-1.281,1.249-1.855C19.203,23.921,21.919,22.5,25,22.5c0.791,0,1.55,0.114,2.285,0.29
			c0.825,0.195,1.604,0.492,2.331,0.882c1.819,0.967,3.313,2.464,4.254,4.302c0.734-0.303,1.537-0.474,2.38-0.474
			c3.452,0,6.25,2.798,6.25,6.25S39.702,40,36.25,40z"/>
	</g>
</g>
</svg>
