<?xml version="1.0" encoding="utf-8"?>
<!-- Generator: Adobe Illustrator 16.0.0, SVG Export Plug-In . SVG Version: 6.00 Build 0)  -->
<!DOCTYPE svg PUBLIC "-//W3C//DTD SVG 1.1//EN" "http://www.w3.org/Graphics/SVG/1.1/DTD/svg11.dtd">
<svg version="1.1" id="Layer_1" xmlns="http://www.w3.org/2000/svg" xmlns:xlink="http://www.w3.org/1999/xlink" x="0px" y="0px"
	 width="50px" height="50px" viewBox="0 0 50 50" enable-background="new 0 0 50 50" xml:space="preserve">
<g>
	<g>
		<path fill="#939393" d="M36.25,10c-0.415,0-0.825,0.029-1.233,0.088C32.683,6.908,28.999,5,25,5s-7.681,1.908-10.016,5.088
			C14.575,10.029,14.165,10,13.75,10C8.926,10,5,13.926,5,18.75s3.926,8.75,8.75,8.75c1.069,0,2.116-0.195,3.102-0.573
			C19.115,28.899,21.992,30,25,30c3.011,0,5.886-1.101,8.147-3.073c0.986,0.378,2.033,0.573,3.103,0.573
			c4.824,0,8.75-3.926,8.75-8.75S41.074,10,36.25,10z M36.25,25c-1.338,0-2.571-0.43-3.589-1.146C30.827,26.064,28.096,27.5,25,27.5
			s-5.827-1.436-7.661-3.646C16.323,24.57,15.088,25,13.75,25c-3.452,0-6.25-2.798-6.25-6.25s2.798-6.25,6.25-6.25
			c0.845,0,1.646,0.172,2.378,0.475C17.787,9.74,21.117,7.5,25,7.5c3.884,0,7.214,2.24,8.87,5.475
			c0.734-0.303,1.537-0.475,2.38-0.475c3.452,0,6.25,2.798,6.25,6.25S39.702,25,36.25,25z M22.578,42.5c0,1.382,1.118,2.5,2.5,2.5
			s2.5-1.118,2.5-2.5s-2.5-5-2.5-5S22.578,41.118,22.578,42.5z M32.5,40c0,1.382,1.118,2.5,2.5,2.5s2.5-1.118,2.5-2.5S35,35,35,35
			S32.5,38.618,32.5,40z M12.5,35c0,1.382,1.118,2.5,2.5,2.5s2.5-1.118,2.5-2.5S15,30,15,30S12.5,33.618,12.5,35z"/>
	</g>
</g>
</svg>
