<?xml version="1.0" encoding="utf-8"?>
<!-- Generator: Adobe Illustrator 16.0.0, SVG Export Plug-In . SVG Version: 6.00 Build 0)  -->
<!DOCTYPE svg PUBLIC "-//W3C//DTD SVG 1.1//EN" "http://www.w3.org/Graphics/SVG/1.1/DTD/svg11.dtd">
<svg version="1.1" id="Layer_1" xmlns="http://www.w3.org/2000/svg" xmlns:xlink="http://www.w3.org/1999/xlink" x="0px" y="0px"
	 width="50px" height="50px" viewBox="0 0 50 50" enable-background="new 0 0 50 50" xml:space="preserve">
<g>
	<g>
		<g>
			<path fill="#939393" d="M43.462,25.115H6.539C5.689,25.115,5,25.805,5,26.654c0,0.849,0.689,1.537,1.539,1.537h36.923
				c0.849,0,1.538-0.688,1.538-1.537C45,25.805,44.311,25.115,43.462,25.115z M43.462,31.27H6.539C5.689,31.27,5,31.958,5,32.809
				c0,0.85,0.689,1.537,1.539,1.537h36.923c0.849,0,1.538-0.688,1.538-1.537C45,31.958,44.311,31.27,43.462,31.27z M43.462,37.423
				H6.539C5.689,37.423,5,38.111,5,38.962C5,39.811,5.689,40.5,6.539,40.5h36.923c0.849,0,1.538-0.689,1.538-1.538
				C45,38.111,44.311,37.423,43.462,37.423z"/>
		</g>
	</g>
	<path fill="#939393" d="M15.594,18.5c0,1.658,1.341,3,3,3c1.658,0,3-1.342,3-3s-3-6-3-6S15.594,16.842,15.594,18.5z"/>
	<path fill="#939393" d="M27.5,15.5c0,1.658,1.342,3,3,3s3-1.342,3-3s-3-6-3-6S27.5,13.842,27.5,15.5z"/>
</g>
</svg>
