<?xml version="1.0" encoding="utf-8"?>
<!-- Generator: Adobe Illustrator 16.0.0, SVG Export Plug-In . SVG Version: 6.00 Build 0)  -->
<!DOCTYPE svg PUBLIC "-//W3C//DTD SVG 1.1//EN" "http://www.w3.org/Graphics/SVG/1.1/DTD/svg11.dtd">
<svg version="1.1" id="Layer_1" xmlns="http://www.w3.org/2000/svg" xmlns:xlink="http://www.w3.org/1999/xlink" x="0px" y="0px"
	 width="50px" height="50px" viewBox="0 0 50 50" enable-background="new 0 0 50 50" xml:space="preserve">
<g>
	<g>
		<path fill="#939393" d="M30.472,35.913l-1.406-0.811c0.043-0.244,0.075-0.493,0.075-0.752s-0.032-0.508-0.078-0.752l1.409-0.812
			c0.658-0.384,0.883-1.229,0.505-1.883c-0.381-0.662-1.224-0.889-1.885-0.508l-1.421,0.82c-0.381-0.324-0.811-0.578-1.289-0.75
			v-1.633c0-0.764-0.62-1.382-1.382-1.382s-1.38,0.618-1.38,1.382v1.631c-0.479,0.171-0.91,0.428-1.291,0.752l-1.417-0.82
			c-0.663-0.381-1.507-0.156-1.888,0.506c-0.381,0.658-0.151,1.504,0.508,1.885l1.403,0.811c-0.045,0.246-0.075,0.495-0.075,0.754
			s0.029,0.508,0.075,0.752l-1.403,0.811c-0.661,0.381-0.889,1.23-0.508,1.89s1.226,0.884,1.885,0.503l1.419-0.815
			c0.381,0.322,0.812,0.576,1.292,0.747v1.636c0,0.762,0.619,1.377,1.38,1.377s1.382-0.615,1.382-1.377v-1.636
			c0.479-0.171,0.913-0.425,1.291-0.752l1.419,0.82c0.661,0.381,1.504,0.156,1.885-0.503S31.133,36.299,30.472,35.913z M25,35.732
			c-0.762,0-1.382-0.62-1.382-1.382s0.62-1.379,1.382-1.379s1.38,0.617,1.38,1.379S25.762,35.732,25,35.732z M36.25,13.75
			c-0.415,0-0.825,0.029-1.233,0.088C32.683,10.658,28.999,8.75,25,8.75s-7.681,1.908-10.016,5.088
			c-0.409-0.059-0.819-0.088-1.234-0.088C8.926,13.75,5,17.676,5,22.5s3.926,8.75,8.75,8.75c0.923,0,1.823-0.173,2.69-0.456
			c0.083-0.396,0.213-0.784,0.42-1.144c0.308-0.536,0.747-0.962,1.25-1.289c-0.259-0.253-0.542-0.478-0.771-0.758
			c-1.016,0.717-2.251,1.146-3.589,1.146c-3.452,0-6.25-2.798-6.25-6.25s2.798-6.25,6.25-6.25c0.845,0,1.646,0.172,2.378,0.475
			C17.787,13.49,21.117,11.25,25,11.25c3.884,0,7.214,2.24,8.87,5.475c0.734-0.303,1.537-0.475,2.38-0.475
			c3.452,0,6.25,2.798,6.25,6.25s-2.798,6.25-6.25,6.25c-1.338,0-2.571-0.43-3.589-1.146c-0.229,0.279-0.516,0.504-0.773,0.757
			c0.505,0.328,0.947,0.757,1.254,1.294c0.211,0.362,0.34,0.748,0.423,1.139c0.864,0.283,1.763,0.456,2.686,0.456
			c4.824,0,8.75-3.926,8.75-8.75S41.074,13.75,36.25,13.75z"/>
	</g>
</g>
</svg>
