<?xml version="1.0" encoding="utf-8"?>
<!-- Generator: Adobe Illustrator 16.0.0, SVG Export Plug-In . SVG Version: 6.00 Build 0)  -->
<!DOCTYPE svg PUBLIC "-//W3C//DTD SVG 1.1//EN" "http://www.w3.org/Graphics/SVG/1.1/DTD/svg11.dtd">
<svg version="1.1" id="Layer_1" xmlns="http://www.w3.org/2000/svg" xmlns:xlink="http://www.w3.org/1999/xlink" x="0px" y="0px"
	 width="50px" height="50px" viewBox="0 0 50 50" enable-background="new 0 0 50 50" xml:space="preserve">
<g>
	<g>
		<path fill="#939393" d="M20,35l2.5,2.5L20,45l7.5-7.5L25,35l2.5-5L20,35z M45,15.534c0-3.839-3.125-6.963-6.966-6.963
			c-0.188,0-0.373,0.007-0.559,0.021C35.669,6.339,32.946,5,30,5c-2.944,0-5.669,1.339-7.476,3.592
			c-0.186-0.015-0.373-0.021-0.562-0.021c-3.838,0-6.963,3.124-6.963,6.963c0,0.402,0.054,0.791,0.117,1.175
			c-0.042,0.055-0.093,0.106-0.133,0.163c-0.409-0.059-0.819-0.088-1.234-0.088c-4.824,0-8.75,3.926-8.75,8.75
			c0,4.824,3.926,8.75,8.75,8.75c1.069,0,2.116-0.195,3.102-0.573c0.086,0.075,0.189,0.127,0.277,0.2l2.212-1.475
			c-0.737-0.522-1.426-1.104-2.002-1.797c-1.016,0.715-2.251,1.145-3.589,1.145c-3.452,0-6.25-2.797-6.25-6.25
			c0-3.451,2.798-6.25,6.25-6.25c0.845,0,1.646,0.173,2.378,0.476c0.044-0.085,0.098-0.156,0.142-0.238
			c0.439-0.803,0.981-1.537,1.614-2.191c1.804-1.867,4.31-3.047,7.116-3.047c3.884,0,7.214,2.24,8.87,5.475
			c0.441-0.182,0.912-0.299,1.396-0.377l0.983-0.098c0.964,0,1.865,0.238,2.681,0.625c0.884,0.423,1.643,1.045,2.238,1.813
			c0.82,1.057,1.331,2.37,1.331,3.812c0,3.453-2.798,6.25-6.25,6.25c-1.338,0-2.571-0.43-3.589-1.145
			c-1.094,1.318-2.534,2.31-4.152,2.935l-0.467,0.933l1.426,1.426c1.333-0.52,2.58-1.265,3.68-2.222
			c0.986,0.378,2.033,0.572,3.103,0.572c4.824,0,8.75-3.925,8.75-8.75c0-2.005-0.706-3.834-1.849-5.312
			C44.29,18.981,45,17.345,45,15.534z M41.372,18.473c-1.443-1.05-3.203-1.689-5.122-1.689c-0.415,0-0.825,0.029-1.233,0.088
			c-2.334-3.179-6.018-5.088-10.017-5.088c-2.666,0-5.181,0.864-7.261,2.372c0.584-1.786,2.245-3.084,4.224-3.084
			c0.605,0,1.177,0.122,1.699,0.339C24.849,9.098,27.227,7.5,30,7.5s5.153,1.598,6.335,3.91c0.525-0.217,1.1-0.339,1.699-0.339
			c2.467,0,4.466,1.999,4.466,4.463C42.5,16.667,42.065,17.687,41.372,18.473z"/>
	</g>
</g>
</svg>
