<?xml version="1.0" encoding="utf-8"?>
<!-- Generator: Adobe Illustrator 16.0.0, SVG Export Plug-In . SVG Version: 6.00 Build 0)  -->
<!DOCTYPE svg PUBLIC "-//W3C//DTD SVG 1.1//EN" "http://www.w3.org/Graphics/SVG/1.1/DTD/svg11.dtd">
<svg version="1.1" id="Layer_1" xmlns="http://www.w3.org/2000/svg" xmlns:xlink="http://www.w3.org/1999/xlink" x="0px" y="0px"
	 width="50px" height="50px" viewBox="0 0 50 50" enable-background="new 0 0 50 50" xml:space="preserve">
<g>
	<path fill="#939393" d="M23.907,41.771c-1.304,1.351-3.056,2.111-4.933,2.146c-1.479-0.001-2.869-0.521-3.93-1.545
		c-1.06-1.022-1.657-2.396-1.683-3.869c-0.042-2.372,1.853-4.338,4.225-4.382c0.864,0.001,1.731,0.316,2.374,0.936
		c0.643,0.618,1.003,1.45,1.02,2.342c0.013,0.687-0.242,1.334-0.72,1.826c-0.474,0.49-1.108,0.768-1.792,0.777
		c-1.091-0.006-1.956-0.837-1.974-1.904c-0.008-0.387,0.137-0.752,0.404-1.029c0.267-0.275,0.627-0.435,1.014-0.439
		c0.604,0.021,1.055,0.452,1.065,1.028l1.08-0.021c-0.021-1.16-0.975-2.091-2.127-2.091c-0.013,0-0.025,0-0.038,0.001
		c-0.675,0.012-1.305,0.285-1.772,0.771c-0.467,0.486-0.72,1.123-0.708,1.799c0.029,1.646,1.379,2.967,3.021,2.967
		c0.018,0,0.035,0,0.053-0.001c0.971-0.015,1.876-0.408,2.552-1.106c0.677-0.699,1.04-1.623,1.021-2.598
		c-0.021-1.179-0.5-2.279-1.35-3.1c-0.85-0.821-1.969-1.266-3.145-1.237c-2.968,0.054-5.339,2.513-5.287,5.481
		c0.031,1.761,0.746,3.402,2.014,4.627c1.241,1.195,2.86,1.85,4.575,1.85c0.042,0,0.083-0.001,0.125-0.002
		c4.47-0.078,8.043-3.779,7.964-8.252l-1.08,0.02C25.91,38.643,25.211,40.421,23.907,41.771z"/>
</g>
<path fill="#939393" d="M36.25,12.5c-0.415,0-0.825,0.029-1.233,0.088C32.683,9.408,28.999,7.5,25,7.5s-7.681,1.908-10.016,5.088
	c-0.409-0.059-0.819-0.088-1.234-0.088C8.926,12.5,5,16.426,5,21.25S8.926,30,13.75,30c1.069,0,2.116-0.195,3.102-0.573
	C19.115,31.399,21.992,32.5,25,32.5c3.011,0,5.886-1.101,8.147-3.073C34.134,29.805,35.181,30,36.25,30
	c4.824,0,8.75-3.926,8.75-8.75S41.074,12.5,36.25,12.5z M36.25,27.5c-1.338,0-2.571-0.43-3.589-1.146C30.827,28.564,28.096,30,25,30
	s-5.827-1.436-7.661-3.646C16.323,27.07,15.088,27.5,13.75,27.5c-3.452,0-6.25-2.798-6.25-6.25S10.298,15,13.75,15
	c0.845,0,1.646,0.172,2.378,0.475C17.787,12.24,21.117,10,25,10c3.884,0,7.214,2.24,8.87,5.475C34.604,15.172,35.407,15,36.25,15
	c3.452,0,6.25,2.798,6.25,6.25S39.702,27.5,36.25,27.5z"/>
<g>
	<path fill="#939393" d="M39.907,39.771c-1.304,1.351-3.056,2.111-4.933,2.146c-1.479-0.001-2.869-0.521-3.93-1.545
		c-1.061-1.022-1.656-2.396-1.684-3.869c-0.041-2.372,1.854-4.338,4.226-4.382c0.864,0.001,1.731,0.316,2.374,0.936
		c0.643,0.618,1.003,1.45,1.02,2.342c0.013,0.687-0.242,1.334-0.72,1.826c-0.474,0.49-1.108,0.768-1.792,0.777
		c-1.091-0.006-1.955-0.837-1.974-1.904c-0.009-0.387,0.137-0.752,0.403-1.029c0.268-0.275,0.627-0.435,1.015-0.439
		c0.604,0.021,1.055,0.452,1.065,1.028l1.08-0.021c-0.021-1.16-0.975-2.091-2.127-2.091c-0.014,0-0.025,0-0.039,0.001
		c-0.675,0.012-1.305,0.285-1.771,0.771s-0.721,1.123-0.708,1.799c0.028,1.646,1.379,2.967,3.021,2.967c0.019,0,0.035,0,0.053-0.001
		c0.972-0.015,1.877-0.408,2.553-1.106c0.677-0.699,1.04-1.623,1.021-2.598c-0.021-1.179-0.5-2.279-1.35-3.1
		c-0.85-0.821-1.969-1.266-3.145-1.237c-2.969,0.054-5.34,2.513-5.287,5.481c0.031,1.761,0.746,3.402,2.014,4.627
		c1.241,1.195,2.859,1.85,4.575,1.85c0.042,0,0.083-0.001,0.125-0.002c4.47-0.078,8.043-3.779,7.964-8.252l-1.08,0.02
		C41.91,36.643,41.211,38.421,39.907,39.771z"/>
</g>
</svg>
