<svg xmlns="http://www.w3.org/2000/svg" viewBox="0 0 432.88 159.31"><defs><style>.cls-1{fill:#dae7ef;}.cls-2{fill:#407cad;}.cls-3{fill:#e8ac30;}.cls-4{fill:#fff;}.cls-5{fill:#2b456e;}.cls-6{fill:#808082;}</style></defs><title>logo</title><g id="Layer_3" data-name="Layer 3"><path class="cls-1" d="M200.15,57a154.79,154.79,0,0,0,30.17,3.38q10.36,0,17-2.33a17.82,17.82,0,0,1,3.15-1q1.05,0,1.05,1.51,0,5-3.87,10.62a24.31,24.31,0,0,1-10.1,8.51q-6.23,2.86-15.76,2.86A100.53,100.53,0,0,1,205.54,79l-1.71,20.64a62.54,62.54,0,0,1,10.63-3.79,39,39,0,0,1,9.35-1.24,35.07,35.07,0,0,1,24.68,9.48q10.26,9.48,10.26,25.3,0,16.27-10.54,26.54t-27.8,10.27q-13.73,0-22-7.2t-8.29-17.41q0-6.68,3.64-10.66a11.93,11.93,0,0,1,9.19-4,11.08,11.08,0,0,1,8.07,3.12,10.24,10.24,0,0,1,3.19,7.62,9.52,9.52,0,0,1-1.65,5.59q-1.65,2.36-6.38,4.69-3.45,1.73-3.45,3.3,0,2.55,3.3,4.58a21.89,21.89,0,0,0,11.48,2.93,15.42,15.42,0,0,0,13.13-6.71q4.88-6.71,4.88-23,0-13.71-4.69-20t-12-6.3a23.52,23.52,0,0,0-7.28,1.28,46.8,46.8,0,0,0-8.41,3.83q-.08,5.85-1.46,8a4.41,4.41,0,0,1-3.94,2.18,4.87,4.87,0,0,1-3.49-1.24,4.1,4.1,0,0,1-1.31-3.11q0-2.93,4-8.71Z" transform="translate(-45.62 -31.84)"/><path class="cls-1" d="M299.18,57a28.68,28.68,0,0,1,17.41,5.74q7.8,5.74,13.06,18.76t5.25,30.28q0,17.41-5.18,30.17t-13.32,18.54a30.26,30.26,0,0,1-17.9,5.78q-14.63,0-24.09-12.83-11.86-15.91-11.86-41.2,0-17.86,5.14-30.69t13.21-18.69A30.34,30.34,0,0,1,299.18,57Zm12.91,57.56q0-32.87-4.34-43.15-3.14-7.5-8.83-7.5-6.81,0-10.07,10.73T285.6,116q0,25.67,4.64,36.32,2.92,6.6,8.31,6.6a8.71,8.71,0,0,0,6.4-3q2.88-3,4.68-12.76A156.11,156.11,0,0,0,312.09,114.54Z" transform="translate(-45.62 -31.84)"/><path class="cls-2" d="M205,33.87l1.28-1.21h.82l-1.32,6.6H205a12.08,12.08,0,0,0-.35-3.2,5,5,0,0,0-1.49-2.5,3.76,3.76,0,0,0-2.52-.87,5.28,5.28,0,0,0-3.52,1.47,10.65,10.65,0,0,0-2.76,4.68,17.08,17.08,0,0,0-.91,5.39,5.74,5.74,0,0,0,1.32,4.06,4.59,4.59,0,0,0,3.54,1.42,5.63,5.63,0,0,0,3.5-1.2,8.34,8.34,0,0,0,2.55-3.66l.78.31A9.35,9.35,0,0,1,202.58,49a7.2,7.2,0,0,1-4.82,1.7,7,7,0,0,1-5.2-2.08,7.16,7.16,0,0,1-2.06-5.25,12.29,12.29,0,0,1,1.49-5.8,11.1,11.1,0,0,1,3.72-4.27,8.59,8.59,0,0,1,4.76-1.45,5.68,5.68,0,0,1,2.27.45A7.92,7.92,0,0,1,205,33.87Z" transform="translate(-45.62 -31.84)"/><path class="cls-2" d="M210.59,45.89a9.3,9.3,0,0,0-.06,1,3,3,0,0,0,.65,2.06,2.29,2.29,0,0,0,1.78.71,3.63,3.63,0,0,0,1.73-.46,9.23,9.23,0,0,0,2.14-1.84l.56.51q-2.31,2.84-4.88,2.84a3.87,3.87,0,0,1-3-1.32A4.79,4.79,0,0,1,208.33,46a7,7,0,0,1,1-3.55,8.19,8.19,0,0,1,2.7-2.82,5.93,5.93,0,0,1,3.16-1.08,2.94,2.94,0,0,1,2.06.73,2.31,2.31,0,0,1,.8,1.78,3,3,0,0,1-.63,1.78,5.34,5.34,0,0,1-2,1.58A24,24,0,0,1,210.59,45.89Zm.17-.79A13.28,13.28,0,0,0,214.08,44a4,4,0,0,0,1.5-1.37,3.23,3.23,0,0,0,.51-1.72,1.6,1.6,0,0,0-.37-1.13,1.32,1.32,0,0,0-1-.4,3,3,0,0,0-2.26,1.34A10,10,0,0,0,210.76,45.1Z" transform="translate(-45.62 -31.84)"/><path class="cls-2" d="M223.21,32.27l4.51-.22-4.16,15.65a4.78,4.78,0,0,0-.23,1.16.85.85,0,0,0,.12.51.39.39,0,0,0,.33.16q1.06,0,2.83-3.16l.68.37q-2,4-4.14,4a1.57,1.57,0,0,1-1.21-.5,2,2,0,0,1-.46-1.39,8.3,8.3,0,0,1,.33-1.94l3.35-12.62a1.73,1.73,0,0,0,.06-.38.51.51,0,0,0-.27-.46,2.28,2.28,0,0,0-1.12-.21H223Z" transform="translate(-45.62 -31.84)"/><path class="cls-2" d="M232.51,45.89a9.3,9.3,0,0,0-.06,1,3,3,0,0,0,.65,2.06,2.29,2.29,0,0,0,1.78.71,3.63,3.63,0,0,0,1.73-.46,9.23,9.23,0,0,0,2.14-1.84l.56.51q-2.31,2.84-4.88,2.84a3.87,3.87,0,0,1-3-1.32A4.79,4.79,0,0,1,230.25,46a7,7,0,0,1,1-3.55,8.19,8.19,0,0,1,2.7-2.82,5.93,5.93,0,0,1,3.16-1.08,2.94,2.94,0,0,1,2.06.73,2.31,2.31,0,0,1,.8,1.78,3,3,0,0,1-.63,1.78,5.34,5.34,0,0,1-2,1.58A24,24,0,0,1,232.51,45.89Zm.17-.79A13.28,13.28,0,0,0,236,44a4,4,0,0,0,1.5-1.37,3.23,3.23,0,0,0,.51-1.72,1.6,1.6,0,0,0-.37-1.13,1.32,1.32,0,0,0-1-.4,3,3,0,0,0-2.26,1.34A10,10,0,0,0,232.68,45.1Z" transform="translate(-45.62 -31.84)"/><path class="cls-2" d="M249.39,32l-2.28,8.5a5.14,5.14,0,0,1,3.78-2,3.26,3.26,0,0,1,2.53,1.14,4.27,4.27,0,0,1,1,3,8.61,8.61,0,0,1-1,4,7.66,7.66,0,0,1-2.6,3,6,6,0,0,1-3.33,1,3.74,3.74,0,0,1-2.77-1,3.7,3.7,0,0,1-1-2.73,7.52,7.52,0,0,1,.27-2l2.85-10.79a.86.86,0,0,0,0-.25.6.6,0,0,0-.37-.53,3.6,3.6,0,0,0-1.47-.2l.22-.92Zm.76,7.68a2.65,2.65,0,0,0-1.74.74,7.76,7.76,0,0,0-1.92,2.94,9.89,9.89,0,0,0-.84,3.81,3.12,3.12,0,0,0,.55,2,1.89,1.89,0,0,0,1.54.66,3,3,0,0,0,1.92-.78,6.91,6.91,0,0,0,1.73-2.74,10.22,10.22,0,0,0,.79-3.83,3.4,3.4,0,0,0-.55-2.12A1.78,1.78,0,0,0,250.15,39.73Z" transform="translate(-45.62 -31.84)"/><path class="cls-2" d="M260.26,50.33l-2,.16,2.07-7.84a8.15,8.15,0,0,0,.34-1.72,1.07,1.07,0,0,0-.37-.88,1.94,1.94,0,0,0-1.21-.3h-.54l.26-.84,4-.22-1.15,4.93a22.52,22.52,0,0,1,1.7-3.39A4.16,4.16,0,0,1,264.67,39a2.79,2.79,0,0,1,1.39-.4,1.93,1.93,0,0,1,1.37.51,1.81,1.81,0,0,1,.17,2.41,1.22,1.22,0,0,1-.95.43,1.08,1.08,0,0,1-1.09-1.09,1.51,1.51,0,0,1,.12-.5,1,1,0,0,0,.07-.32.35.35,0,0,0-.09-.26.37.37,0,0,0-.27-.09,1.26,1.26,0,0,0-.76.35,7.06,7.06,0,0,0-1.59,2.45,44.41,44.41,0,0,0-2,5.16Z" transform="translate(-45.62 -31.84)"/><path class="cls-2" d="M278,48.42a5.27,5.27,0,0,1-1.7,1.7,3.7,3.7,0,0,1-1.9.57,4.08,4.08,0,0,1-3.08-1.32A4.69,4.69,0,0,1,270.07,46a7.42,7.42,0,0,1,1-3.63,7.81,7.81,0,0,1,2.52-2.8,5.42,5.42,0,0,1,3-1,3.3,3.3,0,0,1,2.07.69,3.39,3.39,0,0,1,1.21,1.82l.71-2.16,1.92-.22L279.8,48a2.7,2.7,0,0,0-.11.76.85.85,0,0,0,.14.52.41.41,0,0,0,.34.18A1.25,1.25,0,0,0,281,49a10.57,10.57,0,0,0,1.7-2.59l.71.32q-1.92,4-3.92,4a1.36,1.36,0,0,1-1.08-.49,1.88,1.88,0,0,1-.43-1.28Zm-1.28-8.9a3.15,3.15,0,0,0-1.95.78A6.31,6.31,0,0,0,273,42.87a9.62,9.62,0,0,0-.75,3.72,3.39,3.39,0,0,0,.62,2.24,2.21,2.21,0,0,0,1.77.73,3,3,0,0,0,1.91-.72A7.28,7.28,0,0,0,278.35,46a9.93,9.93,0,0,0,.86-3.74,2.77,2.77,0,0,0-.74-2A2.32,2.32,0,0,0,276.72,39.52Z" transform="translate(-45.62 -31.84)"/><path class="cls-2" d="M290,35h2l-1.07,3.94h2.21l-.31,1h-2.15l-2,7.52a4.42,4.42,0,0,0-.17,1.12,1.07,1.07,0,0,0,.19.69.59.59,0,0,0,.48.23q1.23,0,3-3.16l.67.38q-2.08,4-4.44,4a1.79,1.79,0,0,1-1.38-.54,2,2,0,0,1-.5-1.41,6.13,6.13,0,0,1,.22-1.56l1.92-7.24h-2.06l.3-1h2Z" transform="translate(-45.62 -31.84)"/><path class="cls-2" d="M301,38.69l-2.46,9.52a2.38,2.38,0,0,0-.11.65.68.68,0,0,0,.14.47.49.49,0,0,0,.38.16,1.73,1.73,0,0,0,1.07-.56,10.74,10.74,0,0,0,2-2.64l.67.38a8.41,8.41,0,0,1-2.17,3,3.74,3.74,0,0,1-2.27,1,1.49,1.49,0,0,1-1.15-.52,1.94,1.94,0,0,1-.47-1.36,6.86,6.86,0,0,1,.25-1.76l1.65-6.24a1,1,0,0,0,0-.31.58.58,0,0,0-.28-.51,2.12,2.12,0,0,0-1.14-.24h-.77l.24-.84Zm0-6.36a1.24,1.24,0,0,1,.94.4,1.37,1.37,0,0,1,.38,1,1.31,1.31,0,0,1-.38,1,1.25,1.25,0,0,1-.93.38,1.33,1.33,0,0,1-1-.39,1.3,1.3,0,0,1-.4-1,1.33,1.33,0,0,1,.39-1A1.31,1.31,0,0,1,301,32.33Z" transform="translate(-45.62 -31.84)"/><path class="cls-2" d="M310.72,38.69l-1,4q2.7-4,5-4a2,2,0,0,1,1.48.61,2.33,2.33,0,0,1,.58,1.67,6.72,6.72,0,0,1-.41,2.11l-1.07,4.13-.26,1a3,3,0,0,0-.07.58.69.69,0,0,0,.15.45.45.45,0,0,0,.36.18,2.36,2.36,0,0,0,1.4-.81,7,7,0,0,0,1.53-2.43l.79.26a7.72,7.72,0,0,1-2,3,3.67,3.67,0,0,1-2.3,1A1.61,1.61,0,0,1,313.6,50a2,2,0,0,1-.5-1.38,6,6,0,0,1,.23-1.55l1.17-4.43a4.49,4.49,0,0,0,.24-1.43,1.51,1.51,0,0,0-.26-.93.75.75,0,0,0-.61-.34q-.79,0-2.56,1.79a11.45,11.45,0,0,0-2.67,4.93l-.83,3.65-2,.1,2.52-9.5a1.62,1.62,0,0,0,.06-.43.66.66,0,0,0-.23-.55,1.49,1.49,0,0,0-.89-.23H306.2l.23-.82Z" transform="translate(-45.62 -31.84)"/><path class="cls-2" d="M330.6,38.91a4.29,4.29,0,0,1,2.7-1.21,1.67,1.67,0,0,1,1.11.34,1.07,1.07,0,0,1,.41.85,1,1,0,0,1-.27.73.88.88,0,0,1-.67.29,1,1,0,0,1-.83-.55,1.76,1.76,0,0,0-.35-.45.78.78,0,0,0-.39-.09,1.44,1.44,0,0,0-1,.49,3.28,3.28,0,0,1,1.66,2.8,3.85,3.85,0,0,1-1.39,3A5.1,5.1,0,0,1,328,46.31a11.09,11.09,0,0,1-1.27-.1,11.22,11.22,0,0,0-1.15-.09,2.8,2.8,0,0,0-1.57.37,1,1,0,0,0-.54.85.72.72,0,0,0,.18.48,1.09,1.09,0,0,0,.6.31,14.6,14.6,0,0,0,1.61.12,18.85,18.85,0,0,1,3.94.46,3.11,3.11,0,0,1,1.59,1,2.32,2.32,0,0,1,.5,1.48,3.17,3.17,0,0,1-.7,1.92A5,5,0,0,1,329,54.62a9.8,9.8,0,0,1-3.56.6,9.62,9.62,0,0,1-3-.39,3.63,3.63,0,0,1-1.72-1,2,2,0,0,1-.53-1.26A1.85,1.85,0,0,1,321,51.1a8.18,8.18,0,0,1,2.54-1.25,2.89,2.89,0,0,1-1.15-.78A1.65,1.65,0,0,1,322,48a2.2,2.2,0,0,1,.84-1.68,4,4,0,0,1,2.31-.87,3.07,3.07,0,0,1-1.68-2.7,3.5,3.5,0,0,1,.65-2A4.8,4.8,0,0,1,326,39.18a5.94,5.94,0,0,1,2.66-.63,5.82,5.82,0,0,1,1,.09A4.89,4.89,0,0,1,330.6,38.91Zm-4.53,11.21a5.42,5.42,0,0,0-3.08.65,2,2,0,0,0-.9,1.64,1.72,1.72,0,0,0,.82,1.46,4.89,4.89,0,0,0,2.72.57,6.06,6.06,0,0,0,3.63-.89,2,2,0,0,0,.93-1.61,1.52,1.52,0,0,0-.9-1.3A6.84,6.84,0,0,0,326.07,50.11Zm2.67-10.83a2.86,2.86,0,0,0-2.22,1.1,4,4,0,0,0-1,2.71,2.58,2.58,0,0,0,.62,1.82,2.09,2.09,0,0,0,1.61.67,2.72,2.72,0,0,0,2.12-1.09,4.24,4.24,0,0,0,.92-2.83,2.48,2.48,0,0,0-.59-1.74A1.94,1.94,0,0,0,328.75,39.29Z" transform="translate(-45.62 -31.84)"/><path class="cls-2" d="M230.71,172.74h7l-.17.91h-1a2.37,2.37,0,0,0-1.14.19.57.57,0,0,0-.31.49.81.81,0,0,0,.09.34l2.9,7,4.63-5.84a2.53,2.53,0,0,0,.67-1.32q0-.79-2.06-.9l.29-.91h5.55l-.23.91a3.62,3.62,0,0,0-2.34,1.48l-6,7.51-1.66,6.3a.84.84,0,0,0,0,.21.55.55,0,0,0,.27.49,1.94,1.94,0,0,0,1,.23h1.34l-.23.91h-8.13l.21-.91h1.26q1.32,0,1.54-.77L236,183l-3.57-8.62a1.3,1.3,0,0,0-1.34-.72h-.62Z" transform="translate(-45.62 -31.84)"/><path class="cls-2" d="M248.77,186.35a9.3,9.3,0,0,0-.06,1,3,3,0,0,0,.65,2.06,2.29,2.29,0,0,0,1.78.71,3.63,3.63,0,0,0,1.73-.46,9.24,9.24,0,0,0,2.14-1.84l.56.51q-2.31,2.84-4.88,2.84a3.87,3.87,0,0,1-3-1.32,4.79,4.79,0,0,1-1.21-3.37,7,7,0,0,1,1-3.55,8.19,8.19,0,0,1,2.7-2.82,5.94,5.94,0,0,1,3.15-1.08,2.94,2.94,0,0,1,2.06.73,2.31,2.31,0,0,1,.8,1.78,3.05,3.05,0,0,1-.63,1.78,5.33,5.33,0,0,1-2,1.58A23.86,23.86,0,0,1,248.77,186.35Zm.17-.79a13.23,13.23,0,0,0,3.32-1.06,4,4,0,0,0,1.5-1.37,3.23,3.23,0,0,0,.51-1.72,1.6,1.6,0,0,0-.37-1.13,1.32,1.32,0,0,0-1-.4,3,3,0,0,0-2.26,1.34A10,10,0,0,0,248.95,185.56Z" transform="translate(-45.62 -31.84)"/><path class="cls-2" d="M266.77,188.88a5.27,5.27,0,0,1-1.7,1.7,3.7,3.7,0,0,1-1.9.57,4.08,4.08,0,0,1-3.08-1.33,4.69,4.69,0,0,1-1.26-3.36,7.43,7.43,0,0,1,1-3.63,7.83,7.83,0,0,1,2.52-2.8,5.42,5.42,0,0,1,3-1,3.3,3.3,0,0,1,2.07.69,3.39,3.39,0,0,1,1.21,1.83l.71-2.16,1.92-.22-2.67,9.3a2.73,2.73,0,0,0-.11.76.85.85,0,0,0,.14.53.41.41,0,0,0,.34.18,1.25,1.25,0,0,0,.83-.5,10.57,10.57,0,0,0,1.7-2.59l.71.32q-1.92,4-3.92,4a1.36,1.36,0,0,1-1.08-.5,1.88,1.88,0,0,1-.43-1.28Zm-1.28-8.9a3.15,3.15,0,0,0-1.95.78,6.31,6.31,0,0,0-1.73,2.58,9.62,9.62,0,0,0-.75,3.72,3.38,3.38,0,0,0,.62,2.24,2.2,2.2,0,0,0,1.77.73,3,3,0,0,0,1.91-.72,7.26,7.26,0,0,0,1.75-2.83,9.93,9.93,0,0,0,.86-3.74,2.77,2.77,0,0,0-.74-2A2.32,2.32,0,0,0,265.49,180Z" transform="translate(-45.62 -31.84)"/><path class="cls-2" d="M277,190.8l-2,.16,2.07-7.84a8.12,8.12,0,0,0,.34-1.72,1.07,1.07,0,0,0-.37-.88,2,2,0,0,0-1.21-.3h-.54l.26-.84,4-.22-1.15,4.93a22.62,22.62,0,0,1,1.7-3.39,4.15,4.15,0,0,1,1.31-1.27,2.79,2.79,0,0,1,1.39-.4,1.93,1.93,0,0,1,1.37.51,1.81,1.81,0,0,1,.17,2.41,1.22,1.22,0,0,1-.95.43,1.08,1.08,0,0,1-1.09-1.09,1.51,1.51,0,0,1,.12-.5,1,1,0,0,0,.07-.32.35.35,0,0,0-.09-.26.37.37,0,0,0-.27-.09,1.26,1.26,0,0,0-.76.35,7.06,7.06,0,0,0-1.59,2.45,44.63,44.63,0,0,0-2,5.16Z" transform="translate(-45.62 -31.84)"/><path class="cls-2" d="M292.66,179a4.39,4.39,0,0,1,2.69.71,2.13,2.13,0,0,1,.94,1.76,1.58,1.58,0,0,1-.37,1.09,1.17,1.17,0,0,1-.91.42,1.15,1.15,0,0,1-.84-.34,1.13,1.13,0,0,1-.34-.83,1.27,1.27,0,0,1,.26-.7.85.85,0,0,0,.21-.44.72.72,0,0,0-.41-.58,2.31,2.31,0,0,0-1.23-.26,3,3,0,0,0-2,.67,2.06,2.06,0,0,0-.76,1.61,1.32,1.32,0,0,0,.44,1,8,8,0,0,0,2.33,1,5,5,0,0,1,2.28,1.25,2.69,2.69,0,0,1,.62,1.79,3.57,3.57,0,0,1-1.37,2.78,5.25,5.25,0,0,1-3.56,1.18,4.61,4.61,0,0,1-2.93-.82,2.52,2.52,0,0,1-1-2,1.73,1.73,0,0,1,.41-1.2,1.28,1.28,0,0,1,1-.46,1.18,1.18,0,0,1,.87.34,1.15,1.15,0,0,1,.34.84,1,1,0,0,1-.09.44,1.84,1.84,0,0,1-.4.49.75.75,0,0,0-.27.5q0,.41.56.77a3,3,0,0,0,1.6.35,3.28,3.28,0,0,0,2.19-.71,2.16,2.16,0,0,0,.85-1.7,1.57,1.57,0,0,0-.45-1.16,5.56,5.56,0,0,0-2-.94,5.79,5.79,0,0,1-2.42-1.23,2.3,2.3,0,0,1-.6-1.62,3.67,3.67,0,0,1,1.29-2.78A4.47,4.47,0,0,1,292.66,179Z" transform="translate(-45.62 -31.84)"/></g><g id="Layer_1" data-name="Layer 1"><path class="cls-3" d="M69.4,106.26a61.49,61.49,0,0,1,6.89-.18c0-.87,0-1.67-.06-2.38a28.13,28.13,0,0,1-6.81,2.51v.05" transform="translate(-45.62 -31.84)"/><path class="cls-3" d="M69.43,105.34s0,0,0,.07a69.54,69.54,0,0,1,6.77-2.26c0-.13,0-.26,0-.38a16.26,16.26,0,0,0-.19-1.86,32.13,32.13,0,0,1-6.57,4.41h0" transform="translate(-45.62 -31.84)"/><path class="cls-3" d="M69.06,107.66a15.57,15.57,0,0,0-.83,4.67c0,1.07,1.18,9.26,1.51,11.53,2.2-.17,4.45-.29,6.74-.36,0-1.6,0-8.41-.12-14.18-1.81.07-5-.89-7.29-1.66" transform="translate(-45.62 -31.84)"/><path class="cls-3" d="M72.45,92.36v0c-1.59.31-3.46.64-5.37.91a3.71,3.71,0,0,1,.42,1c1.67-.7,3.38-1.38,5-1.92" transform="translate(-45.62 -31.84)"/><path class="cls-3" d="M60.84,98.3c1.27,1.4,2.81,3.21,4,4.9l0,0a39.07,39.07,0,0,1-2.35-5.24,15.37,15.37,0,0,1-1.72.36" transform="translate(-45.62 -31.84)"/><path class="cls-3" d="M66.11,102.78h0c0-2,.17-4.31.36-6.17-.9.36-1.78.68-2.62.95.76,1.58,1.61,3.48,2.25,5.22" transform="translate(-45.62 -31.84)"/><path class="cls-3" d="M67.75,96.08a36.22,36.22,0,0,1-.41,6.81h0a68.71,68.71,0,0,1,3.26-8.09c-.93.43-1.89.87-2.86,1.28" transform="translate(-45.62 -31.84)"/><path class="cls-3" d="M69.21,106.94h0a66.88,66.88,0,0,1,7.14,1.89c0-.72,0-1.42,0-2.08a34.31,34.31,0,0,1-7.1.18" transform="translate(-45.62 -31.84)"/><path class="cls-3" d="M81.91,61.49a36.29,36.29,0,0,0-23.75,63.72c3.27-.53,6.74-.95,10.34-1.25-.29-2.1-1.17-8.4-1.6-10.83a10,10,0,0,0-2.31-4.77c-2.37,1.63-5.87,3.82-7.33,3.58a77.59,77.59,0,0,1,6.92-4.22h0c-2.72.94-7.08,2.26-8.49,1.6a75,75,0,0,1,8.09-2.23l0,0c-2.86.06-6.82-.06-7.88-1,0,0,4.29-.09,7.62.21v0c-3.24-.72-7.66-2-8.6-3.47a83.74,83.74,0,0,1,8.65,2.41v0c-3.11-1.8-7.56-4.71-8-6.82a78.7,78.7,0,0,1,8.36,5.66,32.86,32.86,0,0,1-4.51-5.61,2.88,2.88,0,0,1-.55-.1l.39-.19a4.49,4.49,0,0,1-.67-2.23s.68.7,1.65,1.76l2-.94a4.86,4.86,0,0,1-.1-2.62s.46.86,1.11,2.16c1.07-.49,2.27-1,3.52-1.56.07-.61.14-1.07.17-1.34-4.25.59-8.61.84-10.24-.23a137.46,137.46,0,0,1,15.22-2l0-.07c-5.21-.64-12.33-1.86-14-3.9,0,0,7.81.93,13.76,2.35,0,0,0,0,0-.06-5.69-2.13-13.4-5.51-14.71-8.5a153.48,153.48,0,0,1,15,6.59l0,0C66.76,83.39,59.44,77,59.2,73A144,144,0,0,1,72.94,85.49c-3.8-5.27-8.39-12.56-7.64-16.16a148.75,148.75,0,0,1,9.61,15l0,0C72.79,78.23,70.49,70.16,72.17,67a149.8,149.8,0,0,1,5.07,16.92h0a148.15,148.15,0,0,1,4-17.47c1.94,3.17,0,11.75-1.76,18h0C82.93,77,89.54,67.49,89.54,67.49c.93,4-4.43,12.6-8.32,18.16A140.57,140.57,0,0,1,94.84,72.48c-.14,4-7.52,10.83-12.57,15l0,.06a146.54,146.54,0,0,1,15.62-7c-1.36,3.12-9.61,6.65-15.31,8.76v0s0,.08,0,.13A139.41,139.41,0,0,1,97.13,87c-1.76,2.15-9.54,3.39-14.75,4l0,.1a132.31,132.31,0,0,1,15.48,2c-2.43,1.6-10.92.24-16-.77h0a135.73,135.73,0,0,1,14,6.05c-2.7.84-10.11-2.56-14.79-4.94a28.32,28.32,0,0,0-2.67,7.82c-.3,2.17-.2,19.58-.18,22.27,1.18,0,2.38,0,3.58,0a149.29,149.29,0,0,1,23.83,1.84A36.29,36.29,0,0,0,81.91,61.49" transform="translate(-45.62 -31.84)"/><path class="cls-3" d="M73.19,93.56l-1.53.75c-.12,2.46-1.88,6.38-3.26,9.11a73.4,73.4,0,0,1,6-7.73,19.79,19.79,0,0,0-1.17-2.13" transform="translate(-45.62 -31.84)"/><path class="cls-3" d="M74.63,96.28c-.61,2.32-3.47,5.78-5.54,8.06l0,0a72.3,72.3,0,0,1,6.74-4.3,19.45,19.45,0,0,0-1.21-3.8" transform="translate(-45.62 -31.84)"/><path class="cls-4" d="M78.39,101.19a28.32,28.32,0,0,1,2.67-7.82c4.68,2.38,12.09,5.78,14.79,4.94a135.63,135.63,0,0,0-14-6.05h0c5.11,1,13.6,2.37,16,.77a132.28,132.28,0,0,0-15.48-2l0-.1c5.21-.61,13-1.85,14.75-4a139.36,139.36,0,0,0-14.53,2.56s0-.08,0-.12v0c5.7-2.12,14-5.64,15.31-8.76a146.63,146.63,0,0,0-15.62,7l0-.06c5-4.19,12.43-11,12.57-15A140.61,140.61,0,0,0,81.22,85.65c3.89-5.56,9.25-14.16,8.32-18.16,0,0-6.62,9.55-10.07,16.93h0c1.79-6.24,3.7-14.82,1.76-18a148.06,148.06,0,0,0-4,17.47h0A149.71,149.71,0,0,0,72.17,67c-1.68,3.2.62,11.27,2.78,17.35l0,0a148.64,148.64,0,0,0-9.61-15c-.75,3.6,3.84,10.89,7.64,16.16A144,144,0,0,0,59.2,73c.25,3.94,7.56,10.36,12.74,14.43l0,0a153.36,153.36,0,0,0-15-6.59c1.31,3,9,6.37,14.71,8.5,0,0,0,0,0,.06-6-1.41-13.76-2.35-13.76-2.35,1.68,2,8.8,3.26,14,3.9l0,.07a137.42,137.42,0,0,0-15.22,2c1.64,1.07,6,.81,10.24.23,0,.26-.1.73-.17,1.34-1.25.53-2.45,1.07-3.52,1.56C62.54,94.88,62.07,94,62.07,94a4.86,4.86,0,0,0,.11,2.62l-2,.94c-1-1.06-1.65-1.76-1.65-1.76a4.49,4.49,0,0,0,.68,2.23l-.39.19a2.9,2.9,0,0,0,.55.1,32.79,32.79,0,0,0,4.51,5.61,78.66,78.66,0,0,0-8.36-5.66c.44,2.11,4.89,5,8,6.82v0a83.74,83.74,0,0,0-8.65-2.41c.94,1.52,5.36,2.75,8.6,3.47v0c-3.32-.31-7.62-.21-7.62-.21,1.06,1,5,1.09,7.88,1l0,0a74.87,74.87,0,0,0-8.09,2.23c1.42.66,5.77-.66,8.49-1.6h0a77.6,77.6,0,0,0-6.92,4.22c1.46.23,5-2,7.33-3.58a10,10,0,0,1,2.31,4.77c.43,2.43,1.31,8.73,1.6,10.83l1.23-.1c-.33-2.27-1.51-10.46-1.51-11.53a15.54,15.54,0,0,1,.83-4.67c2.25.76,5.48,1.73,7.29,1.66.09,5.77.12,12.58.13,14.18l1.74,0c0-2.68-.12-20.1.18-22.27m-13.52,2c-1.23-1.69-2.77-3.49-4-4.9a15.32,15.32,0,0,0,1.72-.36,39.07,39.07,0,0,0,2.35,5.24Zm1.24-.42h0c-.64-1.74-1.49-3.64-2.25-5.22.84-.27,1.73-.59,2.62-.95C66.29,98.46,66.11,100.76,66.12,102.78Zm10.17,3.31a61.49,61.49,0,0,0-6.89.18v-.05a28.13,28.13,0,0,0,6.81-2.51C76.25,104.41,76.27,105.21,76.29,106.08Zm-.1-3.31c0,.12,0,.25,0,.38a69.62,69.62,0,0,0-6.77,2.26s0,0,0-.07h0A32.13,32.13,0,0,0,76,100.92,16.26,16.26,0,0,1,76.19,102.77ZM72.44,92.34v0c-1.58.54-3.3,1.22-5,1.92a3.71,3.71,0,0,0-.42-1C69,93,70.85,92.65,72.44,92.34ZM67.35,102.9h0a36.22,36.22,0,0,0,.41-6.81c1-.41,1.93-.84,2.86-1.28A68.47,68.47,0,0,0,67.35,102.9Zm1,.52c1.38-2.73,3.15-6.65,3.26-9.11l1.53-.75a19.79,19.79,0,0,1,1.17,2.13A73.52,73.52,0,0,0,68.4,103.42Zm.7.93c2.07-2.28,4.93-5.75,5.54-8.06a19.44,19.44,0,0,1,1.21,3.8,72.36,72.36,0,0,0-6.74,4.3Zm.11,2.6h0a34.31,34.31,0,0,0,7.1-.18c0,.67,0,1.37,0,2.08A66.75,66.75,0,0,0,69.21,106.95Z" transform="translate(-45.62 -31.84)"/><path class="cls-5" d="M446.56,93.45c0-.43-.26-.59-.51-.59s-.32.06-.41.36A10.66,10.66,0,0,0,445.3,95a26.53,26.53,0,0,1-7.6,1.19h-.34a5.53,5.53,0,0,1-.7,0c-.1-1.85-.1-5.27-.1-7.65h1.16a34.32,34.32,0,0,1,6.57.64v0a2.64,2.64,0,0,0,.33,1.21.45.45,0,0,0,.43.31c.22,0,.45-.14.45-.54,0-.21,0-.47-.05-.81a11.36,11.36,0,0,1,0-1.44,12.43,12.43,0,0,1,0-1.52c0-.24,0-.42,0-.54,0-.4-.23-.54-.45-.54a.45.45,0,0,0-.44.32l-.11.45a4.56,4.56,0,0,0-.15.61,26,26,0,0,1-6.63.93h-1.16c0-2.5,0-5.79.1-7.56.32,0,.69,0,1.05,0,1.62.05,5.56.27,7.32,1.17A9.13,9.13,0,0,0,445.3,83c.09.32.25.48.47.48s.51-.25.51-.62,0-.64-.07-1-.1-1-.1-1.43.06-1,.11-1.49.07-.65.07-.83c0-.33-.19-.56-.45-.56a.42.42,0,0,0-.42.29,3.23,3.23,0,0,0-.26,1c-1.82.13-3.68.24-7.43.24-1.47,0-2.75,0-3.78-.07l-.79,0c-1-.05-1.87-.08-2.1-.08a.46.46,0,0,0-.48.48.46.46,0,0,0,.34.41,12.22,12.22,0,0,0,2.39.34c.1,1.93.1,5.44.1,8s0,6.11-.1,8.05a12.66,12.66,0,0,0-2.39.34.46.46,0,0,0-.34.41.46.46,0,0,0,.48.48l.43,0c.36,0,.93,0,1.66-.07,1.14-.06,2.68-.08,4.57-.08a47.81,47.81,0,0,1,7.68.34,3.71,3.71,0,0,0,.16.74c.11.34.32.41.47.41a.55.55,0,0,0,.54-.59c0-.17,0-.46-.06-.82s-.11-1.14-.11-1.63a15,15,0,0,1,.12-1.63c0-.27.05-.48.05-.6" transform="translate(-45.62 -31.84)"/><path class="cls-5" d="M145.17,74.13c-1.19,0-2.46.07-3.77.14s-2.41.18-3.14.18c-.52,0-1.17,0-1.8-.06l-.93,0c-.87-.07-1.74-.11-2.31-.11a.52.52,0,0,0-.17,1,17.77,17.77,0,0,0,3,.42c.13,2.42.13,6.87.13,10.14,0,3.1,0,7.75-.13,10.18a17.7,17.7,0,0,0-3,.42.52.52,0,0,0,.17,1l.49,0c.76-.06,2.35-.18,4.44-.18,2.27,0,4,.12,4.9.18l.57,0a.52.52,0,0,0,.17-1,24.28,24.28,0,0,0-3.57-.42c-.13-2.25-.13-6.39-.13-9l.78,0c1,.06,2,.12,3.07.12,5.27,0,9.24-3,9.24-7s-2.84-6-8-6m4,6.8c0,3.26-2.24,5.13-6.15,5.13-.76,0-1.53-.06-2.28-.12l-.61,0c0-3,0-7.78.13-10.32l.42-.07a13.48,13.48,0,0,1,2.55-.26C146,75.23,149.12,77,149.12,80.92Z" transform="translate(-45.62 -31.84)"/><path class="cls-5" d="M174.41,96.51a11.62,11.62,0,0,0-2.24-.34l-3.2-7.8c-1.19-2.9-2.67-7.12-3.08-8.46-.48-1.5-.56-1.72-.81-1.72s-.32.22-.4.41l0,.07a126.27,126.27,0,0,1-7.87,17.55,11.63,11.63,0,0,0-2.12.28.45.45,0,0,0,.15.89l.22,0c.45,0,1.62-.15,3.14-.15,1.66,0,2.93.1,3.54.14l.36,0a.46.46,0,0,0,.15-.89,19.72,19.72,0,0,0-2.89-.34,34.1,34.1,0,0,1,1.3-4.56h6.23c.47,1,1.07,2.95,1.47,4.23l.12.36a24.59,24.59,0,0,0-2.8.3.47.47,0,0,0-.35.42.46.46,0,0,0,.48.48l.48,0c.69,0,2.11-.14,4-.14s3,.1,3.66.14l.35,0a.46.46,0,0,0,.15-.89m-8-5.86H161c.52-1.38,1.92-4.69,2.76-6.66Z" transform="translate(-45.62 -31.84)"/><path class="cls-5" d="M195.17,92.88c0-.44-.26-.59-.51-.59s-.32.06-.41.36a15.31,15.31,0,0,0-.36,2.11,17,17,0,0,1-6.79,1.45,9.45,9.45,0,0,1-1.05,0c-.1-2-.1-5.62-.1-8.07s0-6.1.1-8a13.83,13.83,0,0,0,2.39-.34.45.45,0,0,0-.15-.89l-.35,0c-.61,0-1.88.15-3.57.15s-2.83-.09-3.49-.14l-.44,0a.47.47,0,0,0-.48.48.46.46,0,0,0,.34.41,13.8,13.8,0,0,0,2.39.34c.1,1.93.1,5.44.1,8s0,6.12-.1,8.06a14.2,14.2,0,0,0-2.39.34.46.46,0,0,0-.34.41.47.47,0,0,0,.48.48l.43,0c.36,0,.93,0,1.66-.07,1.14-.06,2.68-.08,4.57-.08a38.63,38.63,0,0,1,6.91.34,3.74,3.74,0,0,0,.16.74c.11.34.32.42.47.42a.55.55,0,0,0,.54-.59c0-.15,0-.43-.06-.79,0-.52-.11-1.16-.11-1.67,0-.35.05-1,.1-1.61s.07-1,.07-1.19" transform="translate(-45.62 -31.84)"/><path class="cls-5" d="M224.52,96.51a13.88,13.88,0,0,0-2.39-.34c-.3-3.4-1-12.32-1-16a9.23,9.23,0,0,0,2.05-.4.54.54,0,0,0,.37-.46.42.42,0,0,0-.48-.42c-.26,0-.61,0-1,.06s-.86.08-1.23.08c-.69,0-1.91-.09-2.29-.14l-.15,0-.06.14-.25.63c-.28.7-.54,1.35-.84,2l-3.46,7.86L210,83c-.55-.89-1.08-1.82-1.59-2.71L207.6,79l-.07-.12-.13,0a12,12,0,0,1-1.67.14c-.61,0-1.46-.06-2.09-.1l-.76,0c-.32,0-.54.18-.54.45,0,.49.59.58,1.15.65a2.15,2.15,0,0,1,1.19.38,10.85,10.85,0,0,1,1.24,1.78c0,.51-.09,1.07-.14,1.68-.32,3.89-.8,9.73-1.53,12.35a14.12,14.12,0,0,0-2.42.34.46.46,0,0,0-.34.41.46.46,0,0,0,.48.48l.35,0c.57,0,1.75-.14,3.29-.14s2.57.1,3.13.14l.37,0a.46.46,0,0,0,.15-.89,13.66,13.66,0,0,0-2.4-.34,52.34,52.34,0,0,1-.32-5.32c0-1.66.23-5.67.33-7.22l3.31,5.63c.59,1,1.3,2.23,1.84,3.14l0,0c.36.6.56.87.79.87s.43-.32.64-.78l.07-.15c1.07-2.65,3.11-6.9,4.38-9.44.29,2.79.9,10.38.92,13.23a13.93,13.93,0,0,0-2.37.34.45.45,0,0,0,.15.89l.4,0c.6,0,1.87-.14,3.53-.14s2.84.1,3.45.14l.37,0a.46.46,0,0,0,.15-.89" transform="translate(-45.62 -31.84)"/><path class="cls-5" d="M248.86,93.45c0-.43-.26-.59-.51-.59s-.32.06-.42.36a10.78,10.78,0,0,0-.33,1.82,26.53,26.53,0,0,1-7.6,1.19h-.34a5.54,5.54,0,0,1-.7,0c-.1-1.85-.1-5.27-.1-7.65H240a34.32,34.32,0,0,1,6.57.64v0a2.63,2.63,0,0,0,.33,1.21.44.44,0,0,0,.43.31c.22,0,.45-.14.45-.54,0-.21,0-.47-.05-.81a11.36,11.36,0,0,1,0-1.44,12.44,12.44,0,0,1,0-1.52c0-.24,0-.42,0-.54,0-.4-.23-.54-.45-.54a.45.45,0,0,0-.44.32l-.11.45a4.54,4.54,0,0,0-.15.61,26,26,0,0,1-6.63.93h-1.16c0-2.5,0-5.79.1-7.56.32,0,.7,0,1.06,0,1.62.05,5.56.27,7.32,1.17A9.13,9.13,0,0,0,247.6,83c.09.32.25.48.47.48s.51-.25.51-.62,0-.64-.07-1-.1-1-.1-1.43.06-1,.11-1.49.07-.65.07-.83c0-.33-.19-.56-.45-.56a.42.42,0,0,0-.42.29,3.21,3.21,0,0,0-.26,1c-1.82.13-3.68.24-7.43.24-1.47,0-2.75,0-3.78-.07l-.79,0c-1-.05-1.87-.08-2.1-.08a.46.46,0,0,0-.48.48.46.46,0,0,0,.34.41,12.2,12.2,0,0,0,2.39.34c.1,1.93.1,5.44.1,8s0,6.11-.1,8.05a12.65,12.65,0,0,0-2.39.34.46.46,0,0,0-.34.41.46.46,0,0,0,.48.48l.43,0c.36,0,.93,0,1.66-.07,1.14-.06,2.68-.08,4.57-.08a47.81,47.81,0,0,1,7.68.34,3.75,3.75,0,0,0,.16.74c.11.34.32.41.47.41a.55.55,0,0,0,.54-.59c0-.17,0-.46-.06-.82s-.11-1.14-.11-1.63a15,15,0,0,1,.12-1.63c0-.27.05-.48.05-.6" transform="translate(-45.62 -31.84)"/><path class="cls-5" d="M275.07,77.83a.55.55,0,0,0-.53-.59c-.15,0-.36.07-.47.42a4,4,0,0,0-.13.85.58.58,0,0,0,0,.06,52.45,52.45,0,0,1-7.5.45,50.92,50.92,0,0,1-7.5-.45V78.5a4.19,4.19,0,0,0-.13-.84c-.12-.35-.32-.42-.47-.42a.55.55,0,0,0-.54.59c0,.17,0,.57.07,1,0,.62.1,1.33.1,1.7,0,.57-.07,1.39-.12,1.93,0,.29,0,.51,0,.59,0,.44.26.59.51.59a.42.42,0,0,0,.42-.37,14.24,14.24,0,0,0,.31-2.05,11.53,11.53,0,0,1,5.72-1.16c.1,2,.1,5.46.1,8s0,6.11-.1,8a14.22,14.22,0,0,0-2.39.34.46.46,0,0,0-.34.41.46.46,0,0,0,.48.48l.36,0c.61,0,1.88-.14,3.57-.14s2.83.09,3.48.14l.44,0a.46.46,0,0,0,.15-.89,13.91,13.91,0,0,0-2.39-.34c-.1-1.93-.1-5.45-.1-8s0-6.09.1-8a11.71,11.71,0,0,1,5.72,1.16,14.3,14.3,0,0,0,.31,2.05c.09.25.23.37.42.37s.51-.16.51-.59c0-.08,0-.3,0-.59,0-.54-.12-1.36-.12-1.93,0-.36.05-1.07.1-1.7,0-.47.07-.88.07-1" transform="translate(-45.62 -31.84)"/><path class="cls-5" d="M300.44,77.83a.56.56,0,0,0-.54-.59c-.15,0-.35.07-.47.42a4,4,0,0,0-.13.85v.06a52.44,52.44,0,0,1-7.5.45,50.89,50.89,0,0,1-7.5-.45v-.06a4.1,4.1,0,0,0-.13-.85c-.12-.35-.32-.42-.47-.42a.55.55,0,0,0-.54.59c0,.17,0,.57.07,1,0,.62.1,1.33.1,1.7,0,.57-.07,1.39-.12,1.93,0,.29,0,.51,0,.59,0,.44.26.59.51.59a.42.42,0,0,0,.42-.38,14.36,14.36,0,0,0,.31-2.05,11.55,11.55,0,0,1,5.72-1.16c.1,2,.1,5.46.1,8s0,6.11-.1,8a13.84,13.84,0,0,0-2.39.34.45.45,0,0,0,.14.89l.36,0c.61,0,1.89-.14,3.57-.14s2.83.09,3.48.14l.44,0a.46.46,0,0,0,.15-.89,13.87,13.87,0,0,0-2.39-.34c-.1-1.93-.1-5.45-.1-8s0-6.09.1-8a11.71,11.71,0,0,1,5.72,1.16,14.48,14.48,0,0,0,.31,2.05c.1.31.28.37.42.37s.51-.16.51-.59c0-.08,0-.3,0-.59,0-.54-.13-1.36-.13-1.93,0-.36.06-1.07.1-1.7,0-.47.07-.88.07-1" transform="translate(-45.62 -31.84)"/><path class="cls-5" d="M318.72,78.53c-5.78,0-10.14,4.14-10.14,9.63,0,5.89,3.89,9.55,10.14,9.55a9.51,9.51,0,0,0,9.69-9.55c0-5.85-3.8-9.63-9.69-9.63m5.9,9.63c0,4.27-1.82,8.58-5.9,8.58-4.69,0-6.36-4.62-6.36-8.58,0-5.43,2.38-8.67,6.36-8.67C324.45,79.49,324.62,87.28,324.62,88.16Z" transform="translate(-45.62 -31.84)"/><path class="cls-5" d="M358.12,74.23c-.9,0-2,.06-3.14.11s-2,.1-2.75.1c-1.19,0-2.4-.08-3.37-.14-.64,0-1.2-.08-1.56-.08a.53.53,0,0,0-.56.55.53.53,0,0,0,.38.47,17.83,17.83,0,0,0,3,.42c.13,2.42.13,6.87.13,10.14,0,3.1,0,7.75-.13,10.18a17.74,17.74,0,0,0-3,.42.52.52,0,0,0,.17,1l.49,0c.76-.06,2.35-.18,4.44-.18,1,0,1.77.06,2.56.11s1.5.1,2.34.1c6.28,0,12.61-3.71,12.61-12,0-6.59-4.78-11.2-11.62-11.2M365.3,86c0,6.48-3.12,10.34-8.35,10.34a8.62,8.62,0,0,1-1.68-.21c-.31-.06-.63-.12-1-.16-.13-2.53-.13-7.28-.13-10.15s0-7.63.13-10.15l.11,0a17.68,17.68,0,0,1,2.93-.31C363.64,75.34,365.3,82.31,365.3,86Z" transform="translate(-45.62 -31.84)"/><path class="cls-5" d="M395.46,78.85l-.27,0a23.17,23.17,0,0,1-2.56.15c-1.54,0-2.72-.1-3.29-.15l-.35,0a.46.46,0,0,0-.48.48.46.46,0,0,0,.34.41,13.58,13.58,0,0,0,2.4.34,70.8,70.8,0,0,1,.65,8.43c0,3.08,0,8.25-5.54,8.25A3.89,3.89,0,0,1,383,95.36a6,6,0,0,1-1.15-3.2c-.19-1.88-.09-7.9-.06-9.41,0-.63,0-1.13,0-1.54s0-.83,0-1.14a13.52,13.52,0,0,0,2.38-.34.46.46,0,0,0,.33-.41.46.46,0,0,0-.48-.48l-.35,0c-.61,0-1.88.15-3.57.15s-2.92-.1-3.53-.15l-.4,0a.45.45,0,0,0-.15.89,13.89,13.89,0,0,0,2.39.34c.11,1.5.1,3.11.1,6.21v1.83c0,.46,0,1.06,0,1.62s0,.92,0,1.21c0,6.11,5.15,6.78,7.37,6.78,4,0,6.45-2.07,6.92-5.82.08-.54.28-2.69.28-3.39a80.55,80.55,0,0,1,.66-8.43,8.15,8.15,0,0,0,1.85-.34.45.45,0,0,0,.32-.41.46.46,0,0,0-.48-.48" transform="translate(-45.62 -31.84)"/><path class="cls-5" d="M422.21,78.85l-.27,0a28,28,0,0,1-2.86.15c-1.52,0-2.76-.1-3.36-.15l-.37,0a.45.45,0,0,0-.14.89,16.72,16.72,0,0,0,2.63.34,60.78,60.78,0,0,1,.6,8.31v3.5l-11-13-.06-.07h-.1l-.67.05c-.45,0-1,.09-1.35.09-.55,0-1.07,0-1.48-.09s-.57-.05-.77-.05a.52.52,0,0,0-.56.51c0,.4.42.5.8.59A6.35,6.35,0,0,1,405.8,82c0,7.87-.24,11-.71,14.14a10.87,10.87,0,0,0-2.07.34.46.46,0,0,0-.33.41.46.46,0,0,0,.48.48l.29,0c.48,0,1.62-.15,2.93-.15,1.64,0,2.89.1,3.42.15l.3,0a.45.45,0,0,0,.15-.89,17.19,17.19,0,0,0-2.69-.34,82.23,82.23,0,0,1-.68-12.86l7.87,9.25c1.36,1.62,2.28,2.73,2.9,3.48,1.39,1.67,1.39,1.67,1.65,1.67s.4-.21.4-.51c0,0,0-.18,0-.41,0-1-.18-4.14-.18-8.41a44.06,44.06,0,0,1,.7-8.31,11.13,11.13,0,0,0,2.14-.34.46.46,0,0,0,.33-.41.46.46,0,0,0-.48-.48" transform="translate(-45.62 -31.84)"/><path class="cls-5" d="M466,86.73a15.15,15.15,0,0,0-3.34-.6c-2.61-.28-5.08-.54-5.08-2.89,0-2.59,3.37-2.8,4.41-2.8a8.19,8.19,0,0,1,5.51,2.13c0,2.17.42,2.17.59,2.17.48,0,.48-.36.48-.71V81.36c0-.74.12-2.08.2-2.89,0-.36.06-.61.06-.67a.48.48,0,0,0-.45-.54c-.49,0-.58.71-.75,2v.07a13.23,13.23,0,0,0-4.69-.78c-3.18,0-6.61,1.79-6.61,5.71a5.41,5.41,0,0,0,2.27,4.63,10.72,10.72,0,0,0,4,1c2.68.34,5.44.7,5.44,3.26,0,1.67-1.37,2.51-4.07,2.51a8.74,8.74,0,0,1-6.36-2.72l0-.25c-.09-1.09-.18-2.23-.79-2.23a.43.43,0,0,0-.4.48c0,.14,0,.52,0,1,0,.89.12,2.11.12,2.94s-.06,1.73-.11,2.53c0,.5-.06.89-.06,1.08a.48.48,0,0,0,.45.54c.49,0,.6-.86.71-2.08,0-.08,0-.15,0-.22a12.48,12.48,0,0,0,4.94,1c4.17,0,6.86-2.36,6.86-6a4.82,4.82,0,0,0-3.35-5" transform="translate(-45.62 -31.84)"/><path class="cls-5" d="M473.19,79.17v3.36h-.54V79.17h-1.27v-.52h3.07v.52h-1.26M478,82.53v-2.6l-1,2.6h-.54l-1-2.6v2.6h-.52V78.65h.54l1.3,3.23,1.28-3.23h.56v3.88Z" transform="translate(-45.62 -31.84)"/><path class="cls-5" d="M188.2,110.57c-4.39,0-4.86,4.34-4.86,6.21s.47,6.21,4.86,6.21c3.08,0,4.85-2.26,4.85-6.21s-1.77-6.21-4.85-6.21m0,1.48c2.79,0,3.38,2.57,3.38,4.73s-.59,4.73-3.38,4.73c-2.23,0-3.37-1.59-3.37-4.73S186,112,188.2,112Z" transform="translate(-45.62 -31.84)"/><path class="cls-5" d="M203.65,112a3.23,3.23,0,0,1,2.71,1.52l.1.12.12-.1.9-.74.12-.1-.1-.12a4.63,4.63,0,0,0-3.84-2.05c-3.05,0-4.87,2.32-4.87,6.21s1.82,6.21,4.87,6.21a4.64,4.64,0,0,0,3.84-2l.1-.12-.12-.1-.9-.75-.12-.1-.1.12a3.23,3.23,0,0,1-2.71,1.52c-2.78,0-3.36-2.57-3.36-4.73s.58-4.73,3.36-4.73" transform="translate(-45.62 -31.84)"/><polyline class="cls-5" points="168.06 78.89 167.9 78.89 167.9 91 175.72 91 175.72 89.52 169.38 89.52 169.38 85.4 174.92 85.4 174.92 83.96 169.38 83.96 169.38 80.36 175.72 80.36 175.72 78.89 168.06 78.89"/><path class="cls-5" d="M233,110.82l0-.1h-1.5l0,.1-4.57,11.8-.08.21h1.59l0-.1,1.33-3.4h5l1.32,3.4,0,.1h1.6l-.08-.21L233,110.82m1.15,7.07h-3.88l1.94-5Z" transform="translate(-45.62 -31.84)"/><polyline class="cls-5" points="204.73 78.89 204.58 78.89 204.58 88.18 199.09 78.96 199.04 78.89 197.63 78.89 197.63 91 199.11 91 199.11 81.7 204.6 90.92 204.65 91 206.06 91 206.06 78.89 204.73 78.89"/><polyline class="cls-5" points="212.95 78.89 212.8 78.89 212.8 91 214.27 91 214.27 85.43 219.82 85.43 219.82 83.99 214.27 83.99 214.27 80.36 220.45 80.36 220.45 78.89 212.95 78.89"/><path class="cls-5" d="M277.78,118a2.55,2.55,0,0,0-.33-.49,3.33,3.33,0,0,0,2.75-3.34c0-2.19-1.42-3.4-4-3.4H272v12.11h1.48v-5.31H275a1.33,1.33,0,0,1,1.29.85l2.55,4.38,0,.08h1.73l-.14-.23L277.78,118m-4.29-5.75h2.72c1.73,0,2.5.59,2.5,1.93s-.78,2-2.45,2h-2.77Z" transform="translate(-45.62 -31.84)"/><path class="cls-5" d="M290.75,110.57c-4.38,0-4.86,4.34-4.86,6.21s.47,6.21,4.86,6.21c3.09,0,4.86-2.26,4.86-6.21s-1.77-6.21-4.86-6.21m0,1.48c2.79,0,3.38,2.57,3.38,4.73s-.59,4.73-3.38,4.73c-2.23,0-3.36-1.59-3.36-4.73S288.52,112,290.75,112Z" transform="translate(-45.62 -31.84)"/><polyline class="cls-5" points="263.33 78.89 263.18 78.89 263.18 88.18 257.68 78.96 257.64 78.89 256.23 78.89 256.23 91 257.71 91 257.71 81.7 263.2 90.92 263.25 91 264.66 91 264.66 78.89 263.33 78.89"/><polyline class="cls-5" points="270.6 78.89 270.44 78.89 270.44 80.34 274.11 80.34 274.11 91 275.61 91 275.61 80.34 279.28 80.34 279.28 78.89 270.6 78.89"/><path class="cls-5" d="M345.3,118a2.62,2.62,0,0,0-.33-.49,3.33,3.33,0,0,0,2.75-3.34c0-2.19-1.42-3.4-4-3.4h-4.2v12.11H341v-5.31h1.55a1.32,1.32,0,0,1,1.28.85l2.56,4.38,0,.08h1.73l-.14-.23L345.3,118M341,112.2h2.72c1.73,0,2.5.59,2.5,1.93s-.8,2-2.45,2H341Z" transform="translate(-45.62 -31.84)"/><polyline class="cls-5" points="308.48 78.89 308.32 78.89 308.32 91 316.14 91 316.14 89.52 309.8 89.52 309.8 85.4 315.34 85.4 315.34 83.96 309.8 83.96 309.8 80.36 316.14 80.36 316.14 78.89 308.48 78.89"/><path class="cls-5" d="M372,115.7c-1.56-.36-2.91-.67-2.91-1.92s1.27-1.71,2.47-1.71a2.78,2.78,0,0,1,3,1.69l.07.14.14-.07,1-.49.14-.07-.06-.14a4.19,4.19,0,0,0-4.3-2.54c-2,0-3.94,1-3.94,3.18,0,2.42,2.11,2.89,4,3.3,1.69.37,3.15.69,3.15,2.23s-1.47,2.24-2.84,2.24a3,3,0,0,1-3.28-2.29l0-.16-.16,0-1.15.29-.14,0,0,.14c.39,2.11,2.16,3.37,4.75,3.37,2.14,0,4.31-1.26,4.31-3.67,0-2.64-2.24-3.16-4.23-3.61" transform="translate(-45.62 -31.84)"/><path class="cls-5" d="M386.71,110.57c-4.38,0-4.86,4.34-4.86,6.21s.47,6.21,4.86,6.21c3.09,0,4.86-2.26,4.86-6.21s-1.77-6.21-4.86-6.21m0,1.48c2.79,0,3.38,2.57,3.38,4.73s-.59,4.73-3.38,4.73c-2.23,0-3.36-1.59-3.36-4.73S384.48,112,386.71,112Z" transform="translate(-45.62 -31.84)"/><path class="cls-5" d="M403.57,118a2.6,2.6,0,0,0-.33-.49,3.33,3.33,0,0,0,2.75-3.34c0-2.19-1.42-3.4-4-3.4h-4.2v12.11h1.48v-5.31h1.55a1.33,1.33,0,0,1,1.28.85l2.55,4.38,0,.08h1.73l-.14-.23L403.57,118m-4.29-5.75H402c1.73,0,2.5.59,2.5,1.93s-.8,2-2.45,2h-2.77Z" transform="translate(-45.62 -31.84)"/><polyline class="cls-5" points="374.38 78.89 365.7 78.89 365.7 80.34 369.37 80.34 369.37 91 370.86 91 370.86 80.34 374.53 80.34 374.53 78.89 374.38 78.89"/><path class="cls-6" d="M380.36,136.9H221.07a.5.5,0,1,1,0-1H380.36a.5.5,0,0,1,0,1" transform="translate(-45.62 -31.84)"/><polyline class="cls-6" points="118.82 128.04 118.82 123.91 115.55 123.91 115.55 128.04 113.66 128.04 113.66 118.16 115.55 118.16 115.55 122.2 118.82 122.2 118.82 118.16 120.71 118.16 120.71 128.04 118.82 128.04"/><rect class="cls-6" x="131.72" y="118.16" width="1.89" height="9.88"/><polyline class="cls-6" points="144.59 128.04 144.59 118.16 146.48 118.16 146.48 126.32 150.87 126.32 150.87 128.04 144.59 128.04"/><polyline class="cls-6" points="164.03 119.88 164.03 128.04 162.14 128.04 162.14 119.88 159.62 119.88 159.62 118.16 166.56 118.16 166.56 119.88 164.03 119.88"/><path class="cls-6" d="M228.39,158.88a3.7,3.7,0,0,1-5.23,0c-1-1-1-2.23-1-3.94s0-2.94,1-3.94a3.7,3.7,0,0,1,5.23,0c1,1,1,2.23,1,3.94s0,2.94-1,3.94m-1.4-6.72a1.55,1.55,0,0,0-1.21-.53,1.59,1.59,0,0,0-1.22.53c-.37.42-.46.87-.46,2.77s.09,2.36.46,2.77a1.59,1.59,0,0,0,1.22.53,1.55,1.55,0,0,0,1.21-.53c.37-.42.48-.87.48-2.77S227.36,152.58,227,152.17Z" transform="translate(-45.62 -31.84)"/><polyline class="cls-6" points="200.18 128.04 196.35 121.98 196.35 128.04 194.46 128.04 194.46 118.16 196.15 118.16 199.98 124.21 199.98 118.16 201.87 118.16 201.87 128.04 200.18 128.04"/><polyline class="cls-6" points="230.11 128.04 230.11 123.91 226.83 123.91 226.83 128.04 224.95 128.04 224.95 118.16 226.83 118.16 226.83 122.2 230.11 122.2 230.11 118.16 232 118.16 232 128.04 230.11 128.04"/><polyline class="cls-6" points="243.01 128.04 243.01 118.16 249.38 118.16 249.38 119.88 244.9 119.88 244.9 122.2 248.71 122.2 248.71 123.92 244.9 123.92 244.9 126.32 249.38 126.32 249.38 128.04 243.01 128.04"/><path class="cls-6" d="M311.56,159.88l-.57-1.75h-3.44l-.59,1.75h-2l3.52-9.88H310l3.53,9.88h-2m-2.25-7-1.22,3.59h2.41Z" transform="translate(-45.62 -31.84)"/><path class="cls-6" d="M329.79,158.94a3.48,3.48,0,0,1-2.56.95h-3.49V150h3.49a3.48,3.48,0,0,1,2.56.94c1.09,1.11,1,2.47,1,4s.11,2.93-1,4m-1.32-6.6a1.67,1.67,0,0,0-1.41-.61h-1.43v6.44h1.43a1.67,1.67,0,0,0,1.41-.61c.35-.44.41-1.15.41-2.65S328.82,152.78,328.47,152.34Z" transform="translate(-45.62 -31.84)"/><rect class="cls-6" x="307.9" y="118.16" width="1.89" height="9.88"/><path class="cls-6" d="M369.23,160a4.49,4.49,0,0,1-3.53-1.3l1.22-1.25a3.13,3.13,0,0,0,2.34.83c1.11,0,1.71-.43,1.71-1.22a1.12,1.12,0,0,0-.3-.83,1.44,1.44,0,0,0-.86-.35l-1.17-.17a3.23,3.23,0,0,1-1.87-.82,2.64,2.64,0,0,1-.69-1.94c0-1.76,1.28-3,3.37-3a4.09,4.09,0,0,1,3.12,1.15l-1.19,1.21a2.65,2.65,0,0,0-2-.68c-1,0-1.49.57-1.49,1.25a1,1,0,0,0,.28.71,1.66,1.66,0,0,0,.9.39l1.14.17a3.15,3.15,0,0,1,1.85.76,2.8,2.8,0,0,1,.75,2.1c0,1.91-1.56,3-3.59,3" transform="translate(-45.62 -31.84)"/><polyline class="cls-6" points="337.69 128.04 337.69 118.16 339.58 118.16 339.58 126.32 343.97 126.32 343.97 128.04 337.69 128.04"/><path class="cls-6" d="M406,159.88l-.57-1.75H402l-.58,1.75h-2L403,150h1.48l3.53,9.88h-2m-2.25-7-1.22,3.59h2.4Z" transform="translate(-45.62 -31.84)"/><polyline class="cls-6" points="378.28 128.04 374.44 121.98 374.44 128.04 372.56 128.04 372.56 118.16 374.24 118.16 378.07 124.21 378.07 118.16 379.96 118.16 379.96 128.04 378.28 128.04"/><path class="cls-6" d="M442.64,158.94a3.48,3.48,0,0,1-2.55.95h-3.49V150h3.49a3.47,3.47,0,0,1,2.55.94c1.09,1.11,1,2.47,1,4s.11,2.93-1,4m-1.32-6.6a1.66,1.66,0,0,0-1.41-.61h-1.43v6.44h1.43a1.67,1.67,0,0,0,1.41-.61c.35-.44.41-1.15.41-2.65S441.67,152.78,441.32,152.34Z" transform="translate(-45.62 -31.84)"/></g></svg>