<?xml version="1.0" encoding="utf-8"?>
<!-- Generator: Adobe Illustrator 16.0.0, SVG Export Plug-In . SVG Version: 6.00 Build 0)  -->
<!DOCTYPE svg PUBLIC "-//W3C//DTD SVG 1.1//EN" "http://www.w3.org/Graphics/SVG/1.1/DTD/svg11.dtd">
<svg version="1.1" id="Layer_1" xmlns="http://www.w3.org/2000/svg" xmlns:xlink="http://www.w3.org/1999/xlink" x="0px" y="0px"
	 width="26.033px" height="30px" viewBox="0 0 26.033 30" enable-background="new 0 0 26.033 30" xml:space="preserve">
<g>
	<path id="note-31-icon" fill="#A2A2A2" d="M20.94,13.393c0,2.86,0,5.621,0,6.514c0,4.14-5.11,2.48-5.11,2.48
		s1.564,4.989-2.295,4.989c-2.103,0-3.151,0-10.912,0V5.605h8.449c0.842-0.969,1.838-1.848,2.979-2.623H0V30h13.574
		c4.471,0,9.988-5.841,9.988-9.867v-9.359C22.354,11.98,23.072,11.264,20.94,13.393z M18.143,19.555H5.42v-1.967h12.723V19.555
		L18.143,19.555z M18.141,15.266H5.42v-1.967h12.721V15.266z"/>
	<path fill="#D16428" d="M10.275,11.812c1.762-7.668,10.528-9.233,10.528-9.233V0l5.229,5.221l-5.229,5.221v-2.58
		C20.804,7.861,14.023,7.798,10.275,11.812z"/>
</g>
</svg>
