<svg xmlns="http://www.w3.org/2000/svg" width="40" height="40" viewBox="0 0 40 40"><path fill="#024372" d="M0 0h40v40H0z"/><path fill="#16527D" d="M0 0h40v20H0z"/><path fill="none" stroke="#4D799D" stroke-width=".944" stroke-miterlimit="10" d="M3 3h34v34H3z"/><path fill="#FFF" d="M24.023 30a3.672 3.672 0 0 1-.991-.133 3.695 3.695 0 0 1-.636-.247c-2.259-1.21-4.86-3.443-6.686-5.734h-.025l-.13-.186-.024-.015-.067-.114-.074-.095c-1.837-2.359-3.431-5.532-4.062-8.084a3.646 3.646 0 0 1-.079-.659 3.684 3.684 0 0 1 .07-.808c.259-1.294 1.167-2.322 1.884-2.956.065-.058.132-.115.195-.168.325-.269.802-.587.847-.615a.841.841 0 0 1 .417-.134L15.77 10c.248 0 .483.105.647.29.066.073.28.318.567.687.794 1.022 1.804 2.547 2.113 4.011.136.631-.743 1.647-.751 1.657-.202.21-.444.3-.678.387-.136.05-.271.1-.412.17-.756.373-.669.734-.563 1.056.419.889 1.138 1.876 1.86 2.815l.12.101.021.083c.729.924 1.504 1.852 2.252 2.467.117.074.28.167.452.167.269 0 .534-.246.711-.452.105-.125.188-.246.262-.353.146-.21.292-.423.544-.567.149-.086.975-.408 1.407-.408.14 0 .268.028.382.084 1.426.7 2.725 2.202 3.372 3.035.132.169.33.43.517.702l.018.024a.862.862 0 0 1 .099.746l-.304 1a.88.88 0 0 1-.254.395 10.96 10.96 0 0 1-.784.65 4.18 4.18 0 0 1-.218.152c-.734.499-1.878 1.101-3.127 1.101zm-.984-1.668l.046.021a2.159 2.159 0 0 0 .814.203c.043.002.084.004.124.004.883 0 1.749-.465 2.321-.855a7.863 7.863 0 0 0 .73-.578l.181-.596a17.554 17.554 0 0 0-.314-.418c-.44-.566-1.559-1.91-2.711-2.545a5.748 5.748 0 0 0-.569.189 4.055 4.055 0 0 0-.101.141c-.085.124-.2.291-.354.473-.542.637-1.15.959-1.807.959-.609 0-1.066-.291-1.261-.416l-.067-.047c-.887-.721-1.756-1.768-2.564-2.793l-.039-.032-.015-.026-.068-.068-.012-.049c-.77-1.003-1.535-2.064-2.002-3.072l-.03-.074c-.552-1.65.564-2.489 1.278-2.842.209-.104.396-.173.534-.224.065-.024.132-.049.173-.066.085-.116.24-.356.322-.509-.317-1.216-1.253-2.546-1.8-3.25a13.135 13.135 0 0 0-.329-.408l-.621.03a8.789 8.789 0 0 0-.578.426c-.049.041-.103.086-.159.136-.555.491-1.249 1.261-1.43 2.163a2.184 2.184 0 0 0-.001.843l.007.038c.581 2.314 2.012 5.176 3.676 7.357h.061l.233.38c1.705 2.189 4.186 4.347 6.332 5.505z"/></svg>