<svg xmlns="http://www.w3.org/2000/svg" width="54" height="54" viewBox="229 229 54 54"><circle fill="#FFF" cx="256" cy="256" r="20"/><path fill="#61983D" d="M256 282c-14.336 0-26-11.663-26-26 0-14.336 11.664-26 26-26 14.337 0 26 11.664 26 26 0 14.337-11.663 26-26 26zm-11.917-22.701L256 247.439l11.918 11.86 2.918-2.932L256 241.601l-14.836 14.766 2.919 2.932z"/><path fill="#FFF" d="M256 231c13.808 0 25 11.192 25 25 0 13.807-11.192 25-25 25-13.807 0-25-11.193-25-25 0-13.808 11.193-25 25-25m-11.92 29.713L256 248.85l11.921 11.863 4.329-4.35L256 240.19l-16.25 16.173 4.33 4.35M256 229c-14.888 0-27 12.112-27 27s12.112 27 27 27 27-12.112 27-27-12.112-27-27-27zm-13.421 27.37L256 243.012l13.422 13.358-1.508 1.515-10.503-10.453-1.411-1.404-1.411 1.404-10.503 10.453-1.507-1.515z"/><text transform="translate(243.883 273.372)" fill="#FFF" font-family="'Lato-Bold'" font-size="12">TOP</text></svg>