<?xml version="1.0" encoding="utf-8"?>
<!-- Generator: Adobe Illustrator 16.0.0, SVG Export Plug-In . SVG Version: 6.00 Build 0)  -->
<!DOCTYPE svg PUBLIC "-//W3C//DTD SVG 1.1//EN" "http://www.w3.org/Graphics/SVG/1.1/DTD/svg11.dtd">
<svg version="1.1" id="Layer_1" xmlns="http://www.w3.org/2000/svg" xmlns:xlink="http://www.w3.org/1999/xlink" x="0px" y="0px"
	 width="40px" height="40px" viewBox="0 0 40 40" enable-background="new 0 0 40 40" xml:space="preserve">
<rect fill="#024372" width="40" height="40"/>
<rect fill="#16527D" width="40" height="20"/>
<rect x="3" y="3" fill="none" stroke="#4D799D" stroke-width="0.9444" stroke-miterlimit="10" width="34" height="34"/>
<path fill="#FFFFFF" d="M24.023,30L24.023,30c-0.065,0-0.131-0.002-0.196-0.005c-0.266-0.013-0.534-0.056-0.795-0.128
	c-0.188-0.055-0.363-0.119-0.53-0.197c-0.037-0.014-0.072-0.03-0.106-0.05c-2.259-1.21-4.86-3.443-6.686-5.734h-0.025L15.555,23.7
	l-0.024-0.015l-0.067-0.114l-0.074-0.095c-1.837-2.359-3.431-5.532-4.062-8.084c-0.008-0.034-0.015-0.067-0.019-0.1
	c-0.034-0.185-0.055-0.373-0.06-0.559c-0.007-0.268,0.017-0.539,0.07-0.808c0.259-1.294,1.167-2.322,1.884-2.956
	c0.065-0.058,0.132-0.115,0.195-0.168c0.325-0.269,0.802-0.587,0.847-0.615c0.113-0.076,0.263-0.126,0.417-0.134L15.77,10
	c0.248,0,0.483,0.105,0.647,0.29h0c0.066,0.073,0.28,0.318,0.567,0.687c0.794,1.022,1.804,2.547,2.113,4.011
	c0.136,0.631-0.743,1.647-0.751,1.657c-0.202,0.21-0.444,0.3-0.678,0.387c-0.136,0.05-0.271,0.1-0.412,0.17
	c-0.756,0.373-0.669,0.734-0.563,1.056c0.419,0.889,1.138,1.876,1.86,2.815l0.12,0.101l0.021,0.083
	c0.729,0.924,1.504,1.852,2.252,2.467c0.117,0.074,0.28,0.167,0.452,0.167c0.269,0,0.534-0.246,0.711-0.452
	c0.105-0.125,0.188-0.246,0.262-0.353c0.146-0.21,0.292-0.423,0.544-0.567c0.149-0.086,0.975-0.408,1.407-0.408
	c0.14,0,0.268,0.028,0.382,0.084c1.426,0.7,2.725,2.202,3.372,3.035c0.132,0.169,0.33,0.43,0.517,0.702l0.018,0.024
	c0.146,0.224,0.182,0.495,0.099,0.746l-0.304,1c-0.048,0.153-0.135,0.289-0.254,0.395c-0.174,0.156-0.503,0.446-0.784,0.65
	c-0.063,0.047-0.138,0.1-0.218,0.152C26.416,29.398,25.272,30,24.023,30z M23.039,28.332l0.046,0.021
	c0.105,0.051,0.219,0.094,0.337,0.127c0.152,0.043,0.315,0.068,0.477,0.076c0.043,0.002,0.084,0.004,0.124,0.004
	c0.883,0,1.749-0.465,2.321-0.855c0.065-0.044,0.12-0.082,0.171-0.121c0.145-0.104,0.347-0.27,0.559-0.457l0.181-0.596
	c-0.097-0.133-0.203-0.275-0.314-0.418c-0.44-0.566-1.559-1.91-2.711-2.545c-0.159,0.041-0.434,0.134-0.569,0.189
	c-0.027,0.035-0.067,0.092-0.101,0.141c-0.085,0.124-0.2,0.291-0.354,0.473c-0.542,0.637-1.15,0.959-1.807,0.959
	c-0.609,0-1.066-0.291-1.261-0.416l-0.067-0.047c-0.887-0.721-1.756-1.768-2.564-2.793l-0.039-0.032l-0.015-0.026l-0.068-0.068
	l-0.012-0.049c-0.77-1.003-1.535-2.064-2.002-3.072l-0.03-0.074c-0.552-1.65,0.564-2.489,1.278-2.842
	c0.209-0.104,0.396-0.173,0.534-0.224c0.065-0.024,0.132-0.049,0.173-0.066c0.085-0.116,0.24-0.356,0.322-0.509
	c-0.317-1.216-1.253-2.546-1.8-3.25c-0.131-0.169-0.244-0.307-0.329-0.408l-0.621,0.03c-0.155,0.106-0.403,0.281-0.578,0.426
	c-0.049,0.041-0.103,0.086-0.159,0.136c-0.555,0.491-1.249,1.261-1.43,2.163c-0.032,0.164-0.047,0.327-0.042,0.486
	c0.003,0.117,0.017,0.238,0.041,0.357l0.007,0.038c0.581,2.314,2.012,5.176,3.676,7.357h0.061l0.233,0.38
	C18.412,25.016,20.893,27.174,23.039,28.332z"/>
</svg>
