<?xml version="1.0" encoding="utf-8"?>
<!-- Generator: Adobe Illustrator 16.0.0, SVG Export Plug-In . SVG Version: 6.00 Build 0)  -->
<!DOCTYPE svg PUBLIC "-//W3C//DTD SVG 1.1//EN" "http://www.w3.org/Graphics/SVG/1.1/DTD/svg11.dtd">
<svg version="1.1" id="Layer_1" xmlns="http://www.w3.org/2000/svg" xmlns:xlink="http://www.w3.org/1999/xlink" x="0px" y="0px"
	 width="40px" height="30px" viewBox="0 5 40 30" enable-background="new 0 5 40 30" xml:space="preserve">
<rect y="5" fill="#024372" width="40" height="30"/>
<rect y="5" fill="#16527D" width="40" height="15"/>
<path id="magnifier-5-icon" fill="#FFFFFF" d="M29.927,26.367l-5.685-5.684C26.604,15.785,23.034,10,17.522,10
	c-4.111,0-7.456,3.345-7.456,7.456c0,5.423,5.617,8.999,10.501,6.805l5.732,5.732C27.931,30.13,30.067,28.055,29.927,26.367z
	 M17.522,22.434c-2.745,0-4.978-2.233-4.978-4.978c0-2.745,2.233-4.978,4.978-4.978s4.978,2.233,4.978,4.978
	C22.5,20.201,20.267,22.434,17.522,22.434z"/>
</svg>
