<?xml version="1.0" encoding="utf-8"?>
<!-- Generator: Adobe Illustrator 16.0.0, SVG Export Plug-In . SVG Version: 6.00 Build 0)  -->
<!DOCTYPE svg PUBLIC "-//W3C//DTD SVG 1.1//EN" "http://www.w3.org/Graphics/SVG/1.1/DTD/svg11.dtd">
<svg version="1.1" id="Layer_1" xmlns="http://www.w3.org/2000/svg" xmlns:xlink="http://www.w3.org/1999/xlink" x="0px" y="0px"
	 width="54px" height="54px" viewBox="229 229 54 54" enable-background="new 229 229 54 54" xml:space="preserve">
<g>
	<circle fill="#FFFFFF" cx="256" cy="256" r="20"/>
	<g id="arrow-27-icon">
		<path fill="#61983D" d="M256,282c-14.336,0-26-11.663-26-26c0-14.336,11.664-26,26-26c14.337,0,26,11.664,26,26
			C282,270.337,270.337,282,256,282z M244.083,259.299L256,247.439l11.918,11.86l2.918-2.932L256,241.601l-14.836,14.766
			L244.083,259.299z"/>
		<path fill="#FFFFFF" d="M256,231c13.808,0,25,11.192,25,25c0,13.807-11.192,25-25,25c-13.807,0-25-11.193-25-25
			C231,242.192,242.193,231,256,231 M244.08,260.713L256,248.85l11.921,11.863l4.329-4.35L256,240.19l-16.25,16.173L244.08,260.713
			 M256,229c-14.888,0-27,12.112-27,27s12.112,27,27,27s27-12.112,27-27S270.888,229,256,229L256,229z M242.579,256.37L256,243.012
			l13.422,13.358l-1.508,1.515l-10.503-10.453L256,246.028l-1.411,1.404l-10.503,10.453L242.579,256.37L242.579,256.37z"/>
	</g>
	<text transform="matrix(1 0 0 1 243.8833 273.3721)" fill="#FFFFFF" font-family="'Lato-Bold'" font-size="12">TOP</text>
</g>
</svg>
