<?xml version="1.0" encoding="utf-8"?>
<!-- Generator: Adobe Illustrator 16.0.0, SVG Export Plug-In . SVG Version: 6.00 Build 0)  -->
<!DOCTYPE svg PUBLIC "-//W3C//DTD SVG 1.1//EN" "http://www.w3.org/Graphics/SVG/1.1/DTD/svg11.dtd">
<svg version="1.1" id="Layer_2" xmlns="http://www.w3.org/2000/svg" xmlns:xlink="http://www.w3.org/1999/xlink" x="0px" y="0px"
	 width="28px" height="26px" viewBox="0 0 28 26" enable-background="new 0 0 28 26" xml:space="preserve">
<g>
	
		<linearGradient id="SVGID_1_" gradientUnits="userSpaceOnUse" x1="14.271" y1="3.0005" x2="14.271" y2="9.9175" gradientTransform="matrix(1 0 0 -1 0 27)">
		<stop  offset="0" style="stop-color:#FFFFFF"/>
		<stop  offset="0.1274" style="stop-color:#F0F0F0"/>
		<stop  offset="0.3094" style="stop-color:#E3E3E3"/>
		<stop  offset="0.5426" style="stop-color:#DBDBDB"/>
		<stop  offset="1" style="stop-color:#D9D9D9"/>
	</linearGradient>
	<rect x="1.542" y="17.083" fill="url(#SVGID_1_)" width="25.458" height="6.917"/>
	<rect x="1.542" fill="#D9D9D9" width="25.458" height="17.083"/>
	<rect x="2" fill="#FFFFFF" width="24" height="21.958"/>
	<rect x="2" fill="#61983D" width="24" height="6.708"/>
	<rect x="13.083" y="9" fill="#8E8E8E" width="2" height="2.083"/>
	<rect x="16.083" y="9" fill="#8E8E8E" width="2" height="2.083"/>
	<rect x="19.083" y="9" fill="#8E8E8E" width="2" height="2.083"/>
	<rect x="22.083" y="9" fill="#8E8E8E" width="2" height="2.083"/>
	<rect x="4.083" y="9" fill="#8E8E8E" width="2" height="2.083"/>
	<rect x="7.083" y="9" fill="#8E8E8E" width="2" height="2.083"/>
	<rect x="10.083" y="9" fill="#8E8E8E" width="2" height="2.083"/>
	<rect x="13.083" y="12" fill="#8E8E8E" width="2" height="2.083"/>
	<rect x="16.083" y="12" fill="#8E8E8E" width="2" height="2.083"/>
	<rect x="19.083" y="12" fill="#8E8E8E" width="2" height="2.083"/>
	<rect x="22.083" y="12" fill="#8E8E8E" width="2" height="2.083"/>
	<rect x="4.083" y="12" fill="#8E8E8E" width="2" height="2.083"/>
	<rect x="7.083" y="12" fill="#8E8E8E" width="2" height="2.083"/>
	<rect x="10.083" y="12" fill="#8E8E8E" width="2" height="2.083"/>
	<rect x="13.083" y="15" fill="#8E8E8E" width="2" height="2.083"/>
	<rect x="16.083" y="15" fill="#8E8E8E" width="2" height="2.083"/>
	<rect x="19.083" y="15" fill="#8E8E8E" width="2" height="2.083"/>
	<rect x="22.083" y="15" fill="#8E8E8E" width="2" height="2.083"/>
	<rect x="4.083" y="15" fill="#8E8E8E" width="2" height="2.083"/>
	<rect x="7.083" y="15" fill="#8E8E8E" width="2" height="2.083"/>
	<rect x="10.083" y="15" fill="#8E8E8E" width="2" height="2.083"/>
	<rect x="4.083" y="18" fill="#8E8E8E" width="2" height="2.083"/>
	<rect x="7.083" y="18" fill="#8E8E8E" width="2" height="2.083"/>
	<rect x="10.083" y="18" fill="#8E8E8E" width="2" height="2.083"/>
	<rect x="9.083" y="3" fill="#FFFFFF" width="3" height="1"/>
	<rect x="16.083" y="3" fill="#FFFFFF" width="3" height="1"/>
</g>
</svg>
