<?xml version="1.0" encoding="utf-8"?>
<!-- Generator: Adobe Illustrator 16.0.0, SVG Export Plug-In . SVG Version: 6.00 Build 0)  -->
<!DOCTYPE svg PUBLIC "-//W3C//DTD SVG 1.1//EN" "http://www.w3.org/Graphics/SVG/1.1/DTD/svg11.dtd">
<svg version="1.1" id="Layer_1" xmlns="http://www.w3.org/2000/svg" xmlns:xlink="http://www.w3.org/1999/xlink" x="0px" y="0px"
	 width="26px" height="26px" viewBox="0 0 26 26" enable-background="new 0 0 26 26" xml:space="preserve">
<g id="Layer_3">
	<path id="compass-10-icon" fill="#FEBE10" d="M15.749,6.041c0.687-0.642,1.108-1.521,1.108-2.489C16.857,1.594,15.128,0,13,0
		S9.141,1.594,9.141,3.552c0,0.968,0.424,1.847,1.109,2.489c-4.279,1.199-7.418,5.128-7.418,9.791C2.832,21.448,7.385,26,13,26
		s10.168-4.552,10.168-10.168C23.168,11.169,20.029,7.24,15.749,6.041z M13,1.895c1.083,0,1.964,0.744,1.964,1.657
		c0,0.913-0.881,1.657-1.964,1.657s-1.964-0.743-1.964-1.657C11.036,2.638,11.917,1.895,13,1.895z M18.516,21.348
		c-1.474,1.473-3.433,2.284-5.516,2.284c-2.084,0-4.042-0.812-5.515-2.284C6.012,19.874,5.2,17.916,5.2,15.832
		c0-2.083,0.812-4.042,2.285-5.515C8.958,8.844,10.916,8.033,13,8.033c2.083,0,4.042,0.812,5.516,2.285
		c1.474,1.473,2.283,3.432,2.283,5.515S19.986,19.874,18.516,21.348z M10.316,14.086L9.01,11.917l2.174,1.308
		C10.844,13.454,10.549,13.747,10.316,14.086z M14.873,13.265c0.297,0.21,0.559,0.469,0.77,0.764l1.347-2.111L14.873,13.265z
		 M10.345,17.801l-1.334,2.094l2.091-1.332C10.809,18.354,10.553,18.096,10.345,17.801z M14.841,18.604l2.147,1.291l-1.295-2.15
		C15.466,18.08,15.177,18.372,14.841,18.604z M19.636,15.906l-4.567,1.012c-0.199,0.41-0.521,0.752-0.912,0.98L13,22.542
		l-1.155-4.644c-0.394-0.229-0.713-0.57-0.914-0.98l-4.567-1.012l4.567-1.014c0.201-0.41,0.521-0.752,0.914-0.979L13,9.27
		l1.154,4.644c0.394,0.229,0.714,0.57,0.914,0.98L19.636,15.906z M14.031,15.906c0-0.57-0.463-1.031-1.031-1.031
		c-0.57,0-1.031,0.461-1.031,1.031c0,0.568,0.462,1.031,1.031,1.031C13.568,16.938,14.031,16.477,14.031,15.906z"/>
</g>
</svg>
