<?xml version="1.0" encoding="utf-8"?>
<!-- Generator: Adobe Illustrator 16.0.0, SVG Export Plug-In . SVG Version: 6.00 Build 0)  -->
<!DOCTYPE svg PUBLIC "-//W3C//DTD SVG 1.1//EN" "http://www.w3.org/Graphics/SVG/1.1/DTD/svg11.dtd">
<svg version="1.1" id="Layer_1" xmlns="http://www.w3.org/2000/svg" xmlns:xlink="http://www.w3.org/1999/xlink" x="0px" y="0px"
	 width="26px" height="26px" viewBox="0 0 26 26" enable-background="new 0 0 26 26" xml:space="preserve">
<g id="Layer_5">
	<path id="photo-camera-5-icon" fill="#FEBE10" d="M14.218,9.253c-3.451,0-6.257,2.662-6.257,6.112c0,3.449,2.806,6.257,6.257,6.257
		c3.449,0,6.257-2.808,6.257-6.257C20.475,11.915,17.667,9.253,14.218,9.253z M14.218,18.729c-1.855,0-3.364-1.508-3.364-3.362
		s1.509-3.364,3.364-3.364c1.854,0,3.363,1.509,3.363,3.364C17.581,17.221,16.072,18.729,14.218,18.729z M26,6.192v16.85h-7.1
		c1.031-0.651,1.98-1.515,2.662-2.524h1.912V8.716h-1.481c-2.938,0-3.962-2.452-4.396-3.234H10.93
		c-0.825,1.609-1.85,3.234-4.357,3.234H2.524v11.802h4.347c0.682,1.01,1.632,1.871,2.663,2.523H0V6.192h6.573
		c1.489,0,1.833-1.318,2.815-3.234h9.698c1.141,2.06,1.473,3.234,2.907,3.234H26z M7.121,11.509c0-0.714-0.58-1.293-1.294-1.293
		c-0.714,0-1.293,0.579-1.293,1.293c0,0.714,0.579,1.294,1.293,1.294C6.541,12.803,7.121,12.223,7.121,11.509z"/>
</g>
</svg>
