<?xml version="1.0" encoding="utf-8"?>
<!-- Generator: Adobe Illustrator 16.0.0, SVG Export Plug-In . SVG Version: 6.00 Build 0)  -->
<!DOCTYPE svg PUBLIC "-//W3C//DTD SVG 1.1//EN" "http://www.w3.org/Graphics/SVG/1.1/DTD/svg11.dtd">
<svg version="1.1" id="Layer_1" xmlns="http://www.w3.org/2000/svg" xmlns:xlink="http://www.w3.org/1999/xlink" x="0px" y="0px"
	 width="26px" height="26px" viewBox="0 0 26 26" enable-background="new 0 0 26 26" xml:space="preserve">
<g id="Layer_2">
	<g>
		<path fill="#FDBD13" d="M15.959,12.306l1.562-0.902c-0.197-0.562-0.494-1.077-0.875-1.522l-1.568,0.905
			c-0.139-0.128-0.288-0.246-0.453-0.351c-0.238-0.15-0.489-0.26-0.747-0.337v-1.81c-0.284-0.053-0.573-0.082-0.865-0.082
			c-0.303,0-0.601,0.028-0.891,0.082v1.813c-0.438,0.133-0.846,0.366-1.19,0.689L9.364,9.887c-0.149,0.174-0.288,0.359-0.413,0.558
			c-0.193,0.307-0.345,0.631-0.463,0.964l1.566,0.904c-0.106,0.458-0.106,0.929-0.003,1.376l-1.565,0.903
			c0.196,0.562,0.491,1.077,0.873,1.524l1.568-0.906c0.14,0.132,0.293,0.253,0.461,0.357c0.234,0.147,0.481,0.257,0.734,0.334v1.812
			c0.288,0.055,0.581,0.084,0.877,0.084c0.299,0,0.593-0.027,0.879-0.08v-1.812c0.442-0.134,0.854-0.367,1.202-0.692l1.568,0.906
			c0.148-0.176,0.287-0.361,0.414-0.561c0.191-0.307,0.345-0.629,0.463-0.963l-1.566-0.902
			C16.066,13.233,16.064,12.758,15.959,12.306z M14.562,13.986c-0.34,0.539-0.924,0.861-1.563,0.861
			c-0.349,0-0.689-0.099-0.985-0.285c-0.417-0.264-0.707-0.674-0.816-1.154c-0.108-0.481-0.023-0.977,0.24-1.395
			c0.34-0.539,0.924-0.861,1.563-0.861c0.349,0,0.688,0.098,0.985,0.285c0.416,0.263,0.707,0.673,0.814,1.154
			C14.911,13.073,14.826,13.568,14.562,13.986z M20.84,9.488c-0.238-0.533-0.531-1.043-0.878-1.521l0.526-0.305
			c0.421-0.242,0.957-0.099,1.199,0.321s0.1,0.957-0.32,1.2L20.84,9.488z M13,21.593c0.296,0,0.589-0.019,0.879-0.048v0.609
			c0,0.484-0.393,0.879-0.877,0.879c-0.486,0-0.879-0.395-0.879-0.879v-0.611C12.413,21.573,12.706,21.593,13,21.593L13,21.593z
			 M21.688,18.018c-0.242,0.42-0.778,0.563-1.199,0.32l-0.521-0.302c0.106-0.146,0.208-0.297,0.305-0.451
			c0.221-0.349,0.408-0.706,0.572-1.069l0.523,0.303C21.787,17.061,21.932,17.598,21.688,18.018z M5.169,16.508
			c0.237,0.533,0.531,1.043,0.875,1.521l-0.533,0.309c-0.421,0.242-0.958,0.1-1.2-0.32c-0.243-0.42-0.099-0.957,0.321-1.199
			L5.169,16.508z M4.312,7.984c0.243-0.421,0.779-0.564,1.2-0.322l0.534,0.309C5.94,8.117,5.839,8.267,5.742,8.42
			c-0.22,0.349-0.409,0.707-0.573,1.072L4.634,9.184C4.213,8.94,4.069,8.403,4.312,7.984z M13.014,4.412
			c-0.301,0-0.598,0.02-0.892,0.05V3.846c0-0.485,0.393-0.879,0.877-0.879c0.486,0,0.879,0.394,0.879,0.879v0.615
			C13.592,4.432,13.304,4.412,13.014,4.412z M17.234,6.299C13.533,3.964,8.638,5.071,6.303,8.774
			c-2.335,3.703-1.227,8.598,2.476,10.933c3.702,2.335,8.596,1.227,10.932-2.477C22.045,13.527,20.938,8.634,17.234,6.299z
			 M13,18.462c-1.025,0-2.031-0.291-2.905-0.842c-1.233-0.778-2.089-1.989-2.411-3.411c-0.322-1.423-0.071-2.885,0.707-4.118
			c1.006-1.595,2.735-2.548,4.624-2.548c1.026,0,2.031,0.291,2.905,0.843c2.546,1.605,3.311,4.983,1.706,7.528
			C16.618,17.51,14.889,18.462,13,18.462z"/>
		<path fill="#FDBD13" d="M4.239,17.5l0.481,0.835c-0.917,0.703-1.582,1.265-1.896,1.444c-0.381,0.222-0.868,0.091-1.088-0.291
			c-0.22-0.381-0.09-0.867,0.292-1.088C2.341,18.221,3.13,17.953,4.239,17.5z M23.975,7.6c0.381-0.22,0.51-0.707,0.291-1.088
			C24.045,6.13,23.559,6,23.177,6.22c-0.312,0.182-0.979,0.742-1.896,1.445l0.48,0.835C22.871,8.048,23.659,7.781,23.975,7.6z
			 M1.749,6.488c-0.22,0.382-0.09,0.868,0.292,1.089c0.314,0.181,1.132,0.478,2.2,0.919l0.481-0.834
			C3.776,6.928,3.151,6.378,2.837,6.197C2.456,5.977,1.969,6.107,1.749,6.488z M13.484,3.162c0.163-1.187,0.327-2.003,0.327-2.365
			C13.811,0.356,13.455,0,13.014,0s-0.797,0.356-0.797,0.797c0,0.362,0.152,1.22,0.304,2.365H13.484z M12.517,22.838
			c-0.163,1.188-0.326,2.003-0.326,2.366c0,0.44,0.356,0.796,0.796,0.796s0.797-0.355,0.797-0.796c0-0.363-0.152-1.22-0.304-2.366
			H12.517z M23.96,18.424c-0.313-0.182-1.132-0.479-2.2-0.92l-0.48,0.834c0.945,0.734,1.57,1.284,1.885,1.467
			c0.382,0.219,0.868,0.088,1.088-0.293C24.473,19.13,24.341,18.645,23.96,18.424z M13.48,12.238
			c-0.42-0.266-0.977-0.139-1.241,0.281c-0.266,0.421-0.14,0.977,0.281,1.242s0.977,0.14,1.242-0.281
			C14.025,13.061,13.902,12.504,13.48,12.238z"/>
	</g>
</g>
</svg>
