<?xml version="1.0" encoding="utf-8"?>
<!-- Generator: Adobe Illustrator 16.0.0, SVG Export Plug-In . SVG Version: 6.00 Build 0)  -->
<!DOCTYPE svg PUBLIC "-//W3C//DTD SVG 1.1//EN" "http://www.w3.org/Graphics/SVG/1.1/DTD/svg11.dtd">
<svg version="1.1" id="Layer_1" xmlns="http://www.w3.org/2000/svg" xmlns:xlink="http://www.w3.org/1999/xlink" x="0px" y="0px"
	 width="26px" height="26px" viewBox="0 0 26 26" enable-background="new 0 0 26 26" xml:space="preserve">
<g id="_x2014_ÎÓÈ_x5F_1">
	<g>
		<g>
			<path fill="#FEBE10" d="M13,18.663c-0.357,0-0.711,0.004-1.061,0.014v3.162c0.305-0.062,0.669-0.098,1.061-0.098
				c1.062,0,1.924,0.264,1.924,0.59s-0.861,0.59-1.924,0.59c-1.062,0-1.923-0.264-1.923-0.59h-0.862v-3.567
				c-5.257,0.385-9.164,1.836-9.164,3.567C1.051,24.357,6.4,26,13,26c6.602,0,11.949-1.643,11.949-3.669
				C24.949,20.307,19.602,18.663,13,18.663z"/>
		</g>
		<rect x="10.682" fill="#FEBE10" width="0.791" height="22.331"/>
		<polygon fill="#FEBE10" points="19.667,4.095 11.473,6.782 11.473,1.407 		"/>
	</g>
</g>
</svg>
