<?xml version="1.0" encoding="utf-8"?>
<!-- Generator: Adobe Illustrator 16.0.0, SVG Export Plug-In . SVG Version: 6.00 Build 0)  -->
<!DOCTYPE svg PUBLIC "-//W3C//DTD SVG 1.1//EN" "http://www.w3.org/Graphics/SVG/1.1/DTD/svg11.dtd">
<svg version="1.1" id="Layer_1" xmlns="http://www.w3.org/2000/svg" xmlns:xlink="http://www.w3.org/1999/xlink" x="0px" y="0px"
	 width="26px" height="26px" viewBox="0 0 26 26" enable-background="new 0 0 26 26" xml:space="preserve">
<g id="Layer_4">
	<path id="webcam-3-icon" fill="#FEBE10" d="M10.793,10.145c0-1.217,0.99-2.207,2.207-2.207s2.207,0.99,2.207,2.207
		s-0.99,2.208-2.207,2.208S10.793,11.362,10.793,10.145z M2.855,10.145C2.855,4.542,7.397,0,13,0
		c5.604,0,10.145,4.542,10.145,10.145S18.604,20.289,13,20.289C7.397,20.289,2.855,15.747,2.855,10.145z M8.27,10.145
		c0,2.608,2.122,4.729,4.73,4.729c2.607,0,4.73-2.121,4.73-4.729s-2.123-4.73-4.73-4.73C10.392,5.415,8.27,7.537,8.27,10.145z
		 M21.287,23.593l-2.532-2.874c-3.579,1.947-7.917,1.95-11.499,0l-2.532,2.874c-0.969,1.099,0.009,2.58,1.395,2.392
		c1.73-0.236,3.118-1.641,6.886-1.641c3.769,0,5.156,1.403,6.888,1.641C21.277,26.173,22.255,24.689,21.287,23.593z"/>
</g>
</svg>
