<?xml version="1.0" encoding="utf-8"?>
<!-- Generator: Adobe Illustrator 16.0.0, SVG Export Plug-In . SVG Version: 6.00 Build 0)  -->
<!DOCTYPE svg PUBLIC "-//W3C//DTD SVG 1.1//EN" "http://www.w3.org/Graphics/SVG/1.1/DTD/svg11.dtd">
<svg version="1.1" id="Layer_1" xmlns="http://www.w3.org/2000/svg" xmlns:xlink="http://www.w3.org/1999/xlink" x="0px" y="0px"
	 width="184px" height="30px" viewBox="0 0 184 30" enable-background="new 0 0 184 30" xml:space="preserve">
<g>
	<path fill="#FFFFFF" d="M14.857,13.076c0-0.94-0.287-1.198-1.067-1.198h-1.095c-0.129,0-0.182-0.053-0.182-0.158v-0.65
		c0-0.156,0.026-0.21,0.156-0.21c0.365,0,1.538,0.079,3.309,0.079c1.875,0,2.708-0.079,3.074-0.079c0.182,0,0.207,0.079,0.207,0.183
		v0.626c0,0.105-0.025,0.21-0.182,0.21h-1.016c-0.469,0-0.808,0.18-0.808,0.988v3.439c0,0.364,0.105,0.625,0.105,0.833
		s-0.158,0.313-0.417,0.416c-2.11,1.069-4.193,1.669-7.109,1.669c-2.32,0-5.497-0.86-7.294-2.97
		c-1.589-1.798-2.396-4.011-2.396-7.163c0-2.369,1.015-4.896,2.943-6.616C4.934,0.887,7.278,0,10.403,0
		c2.239,0,4.246,0.833,5.132,1.51c0.286,0.234,0.442,0.185,0.599-0.025l0.39-0.47c0.104-0.104,0.208-0.232,0.365-0.232
		c0.182,0,0.235,0.129,0.235,0.311l0.076,4.975c0,0.131-0.026,0.234-0.129,0.234l-0.468,0.051c-0.105,0-0.183-0.078-0.209-0.208
		c-0.209-0.729-0.651-1.953-1.563-3.073c-0.78-0.962-2.396-2.137-4.739-2.137c-1.798,0-3.413,0.443-4.976,2.112
		C3.71,4.533,2.825,6.694,2.825,9.038c0,3.073,0.859,5.757,2.473,7.293c1.303,1.251,2.892,1.85,4.586,1.85
		c2.082,0,3.359-0.364,4.272-0.887c0.598-0.364,0.701-0.937,0.701-2.29V13.076z"/>
	<path fill="#FFFFFF" d="M24.911,7.768c0-1.677,0-3.127-0.023-3.783c-0.022-0.748-0.295-1.133-0.861-1.133h-0.905
		c-0.114,0-0.137-0.068-0.137-0.158V2.127c0-0.113,0.022-0.157,0.137-0.157c0.203,0,0.905,0.066,2.809,0.066
		c1.269,0,3.375-0.066,3.782-0.066c1.881,0,3.375,0.564,4.238,1.382c0.748,0.724,1.178,1.742,1.178,2.583
		c0,2.83-1.292,3.894-4.191,4.531v0.045c0.542,0.203,0.861,0.612,1.043,0.861c0.271,0.293,1.88,2.605,2.061,2.898
		c0.114,0.226,1.564,2.288,1.994,2.606c0.475,0.339,0.997,0.384,1.631,0.384c0.158,0,0.182,0.091,0.182,0.181v0.499
		c0,0.137-0.023,0.204-0.182,0.204c-0.183,0-0.772-0.067-1.768-0.067c-0.655,0-1.495,0.046-1.835,0.067
		c-0.248-0.226-0.747-0.996-0.952-1.29c-0.181-0.275-1.404-2.426-1.518-2.607c-0.09-0.158-1.178-1.788-1.45-2.106
		c-0.589-0.703-1.133-1.313-2.446-1.313c-0.205,0-0.431,0-0.748,0.068v1.269c0,1.338,0.021,3.875,0.045,4.213
		c0.044,0.478,0.227,0.884,0.566,0.884h1.427c0.158,0,0.18,0.069,0.18,0.181v0.499c0,0.16-0.022,0.204-0.249,0.204
		c-0.25,0-0.816-0.067-2.968-0.067c-2.061,0-2.582,0.067-2.831,0.067c-0.182,0-0.182-0.067-0.182-0.183V17.44
		c0-0.111,0-0.181,0.114-0.181h0.928c0.498,0,0.884-0.157,0.884-0.77c0.045-2.244,0.045-4.372,0.045-6.525V7.768z M26.951,10.01
		c0.338,0.07,0.589,0.089,1.018,0.089c4.125,0,4.917-2.829,4.917-3.781c0-1.042-0.476-2.039-1.133-2.581
		c-0.883-0.701-1.88-1.042-3.76-1.042c-0.271,0-0.566,0.044-0.77,0.18c-0.159,0.114-0.272,0.363-0.272,0.727V10.01z"/>
	<path fill="#FFFFFF" d="M44.98,9.4c0.181,0,2.605-0.092,2.878-0.136c0.656-0.115,0.838-0.297,1.042-0.999
		c0.067-0.226,0.158-0.679,0.181-1.108c0-0.112,0.068-0.16,0.159-0.16l0.566,0.022c0.113,0,0.16,0.092,0.137,0.18
		c-0.069,0.387-0.069,2.245-0.069,2.584c0,0.793,0.093,1.881,0.137,2.357c0,0.113-0.044,0.16-0.137,0.18l-0.497,0.069
		c-0.114,0.022-0.16-0.048-0.183-0.203c-0.044-0.296-0.181-0.815-0.25-1.064c-0.135-0.478-0.384-0.816-0.973-0.885
		c-1.065-0.114-2.628-0.114-2.991-0.114v1.406c0,1.222,0.045,3.421,0.045,3.873c0.023,1.177,0.589,1.631,1.291,1.768
		c0.454,0.091,1.111,0.159,1.676,0.159c0.388,0,1.52-0.024,1.995-0.068c0.386-0.047,1.382-0.296,1.971-0.792
		c0.272-0.227,1.541-1.858,1.857-2.381c0.068-0.112,0.137-0.203,0.272-0.136l0.362,0.204c0.113,0.066,0.113,0.137,0.045,0.318
		l-1.2,3.328c-0.068,0.204-0.226,0.341-0.499,0.341c-0.114,0-0.611-0.022-1.971-0.044c-1.359,0-3.557-0.023-7.092-0.023
		c-0.837,0-1.471,0.023-1.924,0.023c-0.477,0.021-0.771,0.044-0.976,0.044c-0.135,0-0.203-0.044-0.203-0.158v-0.61
		c0-0.092,0.068-0.114,0.227-0.114h0.906c1.043,0,1.133-0.159,1.133-0.997v-5.369V8.676c0-1.883-0.045-4.713-0.067-4.939
		c-0.09-0.726-0.318-0.884-1.157-0.884h-0.814c-0.114,0-0.182-0.023-0.182-0.159V2.083c0-0.069,0.046-0.114,0.158-0.114
		c0.499,0,1.292,0.067,2.787,0.067h0.997c2.243,0,4.485-0.022,6.729-0.022c0.362,0,0.793-0.045,0.906-0.045
		c0.114,0,0.159,0.045,0.18,0.114c0.092,0.315,1.088,3.418,1.156,3.646c0.024,0.091,0.024,0.158-0.067,0.204l-0.341,0.181
		C53.114,6.158,53.023,6.092,53,6.045c-0.045-0.09-1.721-2.241-2.266-2.58c-0.475-0.319-1.108-0.592-1.722-0.612l-4.032-0.09V9.4z"
		/>
	<path fill="#FFFFFF" d="M62.309,9.4c0.18,0,2.604-0.092,2.876-0.136c0.657-0.115,0.838-0.297,1.042-0.999
		c0.068-0.226,0.157-0.679,0.18-1.108c0-0.112,0.068-0.16,0.161-0.16l0.566,0.022c0.112,0,0.158,0.092,0.136,0.18
		c-0.069,0.387-0.069,2.245-0.069,2.584c0,0.793,0.091,1.881,0.137,2.357c0,0.113-0.046,0.16-0.137,0.18l-0.496,0.069
		c-0.116,0.022-0.16-0.048-0.183-0.203c-0.046-0.296-0.18-0.815-0.249-1.064c-0.136-0.478-0.384-0.816-0.974-0.885
		c-1.065-0.114-2.628-0.114-2.99-0.114v1.406c0,1.222,0.044,3.421,0.044,3.873c0.023,1.177,0.589,1.631,1.292,1.768
		c0.453,0.091,1.11,0.159,1.676,0.159c0.385,0,1.518-0.024,1.994-0.068c0.387-0.047,1.382-0.296,1.971-0.792
		c0.273-0.227,1.54-1.858,1.857-2.381c0.069-0.112,0.135-0.203,0.271-0.136l0.361,0.204c0.115,0.066,0.115,0.137,0.047,0.318
		l-1.203,3.328c-0.067,0.204-0.224,0.341-0.497,0.341c-0.113,0-0.613-0.022-1.971-0.044c-1.36,0-3.557-0.023-7.09-0.023
		c-0.84,0-1.475,0.023-1.928,0.023c-0.475,0.021-0.77,0.044-0.973,0.044c-0.136,0-0.204-0.044-0.204-0.158v-0.61
		c0-0.092,0.068-0.114,0.226-0.114h0.906c1.044,0,1.133-0.159,1.133-0.997v-5.369V8.676c0-1.883-0.044-4.713-0.068-4.939
		C60.065,3.01,59.84,2.853,59,2.853h-0.815c-0.113,0-0.18-0.023-0.18-0.159V2.083c0-0.069,0.044-0.114,0.158-0.114
		c0.498,0,1.29,0.067,2.785,0.067h0.999c2.24,0,4.484-0.022,6.728-0.022c0.361,0,0.792-0.045,0.904-0.045
		c0.115,0,0.161,0.045,0.183,0.114c0.091,0.315,1.087,3.418,1.156,3.646c0.022,0.091,0.022,0.158-0.069,0.204l-0.34,0.181
		c-0.067,0.044-0.16-0.022-0.182-0.069c-0.044-0.09-1.72-2.241-2.264-2.58c-0.477-0.319-1.111-0.592-1.721-0.612l-4.033-0.09V9.4z"
		/>
	<path fill="#FFFFFF" d="M77.303,4.981c0-1.337-0.68-2.085-1.495-2.108l-0.931-0.021c-0.112,0-0.135-0.09-0.135-0.159V2.103
		c0-0.088,0.022-0.134,0.135-0.134c0.114,0,0.295,0.022,0.635,0.022c0.34,0.023,0.84,0.045,1.609,0.045
		c0.771,0,1.248-0.045,1.518-0.045c0.293,0,0.475,0.092,0.658,0.295c0.113,0.135,4.507,5.845,4.757,6.162
		c0.25,0.316,4.077,5.006,4.621,5.73h0.093v-2.695c0-2.015-0.022-3.126-0.069-4.258c-0.023-0.884-0.136-3.104-0.271-3.489
		c-0.181-0.566-0.613-0.884-1.247-0.884h-0.724c-0.091,0-0.138-0.045-0.138-0.159V2.103c0-0.088,0.047-0.134,0.138-0.134
		c0.316,0,1.04,0.067,2.49,0.067c1.359,0,1.902-0.067,2.197-0.067c0.158,0,0.182,0.067,0.182,0.158v0.567
		c0,0.09-0.045,0.159-0.135,0.159h-0.612c-0.612,0-0.839,0.384-0.884,1.245c-0.089,1.519-0.089,3.762-0.089,5.233v8.473
		c0,0.318-0.024,0.544-0.116,0.544c-0.271,0-0.475-0.271-0.543-0.361c-0.021-0.046-1.359-1.722-2.763-3.489
		c-1.586-1.971-3.241-4.057-3.375-4.19c-0.251-0.226-4.419-5.459-4.555-5.642H78.12v5.029c0,2.107,0.181,5.801,0.225,6.252
		c0.091,0.885,0.227,1.315,0.839,1.315h0.68c0.158,0,0.181,0.068,0.181,0.204v0.497c0,0.138-0.023,0.182-0.181,0.182
		c-0.226,0-1.588-0.067-2.197-0.067c-0.477,0-2.039,0.067-2.265,0.067c-0.092,0-0.114-0.044-0.114-0.158v-0.589
		c0-0.067,0.022-0.136,0.135-0.136h0.771c0.659,0,0.906-0.272,1.02-1.381c0.045-0.434,0.091-3.015,0.091-7.047V4.981z"/>
	<path fill="#FFFFFF" d="M102.131,15.13h0.044c0.089-0.384,3.466-10.058,3.558-11.009c0.021-0.182-0.137-0.568-0.34-0.839
		c-0.203-0.271-0.499-0.429-0.908-0.429h-0.564c-0.113,0-0.137-0.044-0.137-0.182V2.127c0-0.091,0.023-0.157,0.158-0.157
		c0.205,0,0.998,0.066,2.764,0.066c1.902,0,2.764-0.066,2.992-0.066c0.135,0,0.158,0.066,0.158,0.157v0.567
		c0,0.09-0.023,0.158-0.158,0.158h-0.907c-0.565,0-0.769,0.5-0.634,0.905l3.535,11.373h0.043c0.25-0.724,3.535-10.283,3.535-11.577
		c0-0.361-0.182-0.701-0.793-0.701h-0.612c-0.136,0-0.158-0.068-0.158-0.205V2.127c0-0.091,0.022-0.157,0.181-0.157
		c0.227,0,1.02,0.066,2.424,0.066c1.268,0,1.926-0.066,2.107-0.066c0.135,0,0.16,0.044,0.16,0.157v0.567c0,0.09,0,0.158-0.16,0.158
		h-0.543c-0.385,0-0.703,0.249-0.908,0.613c-0.179,0.316-4.916,13.389-5.367,14.475c-0.114,0.249-0.227,0.589-0.477,0.589
		c-0.271,0-0.383-0.182-0.499-0.5l-4.19-12.435h-0.046c-0.202,0.612-4.327,12.256-4.462,12.506
		c-0.113,0.227-0.249,0.429-0.453,0.429c-0.183,0-0.317-0.09-0.406-0.362L96.012,3.668c-0.225-0.633-0.543-0.816-0.974-0.816h-0.771
		c-0.113,0-0.138-0.089-0.138-0.182V2.127c0-0.113,0.024-0.157,0.183-0.157c0.181,0,0.885,0.066,2.425,0.066
		c1.634,0,2.561-0.066,2.788-0.066c0.158,0,0.18,0.066,0.18,0.133V2.67c0,0.114-0.021,0.182-0.18,0.182h-0.387
		c-0.59,0-0.793,0.318-0.655,0.816L102.131,15.13z"/>
	<path fill="#FFFFFF" d="M123.285,16.942c-1.609-0.974-3.328-3.42-3.328-6.728c0-1.381,0.359-3.533,2.105-5.64
		c1.994-2.423,4.235-2.876,6.139-2.876c1.428,0,3.285,0.293,5.075,1.789c1.652,1.428,3.104,3.646,3.104,6.773
		c0,1.656-0.523,3.376-1.701,4.963c-1.381,1.835-3.398,3.192-6.524,3.192C127.045,18.415,125.074,18.054,123.285,16.942
		 M134.16,10.439c0-4.959-3.535-7.881-6.051-7.881c-0.338,0-1.879-0.272-3.576,1.335c-1.521,1.451-2.27,3.738-2.27,5.594
		c0,5.958,4.146,8.066,6.072,8.066C133.32,17.554,134.16,12.458,134.16,10.439"/>
	<path fill="#FFFFFF" d="M142.561,16.942c-1.607-0.974-3.328-3.42-3.328-6.728c0-1.381,0.36-3.533,2.107-5.64
		c1.992-2.423,4.234-2.876,6.139-2.876c1.426,0,3.283,0.293,5.074,1.789c1.652,1.428,3.102,3.646,3.102,6.773
		c0,1.656-0.52,3.376-1.699,4.963c-1.379,1.835-3.396,3.192-6.522,3.192C146.32,18.415,144.35,18.054,142.561,16.942
		 M153.436,10.439c0-4.959-3.533-7.881-6.05-7.881c-0.339,0-1.881-0.272-3.579,1.335c-1.518,1.451-2.264,3.738-2.264,5.594
		c0,5.958,4.145,8.066,6.068,8.066C152.596,17.554,153.436,12.458,153.436,10.439"/>
	<path fill="#FFFFFF" d="M161.823,6.875c0-0.676-0.079-4.373-0.13-4.817c-0.076-0.626-0.418-0.729-1.121-0.729h-1.43
		c-0.132,0-0.208-0.026-0.208-0.183V0.442c0-0.104,0.076-0.13,0.181-0.13c0.34,0,1.484,0.079,3.828,0.079
		c0.676,0,3.281-0.079,3.881-0.079c3.36,0,6.174,0.391,8.465,2.344c1.692,1.458,2.894,3.62,2.894,6.642
		c0,2.996-0.861,4.975-2.581,6.852c-2.502,2.761-6.094,2.761-8.1,2.761c-1.642,0-3.621-0.079-4.794-0.079
		c-2.267,0-3.306,0.079-3.671,0.079c-0.132,0-0.184-0.053-0.184-0.183V18.05c0-0.104,0.081-0.158,0.21-0.158h1.745
		c0.496,0,0.78-0.206,0.833-0.622c0.076-0.549,0.182-6.41,0.182-8.441V6.875z M164.22,9.403c0,0.34,0.026,4.766,0.053,6.38
		c0,0.521,0.104,0.938,0.44,1.459c0.421,0.549,1.463,0.834,2.762,0.834c2.658,0,4.819-1.146,6.123-2.814
		c1.094-1.353,1.9-3.487,1.9-5.859c0-2.032-0.887-4.377-2.137-5.755c-1.354-1.485-3.646-2.502-6.537-2.502
		c-0.572,0-1.641,0-2.083,0.262c-0.364,0.232-0.469,0.65-0.495,1.224c-0.026,1.094-0.026,4.507-0.026,4.923V9.403z"/>
	<path fill="#FFFFFF" d="M32.267,29.734C32.007,29.863,31.489,30,30.824,30c-1.539,0-2.698-0.979-2.698-2.77
		c0-1.709,1.16-2.869,2.852-2.869c0.682,0,1.109,0.146,1.296,0.243l-0.17,0.576c-0.268-0.133-0.647-0.229-1.101-0.229
		c-1.281,0-2.131,0.819-2.131,2.255c0,1.336,0.77,2.195,2.099,2.195c0.428,0,0.866-0.09,1.15-0.228L32.267,29.734z"/>
	<path fill="#FFFFFF" d="M38.208,27.919c0,1.449-1.004,2.081-1.953,2.081c-1.061,0-1.88-0.778-1.88-2.017
		c0-1.313,0.859-2.082,1.945-2.082C37.445,25.901,38.208,26.719,38.208,27.919 M35.097,27.958c0,0.858,0.494,1.508,1.191,1.508
		c0.681,0,1.189-0.643,1.189-1.523c0-0.665-0.332-1.507-1.173-1.507C35.461,26.436,35.097,27.213,35.097,27.958"/>
	<path fill="#FFFFFF" d="M40.729,27.053c0-0.407-0.007-0.738-0.031-1.062h0.623l0.032,0.631h0.026c0.22-0.371,0.583-0.72,1.231-0.72
		c0.535,0,0.94,0.324,1.11,0.784h0.015c0.122-0.217,0.275-0.387,0.438-0.511c0.235-0.177,0.494-0.273,0.868-0.273
		c0.518,0,1.288,0.341,1.288,1.7v2.309h-0.697v-2.218c0-0.754-0.275-1.208-0.851-1.208c-0.405,0-0.721,0.3-0.842,0.647
		c-0.033,0.099-0.057,0.227-0.057,0.355v2.423h-0.697v-2.349c0-0.623-0.274-1.077-0.818-1.077c-0.446,0-0.768,0.356-0.883,0.713
		c-0.04,0.104-0.056,0.226-0.056,0.348v2.365h-0.698V27.053z"/>
	<path fill="#FFFFFF" d="M49.111,27.053c0-0.407-0.007-0.738-0.032-1.062h0.624l0.032,0.631h0.025
		c0.219-0.371,0.583-0.72,1.232-0.72c0.534,0,0.94,0.324,1.11,0.784h0.015c0.123-0.217,0.276-0.387,0.438-0.511
		c0.235-0.177,0.494-0.273,0.867-0.273c0.519,0,1.288,0.341,1.288,1.7v2.309h-0.697v-2.218c0-0.754-0.274-1.208-0.85-1.208
		c-0.406,0-0.721,0.3-0.844,0.647c-0.032,0.099-0.056,0.227-0.056,0.355v2.423h-0.695v-2.349c0-0.623-0.277-1.077-0.82-1.077
		c-0.447,0-0.77,0.356-0.882,0.713c-0.042,0.104-0.058,0.226-0.058,0.348v2.365h-0.698V27.053z"/>
	<path fill="#FFFFFF" d="M60.773,28.84c0,0.405,0.007,0.762,0.032,1.071h-0.631l-0.04-0.639h-0.018
		C59.931,29.587,59.518,30,58.82,30c-0.614,0-1.353-0.341-1.353-1.719v-2.292h0.713v2.172c0,0.744,0.227,1.248,0.875,1.248
		c0.478,0,0.811-0.331,0.94-0.648c0.04-0.106,0.062-0.235,0.062-0.364v-2.407h0.714V28.84z"/>
	<path fill="#FFFFFF" d="M63.579,27.053c0-0.407-0.007-0.738-0.032-1.062h0.633l0.04,0.647h0.017
		c0.194-0.374,0.647-0.736,1.296-0.736c0.543,0,1.386,0.324,1.386,1.669v2.34h-0.713v-2.259c0-0.633-0.235-1.159-0.908-1.159
		c-0.47,0-0.834,0.333-0.956,0.729c-0.032,0.088-0.049,0.209-0.049,0.333v2.355h-0.714V27.053z"/>
	<path fill="#FFFFFF" d="M70.494,24.889c0.008,0.242-0.17,0.437-0.452,0.437c-0.252,0-0.432-0.194-0.432-0.437
		c0-0.25,0.187-0.446,0.445-0.446C70.324,24.442,70.494,24.639,70.494,24.889 M69.7,25.99h0.713v3.921H69.7V25.99z"/>
	<path fill="#FFFFFF" d="M74.077,25.049v0.941h1.02v0.542h-1.02v2.114c0,0.487,0.136,0.763,0.535,0.763
		c0.192,0,0.306-0.015,0.412-0.049l0.032,0.533C74.918,29.952,74.701,30,74.426,30c-0.331,0-0.6-0.114-0.771-0.31
		c-0.203-0.207-0.275-0.557-0.275-1.019v-2.14h-0.606V25.99h0.606v-0.722L74.077,25.049z"/>
	<path fill="#FFFFFF" d="M78.316,24.889c0.007,0.242-0.172,0.437-0.455,0.437c-0.25,0-0.428-0.194-0.428-0.437
		c0-0.25,0.186-0.446,0.444-0.446C78.145,24.442,78.316,24.639,78.316,24.889 M77.522,25.99h0.712v3.921h-0.712V25.99z"/>
	<path fill="#FFFFFF" d="M81.436,28.079c0.019,0.966,0.633,1.361,1.346,1.361c0.51,0,0.818-0.086,1.085-0.202l0.12,0.51
		C83.737,29.863,83.309,30,82.685,30c-1.208,0-1.93-0.802-1.93-1.985c0-1.183,0.7-2.113,1.841-2.113
		c1.279,0,1.619,1.126,1.619,1.846c0,0.145-0.017,0.261-0.024,0.332H81.436z M83.527,27.569c0.008-0.453-0.187-1.157-0.989-1.157
		c-0.722,0-1.037,0.663-1.093,1.157H83.527z"/>
	<path fill="#FFFFFF" d="M86.624,29.182c0.21,0.138,0.585,0.285,0.94,0.285c0.519,0,0.76-0.26,0.76-0.584
		c0-0.341-0.2-0.527-0.728-0.722c-0.704-0.249-1.037-0.641-1.037-1.108c0-0.634,0.51-1.151,1.353-1.151
		c0.398,0,0.745,0.115,0.965,0.242l-0.179,0.518c-0.153-0.095-0.437-0.226-0.803-0.226c-0.421,0-0.655,0.242-0.655,0.536
		c0,0.322,0.234,0.467,0.746,0.664c0.68,0.257,1.027,0.599,1.027,1.181c0,0.688-0.533,1.184-1.464,1.184
		c-0.431,0-0.828-0.114-1.102-0.274L86.624,29.182z"/>
	<path fill="#FFFFFF" d="M97.645,28.97c0,0.342,0.018,0.674,0.066,0.941h-0.648l-0.056-0.492h-0.024
		C96.766,29.725,96.342,30,95.785,30c-0.795,0-1.201-0.56-1.201-1.126c0-0.947,0.844-1.467,2.357-1.459v-0.08
		c0-0.323-0.092-0.908-0.89-0.908c-0.368,0-0.745,0.114-1.022,0.292l-0.162-0.469c0.326-0.212,0.795-0.349,1.289-0.349
		c1.197,0,1.488,0.817,1.488,1.604V28.97z M96.957,27.912c-0.776-0.02-1.66,0.119-1.66,0.882c0,0.46,0.309,0.68,0.673,0.68
		c0.511,0,0.833-0.324,0.949-0.657c0.022-0.071,0.038-0.151,0.038-0.225V27.912z"/>
	<path fill="#FFFFFF" d="M100.42,27.053c0-0.407-0.009-0.738-0.032-1.062h0.632l0.042,0.647h0.015
		c0.195-0.374,0.648-0.736,1.297-0.736c0.541,0,1.385,0.324,1.385,1.669v2.34h-0.715v-2.259c0-0.633-0.234-1.159-0.904-1.159
		c-0.471,0-0.837,0.333-0.955,0.729c-0.037,0.088-0.051,0.209-0.051,0.333v2.355h-0.713V27.053z"/>
	<path fill="#FFFFFF" d="M109.926,24.159v4.738c0,0.348,0.007,0.746,0.031,1.013h-0.639l-0.031-0.68h-0.018
		c-0.219,0.439-0.696,0.77-1.336,0.77c-0.947,0-1.678-0.802-1.678-1.992c-0.008-1.306,0.803-2.106,1.758-2.106
		c0.6,0,1.004,0.283,1.182,0.6h0.018v-2.342H109.926z M109.213,27.585c0-0.09-0.008-0.209-0.031-0.298
		c-0.105-0.455-0.494-0.829-1.03-0.829c-0.735,0-1.175,0.65-1.175,1.517c0,0.794,0.389,1.449,1.158,1.449
		c0.479,0,0.916-0.316,1.047-0.85c0.023-0.096,0.031-0.194,0.031-0.308V27.585z"/>
	<path fill="#FFFFFF" d="M116.098,24.524c0.355-0.074,0.865-0.114,1.35-0.114c0.754,0,1.24,0.139,1.582,0.445
		c0.277,0.243,0.43,0.615,0.43,1.037c0,0.722-0.456,1.199-1.03,1.395v0.022c0.423,0.146,0.673,0.535,0.802,1.104
		c0.178,0.761,0.309,1.288,0.423,1.497h-0.731c-0.086-0.162-0.209-0.624-0.363-1.303c-0.16-0.754-0.452-1.038-1.092-1.062h-0.666
		v2.364h-0.703V24.524z M116.801,27.012h0.721c0.754,0,1.23-0.413,1.23-1.037c0-0.706-0.508-1.013-1.255-1.023
		c-0.34,0-0.583,0.034-0.696,0.065V27.012z"/>
	<path fill="#FFFFFF" d="M122.483,28.079c0.017,0.966,0.632,1.361,1.345,1.361c0.51,0,0.817-0.086,1.086-0.202l0.121,0.51
		c-0.25,0.115-0.68,0.252-1.305,0.252c-1.207,0-1.93-0.802-1.93-1.985c0-1.183,0.699-2.113,1.842-2.113
		c1.279,0,1.619,1.126,1.619,1.846c0,0.145-0.018,0.261-0.024,0.332H122.483z M124.574,27.569c0.008-0.453-0.188-1.157-0.989-1.157
		c-0.721,0-1.037,0.663-1.095,1.157H124.574z"/>
	<path fill="#FFFFFF" d="M127.67,29.182c0.211,0.138,0.585,0.285,0.941,0.285c0.52,0,0.762-0.26,0.762-0.584
		c0-0.341-0.201-0.527-0.729-0.722c-0.706-0.249-1.037-0.641-1.037-1.108c0-0.634,0.51-1.151,1.354-1.151
		c0.396,0,0.742,0.115,0.964,0.242l-0.181,0.518c-0.152-0.095-0.436-0.226-0.801-0.226c-0.424,0-0.656,0.242-0.656,0.536
		c0,0.322,0.232,0.467,0.746,0.664c0.681,0.257,1.027,0.599,1.027,1.181c0,0.688-0.533,1.184-1.467,1.184
		c-0.428,0-0.826-0.114-1.101-0.274L127.67,29.182z"/>
	<path fill="#FFFFFF" d="M136.146,27.919c0,1.449-1.006,2.081-1.951,2.081c-1.062,0-1.881-0.778-1.881-2.017
		c0-1.313,0.861-2.082,1.945-2.082C135.386,25.901,136.146,26.719,136.146,27.919 M133.036,27.958c0,0.858,0.493,1.508,1.189,1.508
		c0.683,0,1.192-0.643,1.192-1.523c0-0.665-0.334-1.507-1.175-1.507C133.4,26.436,133.036,27.213,133.036,27.958"/>
	<path fill="#FFFFFF" d="M138.67,27.213c0-0.46-0.006-0.857-0.031-1.223h0.623l0.025,0.77h0.03c0.179-0.527,0.609-0.858,1.087-0.858
		c0.082,0,0.138,0.008,0.203,0.025v0.672c-0.074-0.016-0.147-0.025-0.246-0.025c-0.5,0-0.856,0.38-0.955,0.914
		c-0.016,0.098-0.033,0.212-0.033,0.334v2.089h-0.703V27.213z"/>
	<path fill="#FFFFFF" d="M143.994,25.049v0.941h1.021v0.542h-1.021v2.114c0,0.487,0.14,0.763,0.535,0.763
		c0.195,0,0.308-0.015,0.413-0.049l0.03,0.533c-0.136,0.059-0.355,0.106-0.629,0.106c-0.333,0-0.602-0.114-0.77-0.31
		c-0.202-0.207-0.275-0.557-0.275-1.019v-2.14h-0.607V25.99h0.607v-0.722L143.994,25.049z"/>
	<path fill="#FFFFFF" d="M147.344,29.182c0.211,0.138,0.584,0.285,0.939,0.285c0.518,0,0.762-0.26,0.762-0.584
		c0-0.341-0.201-0.527-0.729-0.722c-0.705-0.249-1.039-0.641-1.039-1.108c0-0.634,0.512-1.151,1.352-1.151
		c0.397,0,0.748,0.115,0.967,0.242l-0.18,0.518c-0.154-0.095-0.437-0.226-0.801-0.226c-0.421,0-0.658,0.242-0.658,0.536
		c0,0.322,0.237,0.467,0.747,0.664c0.681,0.257,1.028,0.599,1.028,1.181c0,0.688-0.533,1.184-1.465,1.184
		c-0.43,0-0.828-0.114-1.104-0.274L147.344,29.182z"/>
	<polygon fill="#FFFFFF" points="178.71,15.882 177.67,15.882 177.67,15.506 180.201,15.506 180.201,15.882 179.156,15.882 
		179.156,18.927 178.71,18.927 	"/>
	<path fill="#FFFFFF" d="M183.34,17.422c-0.025-0.471-0.055-1.053-0.055-1.475h-0.011c-0.123,0.396-0.259,0.832-0.434,1.3
		l-0.603,1.659h-0.334l-0.561-1.63c-0.16-0.481-0.293-0.924-0.39-1.329h-0.009c-0.012,0.427-0.035,1-0.066,1.513l-0.092,1.467
		h-0.422l0.24-3.421h0.562l0.583,1.653c0.144,0.423,0.253,0.803,0.345,1.158h0.01c0.092-0.345,0.215-0.726,0.366-1.158l0.609-1.653
		h0.562l0.214,3.421h-0.437L183.34,17.422z"/>
</g>
</svg>
