<?xml version="1.0" encoding="utf-8"?>
<!-- Generator: Adobe Illustrator 16.0.0, SVG Export Plug-In . SVG Version: 6.00 Build 0)  -->
<!DOCTYPE svg PUBLIC "-//W3C//DTD SVG 1.1//EN" "http://www.w3.org/Graphics/SVG/1.1/DTD/svg11.dtd">
<svg version="1.1" id="Layer_1" xmlns="http://www.w3.org/2000/svg" xmlns:xlink="http://www.w3.org/1999/xlink" x="0px" y="0px"
	 width="262px" height="32px" viewBox="0 0 262 32" enable-background="new 0 0 262 32" xml:space="preserve">
<g>
	<g>
		<rect x="2.965" y="3.283" fill="#FFFFFF" width="25.333" height="26.133"/>
		<path id="facebook-square-icon_1_" fill="#3C5B99" d="M-0.264,0.083v32h32v-32H-0.264z M20.998,8.678c0,0-1.777,0-2.484,0
			c-0.877,0-1.059,0.359-1.059,1.267c0,0.755,0,2.193,0,2.193h3.543l-0.34,3.848h-3.203v11.499h-4.592v-11.45h-2.387v-3.897h2.387
			c0,0,0-0.561,0-3.07c0-2.88,1.541-4.384,4.958-4.384c0.56,0,3.178,0,3.178,0L20.998,8.678L20.998,8.678z"/>
	</g>
	<g>
		<rect x="41.899" y="3.105" fill="#FFFFFF" width="25.422" height="25.601"/>
		<path id="twitter-2-icon_1_" fill="#29AAE1" d="M38.699,0.083v32h32v-32H38.699z M63.626,12.287
			c0.276,6.141-4.303,12.986-12.408,12.986c-2.466,0-4.761-0.723-6.693-1.961c2.315,0.272,4.628-0.369,6.463-1.809
			c-1.91-0.035-3.523-1.297-4.078-3.031c0.685,0.131,1.357,0.092,1.972-0.074c-2.1-0.422-3.55-2.313-3.502-4.336
			c0.589,0.327,1.262,0.523,1.977,0.546c-1.943-1.299-2.494-3.867-1.351-5.829c2.153,2.641,5.37,4.38,8.999,4.562
			c-0.637-2.731,1.435-5.36,4.252-5.36c1.256,0,2.391,0.53,3.188,1.378C63.44,9.163,64.373,8.8,65.216,8.3
			c-0.326,1.019-1.018,1.875-1.919,2.415c0.883-0.105,1.725-0.34,2.508-0.688C65.22,10.902,64.479,11.671,63.626,12.287z"/>
	</g>
	<g>
		<rect x="79.499" y="1.95" fill="#FFFFFF" width="26.933" height="27.466"/>
		<path id="youtube-2-icon_1_" fill="#CC1E28" d="M95.743,19.1c-0.403,0-0.75,0.256-1.004,0.565v-2.649h-1.14v8.232h1.14v-0.467
			c0.315,0.393,0.66,0.543,1.073,0.543c0.751,0,1.032-0.583,1.032-1.335V20.62C96.843,19.797,96.57,19.1,95.743,19.1z
			 M95.681,23.824c0,0.193-0.033,0.334-0.098,0.419c-0.124,0.163-0.394,0.155-0.578,0.062c-0.085-0.044-0.175-0.113-0.267-0.213
			v-3.785c0.076-0.082,0.154-0.146,0.232-0.185c0.198-0.101,0.453-0.081,0.589,0.101c0.081,0.105,0.121,0.262,0.121,0.467
			L95.681,23.824L95.681,23.824z M91.368,19.175h1.129v6.073h-1.129v-0.67c-0.208,0.246-0.425,0.436-0.649,0.564
			c-0.609,0.348-1.444,0.34-1.444-0.893v-5.076h1.129v4.655c0,0.244,0.06,0.409,0.301,0.409c0.22,0,0.526-0.282,0.664-0.454
			L91.368,19.175L91.368,19.175z M89.29,18.21h-1.316v7.038h-1.271V18.21h-1.315v-1.194h3.902V18.21L89.29,18.21z M91.878,11.882
			V8.917c0-0.349,0.161-0.608,0.494-0.608c0.364,0,0.519,0.251,0.519,0.608v2.966c0,0.347-0.177,0.604-0.496,0.604
			C92.067,12.486,91.878,12.218,91.878,11.882z M77.099,0.083v32h32v-32H77.099z M95.106,7.151h1.186v4.888
			c0,0.256,0.062,0.43,0.315,0.43c0.231,0,0.552-0.297,0.697-0.478v-4.84h1.185v6.376h-1.185v-0.704
			c-0.514,0.609-1.012,0.796-1.37,0.796c-0.635,0-0.828-0.51-0.828-1.139V7.151L95.106,7.151z M92.395,7.098
			c0.961,0,1.704,0.715,1.704,1.713v3.125c0,1.071-0.75,1.709-1.704,1.709c-1.15,0-1.737-0.585-1.737-1.709V8.811
			C90.658,7.788,91.351,7.098,92.395,7.098z M87.586,4.883l0.92,3.456l0.855-3.456h1.357l-1.554,5.138v3.506H87.83v-3.506
			l-1.588-5.138H87.586z M102.804,24.564c0,1.502-1.217,2.719-2.718,2.719H86.111c-1.501,0-2.718-1.217-2.718-2.719v-6.869
			c0-1.5,1.217-2.717,2.718-2.717h13.975c1.501,0,2.718,1.217,2.718,2.717V24.564z M99.409,19.021c-1.018,0-1.714,0.731-1.714,1.785
			v2.728c0,1.093,0.551,1.878,1.629,1.878c1.191,0,1.693-0.708,1.693-1.878v-0.456h-1.163V23.5c0,0.529-0.027,0.85-0.504,0.85
			c-0.456,0-0.493-0.395-0.493-0.85v-1.146h2.16v-1.545C101.017,19.71,100.493,19.021,99.409,19.021z M99.854,21.411h-0.997v-0.614
			c0-0.418,0.085-0.712,0.504-0.712c0.406,0,0.493,0.301,0.493,0.712V21.411z"/>
	</g>
	<g>
		<rect x="117.899" y="2.216" fill="#FFFFFF" width="26.933" height="27.2"/>
		<path id="rss-square-icon_1_" fill="#DD6425" d="M115.499,0.083v32h32v-32H115.499z M123.344,27.283
			c-1.674,0-3.03-1.357-3.03-3.031s1.356-3.031,3.03-3.031c1.674,0,3.031,1.357,3.031,3.031S125.018,27.283,123.344,27.283z
			 M130.587,27.283c-0.057-5.641-4.634-10.217-10.273-10.275v-4.49c8.129,0.058,14.706,6.636,14.765,14.765H130.587z
			 M138.193,27.283c-0.014-4.778-1.879-9.27-5.26-12.649c-3.375-3.374-7.854-5.24-12.621-5.26V4.883
			c12.346,0.043,22.344,10.051,22.373,22.4H138.193z"/>
	</g>
	<g>
		<rect x="153.791" y="-0.083" fill="#FFFFFF" width="32" height="32"/>
		<path id="google-plus-square-icon_1_" fill="#CC1E28" d="M170.447,22.583c0,1.966-1.598,3.502-4.901,3.502
			c-2.585,0-4.452-1.637-4.452-3.603c0-1.926,2.191-3.588,4.775-3.561C168.736,18.923,170.447,20.709,170.447,22.583z
			 M185.791-0.083v32h-32v-32H185.791z M172.674,22.354c0-1.813-0.678-3-2.729-4.535c-2.079-1.518-2.588-2.375-0.604-3.907
			c1.118-0.865,1.902-2.018,1.902-3.441c0-1.55-0.635-2.957-1.826-3.64h1.689l1.438-1.51c0,0-5.422,0-6.438,0
			c-4.019,0-5.988,2.409-5.988,5.058c0,2.708,1.857,4.841,5.484,4.841c-0.562,1.135-0.336,2.184,0.584,2.934
			c-6.195,0-7.521,2.719-7.521,4.812c0,2.713,3.118,4.325,6.857,4.325C170.641,27.29,172.674,24.58,172.674,22.354z M181.068,8.587
			H178.1v-2.97h-1.486v2.97h-2.969v1.484h2.969v2.971h1.486v-2.971h2.969V8.587L181.068,8.587z M168.658,10.567
			c-0.299-2.279-1.783-4.148-3.518-4.2c-1.736-0.052-2.898,1.692-2.6,3.971c0.299,2.279,1.947,3.87,3.684,3.923
			C167.959,14.312,168.958,12.846,168.658,10.567z"/>
	</g>
	<g>
		<rect x="192.426" y="-0.083" fill="#FFFFFF" width="32" height="32"/>
		<g>
			<g>
				<g>
					<g>
						<path fill="#FDBD10" d="M215.122,20.917c2.175-1.879,3.552-4.654,3.552-7.752c0-5.66-4.589-10.248-10.248-10.248
							c-5.66,0-10.246,4.588-10.246,10.248c0,3.093,1.372,5.865,3.539,7.743c2.014-0.325,4.276-0.51,6.676-0.51
							C210.812,20.398,213.098,20.586,215.122,20.917z"/>
					</g>
				</g>
			</g>
			<path fill="#FFFFFF" d="M212.923,11.818c0,0-2.618-0.491-4.371-0.555c0.003-0.009,0.005-0.019,0.009-0.028
				c1.472-0.171,3.666-0.521,4.162-1.129c0,0-2.408,0.291-4.101,0.723c0-0.012,0.002-0.022,0.002-0.035c0-0.001,0-0.005,0-0.007
				c1.608-0.597,3.938-1.593,4.321-2.474c0,0-2.629,0.985-4.412,1.963c-0.001-0.007-0.004-0.012-0.006-0.018
				c1.425-1.183,3.509-3.103,3.547-4.24c0,0-2.407,2.027-3.844,3.72c1.098-1.571,2.611-4,2.35-5.127c0,0-1.868,2.696-2.844,4.779
				l-0.006-0.004c0.506-1.764,1.045-4.184,0.498-5.08c0,0-0.812,2.76-1.117,4.933c0,0-0.002-0.001-0.004-0.001
				c-0.457-2.136-1.434-4.777-1.434-4.777c-0.475,0.903,0.176,3.182,0.786,4.897c-0.003,0.001-0.008,0.003-0.013,0.006
				c-1.026-1.937-2.715-4.234-2.715-4.234c-0.211,1.015,1.086,3.076,2.158,4.562c-1.5-1.634-3.88-3.519-3.88-3.519
				c0.069,1.111,2.136,2.924,3.597,4.073c-0.002,0.004-0.004,0.009-0.004,0.012c-1.787-0.943-4.248-1.86-4.248-1.86
				c0.369,0.846,2.545,1.798,4.151,2.401c0,0.006,0.001,0.011,0.001,0.017c-1.681-0.399-3.887-0.663-3.887-0.663
				c0.475,0.575,2.484,0.92,3.955,1.1c0.002,0.008,0.004,0.014,0.008,0.02c-1.764,0.08-4.297,0.552-4.297,0.552
				c0.461,0.302,1.691,0.231,2.893,0.064c-0.011,0.075-0.029,0.208-0.05,0.379c-0.354,0.151-0.69,0.301-0.995,0.44
				c-0.182-0.365-0.312-0.608-0.312-0.608c-0.066,0.18-0.044,0.441,0.028,0.739c-0.218,0.103-0.41,0.193-0.562,0.265
				c-0.272-0.298-0.466-0.496-0.466-0.496c-0.012,0.174,0.062,0.392,0.191,0.629c-0.07,0.034-0.111,0.054-0.111,0.054
				c0.049,0.014,0.102,0.025,0.158,0.03c0.297,0.514,0.817,1.109,1.271,1.581c-0.938-0.766-2.359-1.597-2.359-1.597
				c0.121,0.596,1.381,1.417,2.258,1.925c0,0.003,0,0.006-0.002,0.009c-1.037-0.374-2.44-0.681-2.44-0.681
				c0.267,0.429,1.515,0.776,2.431,0.979c0,0.003,0,0.006,0.002,0.009c-0.939-0.087-2.152-0.061-2.152-0.061
				c0.302,0.275,1.416,0.306,2.227,0.291c0.001,0.004,0.003,0.008,0.006,0.01c-0.947,0.178-2.285,0.629-2.285,0.629
				c0.4,0.187,1.631-0.186,2.397-0.452c0.001,0.001,0.002,0.003,0.003,0.005c-0.854,0.436-1.954,1.191-1.954,1.191
				c0.419,0.067,1.437-0.572,2.104-1.036l0.187,0.241c0,0,0.493,0.791,0.543,1.354l0.002-0.001l0.407,2.833l0.217-0.023
				l-0.408-2.854l0,0c-0.104-0.563,0.146-1.456,0.146-1.456l0.11-0.275c0.658,0.224,1.631,0.515,2.137,0.474v4.006l0.402-0.007
				v-5.407l0,0c-0.045-1.049,0.64-2.603,0.64-2.603l0.269-0.475c1.323,0.671,3.391,1.615,4.145,1.379c0,0-2.295-1.149-3.957-1.706
				l0.002-0.003C209.85,11.889,212.236,12.269,212.923,11.818z M206.789,14.015c0.049,0.215,0.087,0.434,0.104,0.643
				c-0.375,0.105-1.305,0.375-1.992,0.66c0-0.008,0-0.014,0-0.021c0-0.001,0-0.002,0-0.003
				C205.527,14.953,206.365,14.456,206.789,14.015z M206.9,14.776c0.006,0.089,0.008,0.176,0.002,0.259h0.005v0.472
				c-0.5-0.012-1.371-0.018-2.013,0.049c0-0.006,0-0.011,0.002-0.015C205.561,15.367,206.498,15.083,206.9,14.776z M204.232,11.884
				c0.539-0.076,1.068-0.17,1.519-0.258c0.002,0.002,0.003,0.004,0.003,0.006c-0.445,0.155-0.93,0.345-1.4,0.544
				C204.322,12.062,204.282,11.964,204.232,11.884z M203.615,14.692c-0.346-0.477-0.784-0.988-1.141-1.385
				c0.148-0.02,0.312-0.055,0.486-0.1c0.164,0.484,0.422,1.022,0.661,1.479C203.62,14.688,203.618,14.69,203.615,14.692z
				 M203.964,14.573c-0.181-0.492-0.421-1.027-0.637-1.475c0.237-0.075,0.487-0.166,0.741-0.268
				C204.016,13.356,203.965,14.003,203.964,14.573L203.964,14.573z M204.314,14.608c-0.002,0-0.004-0.002-0.004-0.002
				c0.084-0.604,0.155-1.34,0.117-1.924c0.271-0.115,0.545-0.236,0.809-0.36C204.969,12.893,204.551,13.832,204.314,14.608z
				 M204.609,14.754c0.391-0.771,0.888-1.878,0.92-2.572c0.16-0.077,0.316-0.153,0.463-0.226l0.275,0.484
				c0,0,0.019,0.041,0.047,0.109C206.04,12.864,205.15,13.896,204.609,14.754z M204.807,15.016c0.594-0.654,1.42-1.653,1.571-2.306
				c0.099,0.252,0.245,0.653,0.358,1.09c-0.45,0.257-1.301,0.759-1.924,1.227C204.811,15.023,204.809,15.019,204.807,15.016z
				 M204.846,15.752V15.75c0.609,0.033,1.512,0.054,2.062-0.066v0.619C206.498,16.172,205.561,15.884,204.846,15.752z"/>
		</g>
		<rect x="200.264" y="21.083" fill="none" width="16.75" height="8.834"/>
		<g enable-background="new    ">
			<path fill="#152D4F" d="M203.072,27.923c-0.107,0-0.225-0.015-0.352-0.045c-0.125-0.03-0.252-0.072-0.377-0.126
				c-0.127-0.054-0.245-0.121-0.355-0.202c-0.111-0.081-0.203-0.173-0.275-0.274l-0.09,0.558h-0.72v-6.75h0.81V23.9
				c0.312-0.378,0.769-0.567,1.368-0.567c0.294,0,0.563,0.062,0.81,0.185s0.457,0.289,0.631,0.499
				c0.174,0.211,0.309,0.455,0.404,0.734c0.096,0.278,0.145,0.571,0.145,0.877c0,0.318-0.051,0.616-0.152,0.896
				c-0.103,0.279-0.244,0.522-0.424,0.729s-0.392,0.37-0.635,0.49C203.617,27.863,203.354,27.923,203.072,27.923z M202.982,24.053
				c-0.174,0-0.341,0.035-0.5,0.104c-0.158,0.069-0.299,0.171-0.418,0.307c-0.12,0.135-0.217,0.3-0.288,0.494
				c-0.072,0.195-0.108,0.419-0.108,0.671c0,0.258,0.035,0.486,0.104,0.684c0.069,0.198,0.164,0.363,0.283,0.495
				c0.121,0.133,0.26,0.231,0.419,0.298c0.159,0.065,0.329,0.099,0.509,0.099c0.191,0,0.365-0.042,0.521-0.126
				s0.289-0.198,0.396-0.342c0.107-0.145,0.191-0.312,0.252-0.504c0.061-0.192,0.09-0.394,0.09-0.604
				c0-0.222-0.029-0.429-0.09-0.621c-0.061-0.191-0.146-0.358-0.256-0.499c-0.111-0.142-0.245-0.252-0.401-0.333
				C203.34,24.094,203.168,24.053,202.982,24.053z"/>
			<path fill="#152D4F" d="M207.42,27.275l-0.117,0.647h-0.262c-0.396,0-0.686-0.101-0.868-0.302c-0.183-0.2-0.274-0.454-0.274-0.76
				v-5.778h0.811v5.31c0,0.187,0.007,0.338,0.021,0.455c0.016,0.117,0.047,0.207,0.095,0.27c0.048,0.063,0.118,0.105,0.212,0.126
				C207.13,27.265,207.258,27.275,207.42,27.275z"/>
			<path fill="#152D4F" d="M211.505,27.275c-0.39,0.432-0.921,0.647-1.593,0.647c-0.342,0-0.648-0.059-0.918-0.176
				c-0.27-0.116-0.5-0.277-0.688-0.481c-0.188-0.203-0.333-0.446-0.433-0.729c-0.099-0.282-0.148-0.585-0.148-0.909
				c0-0.33,0.051-0.635,0.153-0.913c0.103-0.279,0.247-0.521,0.437-0.725s0.418-0.364,0.688-0.481s0.573-0.176,0.909-0.176
				s0.639,0.059,0.908,0.176c0.271,0.117,0.5,0.278,0.689,0.485s0.334,0.45,0.436,0.729c0.103,0.279,0.154,0.58,0.154,0.904
				C212.1,26.288,211.9,26.837,211.505,27.275z M210.911,24.467c-0.233-0.275-0.567-0.414-0.999-0.414s-0.767,0.137-1.004,0.41
				c-0.236,0.272-0.355,0.661-0.355,1.165s0.119,0.893,0.355,1.166c0.237,0.272,0.572,0.409,1.004,0.409
				c0.438,0,0.773-0.141,1.008-0.423s0.352-0.666,0.352-1.152C211.271,25.13,211.15,24.743,210.911,24.467z"/>
			<path fill="#152D4F" d="M214.682,30.083c-0.348,0-0.65-0.036-0.908-0.108c-0.258-0.071-0.473-0.169-0.644-0.292
				s-0.299-0.266-0.383-0.428s-0.126-0.33-0.126-0.504c0-0.468,0.262-0.798,0.783-0.99c-0.301-0.144-0.45-0.33-0.45-0.558
				c0-0.103,0.04-0.215,0.122-0.338c0.08-0.123,0.214-0.229,0.4-0.319c-0.51-0.366-0.766-0.846-0.766-1.439
				c0-0.252,0.041-0.486,0.121-0.702c0.082-0.216,0.199-0.403,0.352-0.562c0.153-0.159,0.342-0.284,0.566-0.374
				c0.226-0.09,0.479-0.135,0.762-0.135c0.396,0,0.771,0.108,1.125,0.324c0.312-0.168,0.668-0.252,1.07-0.252h0.072l-0.1,0.54
				h-0.207c-0.186,0-0.359,0.021-0.521,0.062c0.27,0.324,0.405,0.675,0.405,1.053c0,0.234-0.042,0.456-0.126,0.666
				c-0.084,0.211-0.203,0.396-0.355,0.559c-0.153,0.162-0.34,0.291-0.559,0.387s-0.467,0.145-0.742,0.145
				c-0.234,0-0.444-0.027-0.63-0.081c-0.144,0.084-0.216,0.174-0.216,0.27c0,0.054,0.016,0.101,0.049,0.14s0.1,0.073,0.198,0.104
				s0.237,0.062,0.414,0.095s0.413,0.076,0.706,0.13c0.199,0.036,0.402,0.081,0.612,0.136c0.21,0.054,0.401,0.126,0.571,0.216
				c0.172,0.09,0.314,0.205,0.428,0.347c0.114,0.141,0.178,0.316,0.189,0.526c0,0.186-0.051,0.362-0.153,0.53
				s-0.247,0.315-0.437,0.441s-0.422,0.227-0.697,0.302C215.333,30.046,215.024,30.083,214.682,30.083z M214.898,28.067
				c-0.103,0-0.369-0.036-0.801-0.108c-0.205,0.06-0.373,0.165-0.504,0.315c-0.133,0.149-0.199,0.303-0.199,0.459
				c0,0.21,0.117,0.382,0.352,0.518c0.234,0.135,0.559,0.202,0.973,0.202c0.432,0,0.766-0.07,1.003-0.212
				c0.237-0.141,0.355-0.305,0.355-0.49C216.077,28.438,215.684,28.211,214.898,28.067z M214.52,23.981c-0.33,0-0.584,0.1-0.764,0.3
				c-0.181,0.2-0.271,0.465-0.271,0.793c0,0.341,0.097,0.611,0.292,0.812s0.449,0.3,0.761,0.3c0.324,0,0.579-0.107,0.765-0.322
				c0.187-0.215,0.279-0.487,0.279-0.815c0-0.341-0.096-0.604-0.287-0.789C215.102,24.073,214.844,23.981,214.52,23.981z"/>
		</g>
	</g>
	<g>
		<rect x="233.493" y="2.583" fill="#FFFFFF" width="25.776" height="26.49"/>
		<path id="pinterest-square-icon_2_" fill="#CC1E28" d="M230.264-0.083v32h32v-32H230.264z M248.305,21.372
			c-1.391,0-2.697-0.751-3.146-1.604c0,0-0.746,2.965-0.904,3.537c-0.558,2.021-2.194,4.045-2.321,4.211
			c-0.091,0.115-0.285,0.078-0.308-0.072c-0.035-0.26-0.453-2.811,0.039-4.891c0.246-1.045,1.655-7.012,1.655-7.012
			s-0.411-0.821-0.411-2.036c0-1.906,1.104-3.33,2.481-3.33c1.17,0,1.734,0.879,1.734,1.932c0,1.177-0.749,2.936-1.135,4.565
			c-0.323,1.366,0.684,2.479,2.029,2.479c2.438,0,4.08-3.13,4.08-6.84c0-2.82-1.899-4.931-5.354-4.931
			c-3.902,0-6.336,2.911-6.336,6.163c0,1.119,0.332,1.911,0.851,2.522c0.237,0.281,0.271,0.395,0.186,0.717
			c-0.062,0.238-0.203,0.807-0.264,1.031c-0.086,0.326-0.351,0.443-0.645,0.322c-1.796-0.732-2.635-2.702-2.635-4.915
			c0-3.655,3.082-8.038,9.193-8.038c4.914,0,8.146,3.555,8.146,7.371C255.245,17.602,252.438,21.372,248.305,21.372z"/>
	</g>
</g>
</svg>
