<svg xmlns="http://www.w3.org/2000/svg" width="50" height="50" viewBox="0 0 50 50"><path fill="#939393" d="M30.472 39.663l-1.406-.811c.043-.244.075-.493.075-.752s-.032-.508-.078-.752l1.409-.812a1.384 1.384 0 0 0 .505-1.883 1.379 1.379 0 0 0-1.885-.508l-1.421.82a4.149 4.149 0 0 0-1.289-.75v-1.633a1.38 1.38 0 1 0-2.762 0v1.631c-.479.171-.91.428-1.291.752l-1.417-.82a1.381 1.381 0 1 0-1.38 2.391l1.403.811c-.045.246-.075.495-.075.754s.029.508.075.752l-1.403.811a1.38 1.38 0 1 0 1.377 2.393l1.419-.815c.381.322.812.576 1.292.747v1.636c0 .76.618 1.375 1.38 1.375s1.382-.615 1.382-1.377v-1.636a4.043 4.043 0 0 0 1.291-.752l1.419.82a1.38 1.38 0 1 0 1.38-2.392zM25 39.482zm17.044-3.525l-.943-.251a2.36 2.36 0 0 0-.227-.857l.686-.686a.819.819 0 1 0-1.159-1.16l-.687.684a2.5 2.5 0 0 0-.856-.225l-.251-.942a.822.822 0 0 0-1.006-.581.824.824 0 0 0-.579 1.006l.251.93a2.637 2.637 0 0 0-.352.286c-.107.11-.199.228-.283.349l-.93-.251a.826.826 0 0 0-1.008.581.825.825 0 0 0 .58 1.006l.938.252c.025.295.101.583.232.856l-.688.688a.818.818 0 0 0 .003 1.157.818.818 0 0 0 1.156.003l.689-.689c.271.133.561.208.859.23l.248.939a.822.822 0 1 0 1.588-.428l-.25-.93c.117-.083.237-.176.348-.283a2.66 2.66 0 0 0 .283-.35l.932.25a.82.82 0 0 0 .426-1.584zm-2.801.522a.821.821 0 0 1-1.162-1.16.825.825 0 0 1 1.162 0 .824.824 0 0 1 0 1.16zm-24.951-4.721l-.928.249a3.117 3.117 0 0 0-.285-.347 2.645 2.645 0 0 0-.35-.283l.249-.933a.82.82 0 1 0-1.582-.425l-.254.942a2.421 2.421 0 0 0-.854.227l-.688-.685a.819.819 0 1 0-1.159 1.16l.685.686a2.437 2.437 0 0 0-.226.857l-.941.251a.823.823 0 0 0-.583 1.006.825.825 0 0 0 1.007.579l.928-.252a2.204 2.204 0 0 0 .635.635l-.249.93a.826.826 0 0 0 .58 1.009.818.818 0 0 0 1.002-.581l.254-.938c.298-.024.586-.1.859-.229l.687.687a.819.819 0 0 0 1.159-.003.818.818 0 0 0 0-1.157l-.688-.688c.132-.271.21-.562.229-.859l.942-.249a.822.822 0 0 0-.429-1.589zm-2.373 2.223a.823.823 0 0 1-1.162 0 .825.825 0 0 1 0-1.159c.322-.319.841-.319 1.162 0s.317.84 0 1.159zM45 18.75c0-4.824-3.926-8.75-8.75-8.75-.415 0-.825.029-1.233.088C32.683 6.908 28.999 5 25 5s-7.681 1.908-10.016 5.088A8.618 8.618 0 0 0 13.75 10C8.926 10 5 13.926 5 18.75s3.926 8.75 8.75 8.75a8.648 8.648 0 0 0 3.102-.573A12.386 12.386 0 0 0 25 30c3.011 0 5.886-1.101 8.147-3.073a8.65 8.65 0 0 0 3.103.573c4.824 0 8.75-3.926 8.75-8.75zm-12.339 5.104C30.827 26.064 28.096 27.5 25 27.5s-5.827-1.436-7.661-3.646A6.21 6.21 0 0 1 13.75 25a6.25 6.25 0 1 1 0-12.5c.845 0 1.646.172 2.378.475C17.787 9.74 21.117 7.5 25 7.5c3.884 0 7.214 2.24 8.87 5.475a6.223 6.223 0 0 1 2.38-.475 6.25 6.25 0 1 1 0 12.5 6.215 6.215 0 0 1-3.589-1.146z"/></svg>