<svg xmlns="http://www.w3.org/2000/svg" width="50" height="50" viewBox="0 0 50 50"><path fill="#939393" d="M7.625 25a6.25 6.25 0 0 1 6.125-7.5c.845 0 1.646.172 2.378.475C17.787 14.74 21.117 12.5 25 12.5c3.884 0 7.214 2.24 8.87 5.475a6.223 6.223 0 0 1 2.38-.475 6.25 6.25 0 0 1 6.123 7.5h2.5c.062-.412.127-.822.127-1.25 0-4.824-3.926-8.75-8.75-8.75-.415 0-.825.029-1.233.088C32.683 11.908 28.999 10 25 10s-7.681 1.908-10.016 5.088A8.618 8.618 0 0 0 13.75 15C8.926 15 5 18.926 5 23.75c0 .428.067.838.127 1.25h2.498zm36.125 2.5H6.25a1.25 1.25 0 0 0 0 2.5h37.5a1.25 1.25 0 0 0 0-2.5zm0 5H6.25a1.25 1.25 0 0 0 0 2.5h37.5a1.25 1.25 0 0 0 0-2.5zm0 5H6.25a1.25 1.25 0 0 0 0 2.5h37.5a1.25 1.25 0 0 0 0-2.5z"/></svg>