<svg xmlns="http://www.w3.org/2000/svg" width="50" height="50" viewBox="0 0 50 50"><path fill="#939393" d="M25 11.154c.85 0 1.538-.689 1.538-1.539V6.539a1.538 1.538 0 1 0-3.077 0v3.077c0 .849.69 1.538 1.539 1.538zm11.965 4.054l2.176-2.176a1.537 1.537 0 1 0-2.176-2.175l-2.175 2.175a1.537 1.537 0 0 0 0 2.176 1.535 1.535 0 0 0 2.175 0zM6.539 26.538h3.077a1.538 1.538 0 1 0 0-3.077H6.539a1.54 1.54 0 0 0 0 3.077zM38.846 25c0 .85.689 1.538 1.539 1.538h3.077a1.538 1.538 0 1 0 0-3.077h-3.077c-.85 0-1.539.69-1.539 1.539zm-25.813-9.792a1.538 1.538 0 1 0 2.176-2.176l-2.176-2.175a1.537 1.537 0 1 0-2.175 2.175l2.175 2.176zm1.354 11.33h3.077A7.69 7.69 0 0 1 25 17.308a7.69 7.69 0 0 1 7.536 9.23h3.077c.076-.507.156-1.012.156-1.538 0-5.938-4.832-10.769-10.77-10.769S14.231 19.062 14.231 25c0 .526.084 1.031.156 1.538zm29.075 3.077H6.539a1.54 1.54 0 0 0 0 3.077h36.923a1.539 1.539 0 0 0 0-3.077zm0 6.155H6.539a1.538 1.538 0 1 0 0 3.076h36.923a1.538 1.538 0 1 0 0-3.076zm0 6.153H6.539a1.539 1.539 0 1 0 0 3.077h36.923a1.539 1.539 0 0 0 0-3.077z"/></svg>