<svg xmlns="http://www.w3.org/2000/svg" width="50" height="50" viewBox="0 0 50 50"><path fill="#939393" d="M30.472 39.663l-1.406-.811c.043-.244.075-.493.075-.752s-.032-.508-.078-.752l1.409-.812a1.384 1.384 0 0 0 .505-1.883 1.379 1.379 0 0 0-1.885-.508l-1.421.82a4.149 4.149 0 0 0-1.289-.75v-1.633a1.38 1.38 0 1 0-2.762 0v1.631c-.479.171-.91.428-1.291.752l-1.417-.82a1.381 1.381 0 1 0-1.38 2.391l1.403.811c-.045.246-.075.495-.075.754s.029.508.075.752l-1.403.811a1.38 1.38 0 1 0 1.377 2.393l1.419-.815c.381.322.812.576 1.292.747v1.636c0 .76.618 1.375 1.38 1.375s1.382-.615 1.382-1.377v-1.636a4.043 4.043 0 0 0 1.291-.752l1.419.82a1.38 1.38 0 1 0 1.38-2.392zM25 39.482zM45 18.75c0-4.824-3.926-8.75-8.75-8.75-.415 0-.825.029-1.233.088C32.683 6.908 28.999 5 25 5s-7.681 1.908-10.016 5.088A8.618 8.618 0 0 0 13.75 10C8.926 10 5 13.926 5 18.75s3.926 8.75 8.75 8.75a8.648 8.648 0 0 0 3.102-.573A12.386 12.386 0 0 0 25 30c3.011 0 5.886-1.101 8.147-3.073a8.65 8.65 0 0 0 3.103.573c4.824 0 8.75-3.926 8.75-8.75zm-12.339 5.104C30.827 26.064 28.096 27.5 25 27.5s-5.827-1.436-7.661-3.646A6.21 6.21 0 0 1 13.75 25a6.25 6.25 0 1 1 0-12.5c.845 0 1.646.172 2.378.475C17.787 9.74 21.117 7.5 25 7.5c3.884 0 7.214 2.24 8.87 5.475a6.223 6.223 0 0 1 2.38-.475 6.25 6.25 0 1 1 0 12.5 6.215 6.215 0 0 1-3.589-1.146zM9.501 34c0 1.382 1.118 2.5 2.5 2.5s2.5-1.118 2.5-2.5-2.5-5-2.5-5-2.5 3.618-2.5 5zm26 2c0 1.382 1.118 2.5 2.5 2.5s2.5-1.118 2.5-2.5-2.5-5-2.5-5-2.5 3.618-2.5 5z"/></svg>