<svg xmlns="http://www.w3.org/2000/svg" width="50" height="50" viewBox="0 0 50 50"><path fill="#939393" d="M45 19.226c0-3.841-3.125-6.965-6.966-6.965-.188 0-.373.008-.559.023A9.552 9.552 0 0 0 30 8.692a9.558 9.558 0 0 0-7.476 3.592 6.972 6.972 0 0 0-7.525 6.942c0 .402.054.789.117 1.175-.042.056-.093.106-.133.163a8.618 8.618 0 0 0-1.234-.088c-4.824 0-8.75 3.926-8.75 8.75s3.926 8.75 8.75 8.75a8.669 8.669 0 0 0 3.102-.572 12.38 12.38 0 0 0 8.148 3.072c3.011 0 5.886-1.1 8.147-3.072a8.67 8.67 0 0 0 3.103.572c4.824 0 8.75-3.926 8.75-8.75 0-2.007-.706-3.834-1.849-5.312 1.14-1.243 1.85-2.878 1.85-4.688zm-8.75 16.25a6.215 6.215 0 0 1-3.589-1.146c-1.834 2.21-4.565 3.646-7.661 3.646s-5.827-1.436-7.661-3.646a6.21 6.21 0 0 1-3.589 1.146 6.25 6.25 0 1 1 0-12.5c.845 0 1.646.171 2.378.474.044-.083.098-.156.142-.236a10.08 10.08 0 0 1 1.615-2.19c1.803-1.869 4.31-3.047 7.116-3.047 3.884 0 7.214 2.239 8.87 5.474a6.318 6.318 0 0 1 1.396-.376l.983-.098c.964 0 1.865.237 2.681.625a6.227 6.227 0 0 1 2.238 1.812c.82 1.056 1.331 2.372 1.331 3.813a6.25 6.25 0 0 1-6.25 6.249zm5.122-13.31a8.658 8.658 0 0 0-6.355-1.601A12.393 12.393 0 0 0 25 15.477a12.34 12.34 0 0 0-7.261 2.37c.584-1.785 2.245-3.084 4.224-3.084.605 0 1.177.122 1.699.338 1.187-2.31 3.564-3.908 6.338-3.908s5.153 1.599 6.335 3.908a4.465 4.465 0 0 1 6.165 4.126c0 1.13-.435 2.15-1.128 2.939z"/></svg>