<svg xmlns="http://www.w3.org/2000/svg" width="50" height="50" viewBox="0 0 50 50"><path fill="#939393" d="M21.25 10c.69 0 1.25-.56 1.25-1.25v-2.5a1.25 1.25 0 0 0-2.5 0v2.5c0 .69.56 1.25 1.25 1.25zm9.722 3.294l1.768-1.768a1.25 1.25 0 0 0-1.768-1.768l-1.768 1.768a1.25 1.25 0 0 0 1.768 1.768zM6.25 22.5h2.5a1.25 1.25 0 0 0 0-2.5h-2.5a1.25 1.25 0 0 0 0 2.5zm26.25-1.25c0 .69.56 1.25 1.25 1.25h2.5a1.25 1.25 0 0 0 0-2.5h-2.5c-.69 0-1.25.56-1.25 1.25zm-20.973-7.956a1.25 1.25 0 0 0 1.768-1.768l-1.768-1.768a1.25 1.25 0 0 0-1.768 1.768l1.768 1.768zM36.25 25c-.415 0-.825.029-1.233.088a12.447 12.447 0 0 0-5.036-4.023c-.101-4.736-3.97-8.564-8.73-8.564-4.824 0-8.75 3.926-8.75 8.75a8.59 8.59 0 0 0 .898 3.784C8.74 25.225 5 29.048 5 33.75c0 4.824 3.926 8.75 8.75 8.75a8.648 8.648 0 0 0 3.102-.573A12.386 12.386 0 0 0 25 45c3.011 0 5.886-1.101 8.147-3.073a8.65 8.65 0 0 0 3.103.573c4.824 0 8.75-3.926 8.75-8.75S41.074 25 36.25 25zm-15-10c3.11 0 5.669 2.279 6.149 5.254A12.252 12.252 0 0 0 25 20c-3.589 0-6.914 1.548-9.248 4.16-.464-.872-.752-1.852-.752-2.91A6.25 6.25 0 0 1 21.25 15zm15 25a6.215 6.215 0 0 1-3.589-1.146C30.827 41.064 28.096 42.5 25 42.5s-5.827-1.436-7.661-3.646A6.21 6.21 0 0 1 13.75 40a6.25 6.25 0 1 1 0-12.5c.605 0 1.177.114 1.729.276.22.062.443.111.649.197.342-.669.771-1.281 1.249-1.855C19.203 23.921 21.919 22.5 25 22.5c.791 0 1.55.114 2.285.29a9.579 9.579 0 0 1 2.331.882 10.098 10.098 0 0 1 4.254 4.302 6.223 6.223 0 0 1 2.38-.474 6.25 6.25 0 1 1 0 12.5z"/></svg>