<svg xmlns="http://www.w3.org/2000/svg" width="50" height="50" viewBox="0 0 50 50"><path fill="#939393" d="M36.25 10c-.415 0-.825.029-1.233.088C32.683 6.908 28.999 5 25 5s-7.681 1.908-10.016 5.088A8.618 8.618 0 0 0 13.75 10C8.926 10 5 13.926 5 18.75s3.926 8.75 8.75 8.75a8.648 8.648 0 0 0 3.102-.573A12.386 12.386 0 0 0 25 30c3.011 0 5.886-1.101 8.147-3.073a8.65 8.65 0 0 0 3.103.573c4.824 0 8.75-3.926 8.75-8.75S41.074 10 36.25 10zm0 15a6.215 6.215 0 0 1-3.589-1.146C30.827 26.064 28.096 27.5 25 27.5s-5.827-1.436-7.661-3.646A6.21 6.21 0 0 1 13.75 25a6.25 6.25 0 1 1 0-12.5c.845 0 1.646.172 2.378.475C17.787 9.74 21.117 7.5 25 7.5c3.884 0 7.214 2.24 8.87 5.475a6.223 6.223 0 0 1 2.38-.475 6.25 6.25 0 1 1 0 12.5zM22.578 42.5c0 1.382 1.118 2.5 2.5 2.5s2.5-1.118 2.5-2.5-2.5-5-2.5-5-2.5 3.618-2.5 5zM32.5 40c0 1.382 1.118 2.5 2.5 2.5s2.5-1.118 2.5-2.5-2.5-5-2.5-5-2.5 3.618-2.5 5zm-20-5c0 1.382 1.118 2.5 2.5 2.5s2.5-1.118 2.5-2.5-2.5-5-2.5-5-2.5 3.618-2.5 5z"/></svg>