<svg xmlns="http://www.w3.org/2000/svg" width="50" height="50" viewBox="0 0 50 50"><path fill="#939393" d="M36.25 10a8.57 8.57 0 0 0-1.232.088C32.684 6.908 28.999 5 25 5s-7.681 1.908-10.016 5.088A8.618 8.618 0 0 0 13.75 10C8.926 10 5 13.926 5 18.75s3.926 8.75 8.75 8.75a8.648 8.648 0 0 0 3.102-.573A12.392 12.392 0 0 0 25 30c3.011 0 5.886-1.102 8.146-3.073a8.65 8.65 0 0 0 3.104.573c4.824 0 8.75-3.926 8.75-8.75S41.074 10 36.25 10zm0 15c-1.338 0-2.57-.43-3.589-1.146C30.827 26.064 28.096 27.5 25 27.5c-3.096 0-5.827-1.436-7.661-3.646A6.21 6.21 0 0 1 13.75 25a6.25 6.25 0 1 1 0-12.5c.845 0 1.646.172 2.378.475C17.787 9.74 21.117 7.5 25 7.5c3.884 0 7.214 2.24 8.87 5.475a6.22 6.22 0 0 1 2.38-.475 6.25 6.25 0 1 1 0 12.5zm-9.713 19.615V32.692a1.538 1.538 0 1 0-3.076 0v11.923a1.538 1.538 0 1 0 3.076 0z"/><path fill="#939393" d="M32.537 42.615V30.692a1.538 1.538 0 1 0-3.076 0v11.923a1.538 1.538 0 1 0 3.076 0zm-12-1v-9.923a1.538 1.538 0 1 0-3.076 0v9.923a1.538 1.538 0 1 0 3.076 0zm-6 2V29.692a1.538 1.538 0 1 0-3.076 0v13.923a1.538 1.538 0 1 0 3.076 0zm24-1V29.692a1.538 1.538 0 1 0-3.076 0v12.923a1.538 1.538 0 1 0 3.076 0z"/></svg>