<svg xmlns="http://www.w3.org/2000/svg" width="50" height="50" viewBox="0 0 50 50"><path fill="#939393" d="M30.472 35.913l-1.406-.811c.043-.244.075-.493.075-.752s-.032-.508-.078-.752l1.409-.812a1.384 1.384 0 0 0 .505-1.883 1.379 1.379 0 0 0-1.885-.508l-1.421.82a4.149 4.149 0 0 0-1.289-.75v-1.633a1.38 1.38 0 1 0-2.762 0v1.631c-.479.171-.91.428-1.291.752l-1.417-.82a1.381 1.381 0 1 0-1.38 2.391l1.403.811c-.045.246-.075.495-.075.754s.029.508.075.752l-1.403.811a1.38 1.38 0 1 0 1.377 2.393l1.419-.815c.381.322.812.576 1.292.747v1.636c0 .762.619 1.377 1.38 1.377s1.382-.615 1.382-1.377v-1.636a4.043 4.043 0 0 0 1.291-.752l1.419.82c.661.381 1.504.156 1.885-.503s.156-1.505-.505-1.891zM25 35.732zM36.25 13.75c-.415 0-.825.029-1.233.088C32.683 10.658 28.999 8.75 25 8.75s-7.681 1.908-10.016 5.088a8.618 8.618 0 0 0-1.234-.088C8.926 13.75 5 17.676 5 22.5s3.926 8.75 8.75 8.75c.923 0 1.823-.173 2.69-.456.083-.396.213-.784.42-1.144a3.818 3.818 0 0 1 1.25-1.289c-.259-.253-.542-.478-.771-.758a6.203 6.203 0 0 1-3.589 1.146 6.25 6.25 0 1 1 0-12.5c.845 0 1.646.172 2.378.475C17.787 13.49 21.117 11.25 25 11.25c3.884 0 7.214 2.24 8.87 5.475a6.223 6.223 0 0 1 2.38-.475 6.25 6.25 0 1 1 0 12.5 6.215 6.215 0 0 1-3.589-1.146c-.229.279-.516.504-.773.757.505.328.947.757 1.254 1.294.211.362.34.748.423 1.139.864.283 1.763.456 2.686.456 4.824 0 8.75-3.926 8.75-8.75s-3.927-8.75-8.751-8.75z"/></svg>