<svg xmlns="http://www.w3.org/2000/svg" width="50" height="50" viewBox="0 0 50 50"><path fill="#939393" d="M25 14.231c-5.938 0-10.769 4.832-10.769 10.769S19.062 35.77 25 35.77 35.77 30.938 35.77 25 30.938 14.231 25 14.231zm0 18.461c-4.249 0-7.692-3.443-7.692-7.692s3.443-7.692 7.692-7.692 7.692 3.443 7.692 7.692-3.443 7.692-7.692 7.692zm0-21.538c.85 0 1.538-.689 1.538-1.539V6.539a1.538 1.538 0 1 0-3.077 0v3.077c0 .849.69 1.538 1.539 1.538zm0 27.692a1.54 1.54 0 0 0-1.539 1.539v3.077a1.54 1.54 0 0 0 3.077 0v-3.077c0-.85-.688-1.539-1.538-1.539zm11.965-23.638l2.176-2.176a1.537 1.537 0 1 0-2.176-2.175l-2.175 2.175a1.537 1.537 0 0 0 0 2.176 1.535 1.535 0 0 0 2.175 0zm-23.93 19.584l-2.175 2.175a1.538 1.538 0 0 0 2.175 2.176l2.176-2.176a1.537 1.537 0 0 0 0-2.175 1.535 1.535 0 0 0-2.176 0zM11.154 25a1.54 1.54 0 0 0-1.539-1.539H6.539a1.54 1.54 0 0 0 0 3.077h3.077c.849 0 1.538-.688 1.538-1.538zm32.308-1.539h-3.077a1.539 1.539 0 1 0 0 3.077h3.077a1.538 1.538 0 1 0 0-3.077zm-30.429-8.253a1.538 1.538 0 1 0 2.176-2.176l-2.176-2.175a1.537 1.537 0 1 0-2.175 2.175l2.175 2.176zM36.967 34.79a1.535 1.535 0 0 0-2.175 0 1.534 1.534 0 0 0 0 2.175l2.175 2.176a1.538 1.538 0 1 0 2.176-2.176l-2.176-2.175z"/></svg>