<svg xmlns="http://www.w3.org/2000/svg" width="50" height="50" viewBox="0 0 50 50"><path fill="#939393" d="M20 35l2.5 2.5L20 45l7.5-7.5L25 35l2.5-5-7.5 5zm25-19.466c0-3.839-3.125-6.963-6.966-6.963-.188 0-.373.007-.559.021A9.555 9.555 0 0 0 30 5a9.561 9.561 0 0 0-7.476 3.592 6.984 6.984 0 0 0-.562-.021c-3.838 0-6.963 3.124-6.963 6.963 0 .402.054.791.117 1.175-.042.055-.093.106-.133.163a8.618 8.618 0 0 0-1.234-.088c-4.824 0-8.75 3.926-8.75 8.75s3.926 8.75 8.75 8.75a8.648 8.648 0 0 0 3.102-.573c.086.075.189.127.277.2l2.212-1.475c-.737-.522-1.426-1.104-2.002-1.797a6.217 6.217 0 0 1-3.589 1.145 6.25 6.25 0 0 1 0-12.5c.845 0 1.646.173 2.378.476.044-.085.098-.156.142-.238a10.14 10.14 0 0 1 1.614-2.191c1.804-1.867 4.31-3.047 7.116-3.047 3.884 0 7.214 2.24 8.87 5.475a6.265 6.265 0 0 1 1.396-.377l.983-.098a6.23 6.23 0 0 1 2.681.625 6.23 6.23 0 0 1 2.238 1.813c.82 1.057 1.331 2.37 1.331 3.812a6.25 6.25 0 0 1-6.25 6.25 6.221 6.221 0 0 1-3.589-1.145c-1.094 1.318-2.534 2.31-4.152 2.935l-.467.933 1.426 1.426a12.549 12.549 0 0 0 3.68-2.222 8.648 8.648 0 0 0 3.103.572c4.824 0 8.75-3.925 8.75-8.75 0-2.005-.706-3.834-1.849-5.312 1.14-1.24 1.85-2.876 1.85-4.687zm-3.628 2.939c-1.443-1.05-3.203-1.689-5.122-1.689-.415 0-.825.029-1.233.088A12.398 12.398 0 0 0 25 11.784c-2.666 0-5.181.864-7.261 2.372.584-1.786 2.245-3.084 4.224-3.084a4.41 4.41 0 0 1 1.699.339C24.849 9.098 27.227 7.5 30 7.5s5.153 1.598 6.335 3.91a4.465 4.465 0 0 1 6.165 4.124 4.426 4.426 0 0 1-1.128 2.939z"/></svg>