<svg xmlns="http://www.w3.org/2000/svg" width="50" height="50" viewBox="0 0 50 50"><path fill="#939393" d="M23.907 41.771a6.99 6.99 0 0 1-4.933 2.146c-1.479-.001-2.869-.521-3.93-1.545a5.472 5.472 0 0 1-1.683-3.869 4.312 4.312 0 0 1 4.225-4.382c.864.001 1.731.316 2.374.936a3.311 3.311 0 0 1 1.02 2.342 2.53 2.53 0 0 1-.72 1.826 2.521 2.521 0 0 1-1.792.777c-1.091-.006-1.956-.837-1.974-1.904a1.43 1.43 0 0 1 .404-1.029 1.429 1.429 0 0 1 1.014-.439c.604.021 1.055.452 1.065 1.028l1.08-.021a2.134 2.134 0 0 0-2.127-2.091l-.038.001a2.502 2.502 0 0 0-1.772.771 2.514 2.514 0 0 0-.708 1.799 3.025 3.025 0 0 0 3.021 2.967l.053-.001a3.605 3.605 0 0 0 2.552-1.106 3.61 3.61 0 0 0 1.021-2.598 4.39 4.39 0 0 0-1.35-3.1 4.353 4.353 0 0 0-3.145-1.237 5.393 5.393 0 0 0-5.287 5.481 6.55 6.55 0 0 0 2.014 4.627A6.556 6.556 0 0 0 18.866 45l.125-.002c4.47-.078 8.043-3.779 7.964-8.252l-1.08.02a6.97 6.97 0 0 1-1.968 5.005zM36.25 12.5c-.415 0-.825.029-1.233.088C32.683 9.408 28.999 7.5 25 7.5s-7.681 1.908-10.016 5.088a8.618 8.618 0 0 0-1.234-.088C8.926 12.5 5 16.426 5 21.25S8.926 30 13.75 30a8.648 8.648 0 0 0 3.102-.573A12.386 12.386 0 0 0 25 32.5c3.011 0 5.886-1.101 8.147-3.073A8.657 8.657 0 0 0 36.25 30c4.824 0 8.75-3.926 8.75-8.75s-3.926-8.75-8.75-8.75zm0 15a6.215 6.215 0 0 1-3.589-1.146C30.827 28.564 28.096 30 25 30s-5.827-1.436-7.661-3.646A6.21 6.21 0 0 1 13.75 27.5a6.25 6.25 0 1 1 0-12.5c.845 0 1.646.172 2.378.475C17.787 12.24 21.117 10 25 10c3.884 0 7.214 2.24 8.87 5.475A6.223 6.223 0 0 1 36.25 15a6.25 6.25 0 1 1 0 12.5z"/><path fill="#939393" d="M39.907 39.771a6.99 6.99 0 0 1-4.933 2.146c-1.479-.001-2.869-.521-3.93-1.545a5.477 5.477 0 0 1-1.684-3.869 4.313 4.313 0 0 1 4.226-4.382c.864.001 1.731.316 2.374.936a3.311 3.311 0 0 1 1.02 2.342 2.53 2.53 0 0 1-.72 1.826 2.521 2.521 0 0 1-1.792.777c-1.091-.006-1.955-.837-1.974-1.904a1.43 1.43 0 0 1 .403-1.029 1.431 1.431 0 0 1 1.015-.439c.604.021 1.055.452 1.065 1.028l1.08-.021a2.134 2.134 0 0 0-2.127-2.091l-.039.001c-.675.012-1.305.285-1.771.771s-.721 1.123-.708 1.799a3.025 3.025 0 0 0 3.021 2.967l.053-.001a3.606 3.606 0 0 0 2.553-1.106 3.61 3.61 0 0 0 1.021-2.598 4.39 4.39 0 0 0-1.35-3.1 4.353 4.353 0 0 0-3.145-1.237 5.392 5.392 0 0 0-5.287 5.481 6.55 6.55 0 0 0 2.014 4.627A6.554 6.554 0 0 0 34.867 43l.125-.002c4.47-.078 8.043-3.779 7.964-8.252l-1.08.02a6.975 6.975 0 0 1-1.969 5.005z"/></svg>