<svg xmlns="http://www.w3.org/2000/svg" width="26" height="26" viewBox="0 0 26 26"><path fill="#FEBE10" d="M14.218 9.253c-3.451 0-6.257 2.662-6.257 6.112a6.264 6.264 0 0 0 6.257 6.257 6.266 6.266 0 0 0 6.257-6.257c0-3.45-2.808-6.112-6.257-6.112zm0 9.476c-1.855 0-3.364-1.508-3.364-3.362s1.509-3.364 3.364-3.364a3.367 3.367 0 0 1 3.363 3.364 3.366 3.366 0 0 1-3.363 3.362zM26 6.192v16.85h-7.1c1.031-.651 1.98-1.515 2.662-2.524h1.912V8.716h-1.481c-2.938 0-3.962-2.452-4.396-3.234H10.93c-.825 1.609-1.85 3.234-4.357 3.234H2.524v11.802h4.347c.682 1.01 1.632 1.871 2.663 2.523H0V6.192h6.573c1.489 0 1.833-1.318 2.815-3.234h9.698c1.141 2.06 1.473 3.234 2.907 3.234H26zM7.121 11.509a1.294 1.294 0 1 0-2.588.002 1.294 1.294 0 0 0 2.588-.002z"/></svg>