<svg xmlns="http://www.w3.org/2000/svg" width="26" height="26" viewBox="0 0 26 26"><path fill="#FEBE10" d="M10.793 10.145c0-1.217.99-2.207 2.207-2.207s2.207.99 2.207 2.207-.99 2.208-2.207 2.208-2.207-.991-2.207-2.208zm-7.938 0C2.855 4.542 7.397 0 13 0c5.604 0 10.145 4.542 10.145 10.145S18.604 20.289 13 20.289c-5.603 0-10.145-4.542-10.145-10.144zm5.415 0A4.735 4.735 0 0 0 13 14.874c2.607 0 4.73-2.121 4.73-4.729s-2.123-4.73-4.73-4.73a4.736 4.736 0 0 0-4.73 4.73zm13.017 13.448l-2.532-2.874a12.04 12.04 0 0 1-11.499 0l-2.532 2.874c-.969 1.099.009 2.58 1.395 2.392 1.73-.236 3.118-1.641 6.886-1.641 3.769 0 5.156 1.403 6.888 1.641 1.384.188 2.362-1.296 1.394-2.392z"/></svg>