<svg xmlns="http://www.w3.org/2000/svg" width="26" height="26" viewBox="0 0 26 26"><path fill="#FEBE10" d="M15.749 6.041c.687-.642 1.108-1.521 1.108-2.489C16.857 1.594 15.128 0 13 0S9.141 1.594 9.141 3.552c0 .968.424 1.847 1.109 2.489-4.279 1.199-7.418 5.128-7.418 9.791C2.832 21.448 7.385 26 13 26s10.168-4.552 10.168-10.168c0-4.663-3.139-8.592-7.419-9.791zM13 1.895c1.083 0 1.964.744 1.964 1.657S14.083 5.209 13 5.209s-1.964-.743-1.964-1.657.881-1.657 1.964-1.657zm5.516 19.453A7.753 7.753 0 0 1 13 23.632a7.751 7.751 0 0 1-5.515-2.284A7.752 7.752 0 0 1 5.2 15.832a7.75 7.75 0 0 1 2.285-5.515A7.747 7.747 0 0 1 13 8.033c2.083 0 4.042.812 5.516 2.285 1.474 1.473 2.283 3.432 2.283 5.515s-.813 4.041-2.283 5.515zm-8.2-7.262L9.01 11.917l2.174 1.308c-.34.229-.635.522-.868.861zm4.557-.821c.297.21.559.469.77.764l1.347-2.111-2.117 1.347zm-4.528 4.536l-1.334 2.094 2.091-1.332a3.203 3.203 0 0 1-.757-.762zm4.496.803l2.147 1.291-1.295-2.15a3.283 3.283 0 0 1-.852.859zm4.795-2.698l-4.567 1.012c-.199.41-.521.752-.912.98L13 22.542l-1.155-4.644a2.312 2.312 0 0 1-.914-.98l-4.567-1.012 4.567-1.014c.201-.41.521-.752.914-.979L13 9.27l1.154 4.644c.394.229.714.57.914.98l4.568 1.012zm-5.605 0a1.032 1.032 0 1 0-2.063.001 1.032 1.032 0 0 0 2.063-.001z"/></svg>