<svg xmlns="http://www.w3.org/2000/svg" width="26" height="26" viewBox="0 0 26 26"><g fill="#FDBD13"><path d="M15.959 12.306l1.562-.902a4.757 4.757 0 0 0-.875-1.522l-1.568.905a3.008 3.008 0 0 0-1.2-.688v-1.81a4.712 4.712 0 0 0-1.756 0v1.813a3.02 3.02 0 0 0-1.19.689l-1.568-.904a4.708 4.708 0 0 0-.876 1.522l1.566.904a3.06 3.06 0 0 0-.003 1.376l-1.565.903c.196.562.491 1.077.873 1.524l1.568-.906a3.041 3.041 0 0 0 1.195.691v1.812a4.671 4.671 0 0 0 1.756.004v-1.812a3.058 3.058 0 0 0 1.202-.692l1.568.906c.148-.176.287-.361.414-.561.191-.307.345-.629.463-.963l-1.566-.902c.107-.46.105-.935 0-1.387zm-1.397 1.68a1.848 1.848 0 1 1-.576-2.549c.416.263.707.673.814 1.154.111.482.026.977-.238 1.395zm6.278-4.498a8.457 8.457 0 0 0-.878-1.521l.526-.305a.877.877 0 1 1 .879 1.521l-.527.305zM13 21.593c.296 0 .589-.019.879-.048v.609a.88.88 0 0 1-1.756 0v-.611c.29.03.583.05.877.05zm8.688-3.575a.876.876 0 0 1-1.199.32l-.521-.302a8.627 8.627 0 0 0 .877-1.52l.523.303a.876.876 0 0 1 .32 1.199zm-16.519-1.51c.237.533.531 1.043.875 1.521l-.533.309a.878.878 0 1 1-.879-1.519l.537-.311zm-.857-8.524a.878.878 0 0 1 1.2-.322l.534.309a8.661 8.661 0 0 0-.877 1.521l-.535-.308a.878.878 0 0 1-.322-1.2zm8.702-3.572c-.301 0-.598.02-.892.05v-.616a.879.879 0 1 1 1.756 0v.615a8.56 8.56 0 0 0-.864-.049zm4.22 1.887a7.927 7.927 0 1 0-8.453 13.407 7.927 7.927 0 0 0 8.453-13.407zM13 18.462a5.445 5.445 0 0 1-2.905-.842 5.422 5.422 0 0 1-2.411-3.411 5.422 5.422 0 0 1 .707-4.118 5.438 5.438 0 0 1 4.624-2.548 5.464 5.464 0 0 1 4.611 8.371A5.442 5.442 0 0 1 13 18.462z"/><path d="M4.239 17.5l.481.835c-.917.703-1.582 1.265-1.896 1.444a.796.796 0 1 1-.796-1.379c.313-.179 1.102-.447 2.211-.9zm19.736-9.9a.797.797 0 0 0-.798-1.38c-.312.182-.979.742-1.896 1.445l.48.835c1.11-.452 1.898-.719 2.214-.9zM1.749 6.488a.797.797 0 0 0 .292 1.089c.314.181 1.132.478 2.2.919l.481-.834c-.946-.734-1.571-1.284-1.885-1.465a.796.796 0 0 0-1.088.291zm11.735-3.326c.163-1.187.327-2.003.327-2.365a.796.796 0 1 0-1.594 0c0 .362.152 1.22.304 2.365h.963zm-.967 19.676c-.163 1.188-.326 2.003-.326 2.366a.796.796 0 1 0 1.593 0c0-.363-.152-1.22-.304-2.366h-.963zm11.443-4.414c-.313-.182-1.132-.479-2.2-.92l-.48.834c.945.734 1.57 1.284 1.885 1.467a.797.797 0 0 0 .795-1.381zm-10.48-6.186a.899.899 0 1 0-.96 1.523.9.9 0 1 0 .96-1.523z"/></g></svg>