<svg xmlns="http://www.w3.org/2000/svg" width="184" height="30" viewBox="0 0 184 30"><path d="M14.857 13.076c0-.94-.287-1.198-1.067-1.198h-1.095c-.129 0-.182-.053-.182-.158v-.65c0-.156.026-.21.156-.21.365 0 1.538.079 3.309.079 1.875 0 2.708-.079 3.074-.079.182 0 .207.079.207.183v.626c0 .105-.025.21-.182.21h-1.016c-.469 0-.808.18-.808.988v3.439c0 .364.105.625.105.833s-.158.313-.417.416c-2.11 1.069-4.193 1.669-7.109 1.669-2.32 0-5.497-.86-7.294-2.97C.949 14.456.142 12.243.142 9.091c0-2.369 1.015-4.896 2.943-6.616C4.934.887 7.278 0 10.403 0c2.239 0 4.246.833 5.132 1.51.286.234.442.185.599-.025l.39-.47c.104-.104.208-.232.365-.232.182 0 .235.129.235.311l.076 4.975c0 .131-.026.234-.129.234l-.468.051c-.105 0-.183-.078-.209-.208-.209-.729-.651-1.953-1.563-3.073-.78-.962-2.396-2.137-4.739-2.137-1.798 0-3.413.443-4.976 2.112-1.406 1.485-2.291 3.646-2.291 5.99 0 3.073.859 5.757 2.473 7.293a6.483 6.483 0 0 0 4.586 1.85c2.082 0 3.359-.364 4.272-.887.598-.364.701-.937.701-2.29v-1.928zm10.054-5.308c0-1.677 0-3.127-.023-3.783-.022-.748-.295-1.133-.861-1.133h-.905c-.114 0-.137-.068-.137-.158v-.567c0-.113.022-.157.137-.157.203 0 .905.066 2.809.066 1.269 0 3.375-.066 3.782-.066 1.881 0 3.375.564 4.238 1.382.748.724 1.178 1.742 1.178 2.583 0 2.83-1.292 3.894-4.191 4.531v.045c.542.203.861.612 1.043.861.271.293 1.88 2.605 2.061 2.898.114.226 1.564 2.288 1.994 2.606.475.339.997.384 1.631.384.158 0 .182.091.182.181v.499c0 .137-.023.204-.182.204-.183 0-.772-.067-1.768-.067-.655 0-1.495.046-1.835.067-.248-.226-.747-.996-.952-1.29-.181-.275-1.404-2.426-1.518-2.607-.09-.158-1.178-1.788-1.45-2.106-.589-.703-1.133-1.313-2.446-1.313-.205 0-.431 0-.748.068v1.269c0 1.338.021 3.875.045 4.213.044.478.227.884.566.884h1.427c.158 0 .18.069.18.181v.499c0 .16-.022.204-.249.204-.25 0-.816-.067-2.968-.067-2.061 0-2.582.067-2.831.067-.182 0-.182-.067-.182-.183v-.523c0-.111 0-.181.114-.181h.928c.498 0 .884-.157.884-.77.045-2.244.045-4.372.045-6.525V7.768zm2.04 2.242c.338.07.589.089 1.018.089 4.125 0 4.917-2.829 4.917-3.781 0-1.042-.476-2.039-1.133-2.581-.883-.701-1.88-1.042-3.76-1.042-.271 0-.566.044-.77.18-.159.114-.272.363-.272.727v6.408zM44.98 9.4c.181 0 2.605-.092 2.878-.136.656-.115.838-.297 1.042-.999a5.44 5.44 0 0 0 .181-1.108c0-.112.068-.16.159-.16l.566.022c.113 0 .16.092.137.18-.069.387-.069 2.245-.069 2.584 0 .793.093 1.881.137 2.357 0 .113-.044.16-.137.18l-.497.069c-.114.022-.16-.048-.183-.203a11.347 11.347 0 0 0-.25-1.064c-.135-.478-.384-.816-.973-.885-1.065-.114-2.628-.114-2.991-.114v1.406c0 1.222.045 3.421.045 3.873.023 1.177.589 1.631 1.291 1.768a9.347 9.347 0 0 0 1.676.159c.388 0 1.52-.024 1.995-.068.386-.047 1.382-.296 1.971-.792.272-.227 1.541-1.858 1.857-2.381.068-.112.137-.203.272-.136l.362.204c.113.066.113.137.045.318l-1.2 3.328c-.068.204-.226.341-.499.341-.114 0-.611-.022-1.971-.044-1.359 0-3.557-.023-7.092-.023-.837 0-1.471.023-1.924.023-.477.021-.771.044-.976.044-.135 0-.203-.044-.203-.158v-.61c0-.092.068-.114.227-.114h.906c1.043 0 1.133-.159 1.133-.997V8.676c0-1.883-.045-4.713-.067-4.939-.09-.726-.318-.884-1.157-.884h-.814c-.114 0-.182-.023-.182-.159v-.611c0-.069.046-.114.158-.114.499 0 1.292.067 2.787.067h.997c2.243 0 4.485-.022 6.729-.022.362 0 .793-.045.906-.045.114 0 .159.045.18.114.092.315 1.088 3.418 1.156 3.646.024.091.024.158-.067.204l-.341.181c-.066.044-.157-.022-.18-.069-.045-.09-1.721-2.241-2.266-2.58-.475-.319-1.108-.592-1.722-.612l-4.032-.09V9.4zm17.329 0c.18 0 2.604-.092 2.876-.136.657-.115.838-.297 1.042-.999.068-.226.157-.679.18-1.108 0-.112.068-.16.161-.16l.566.022c.112 0 .158.092.136.18-.069.387-.069 2.245-.069 2.584 0 .793.091 1.881.137 2.357 0 .113-.046.16-.137.18l-.496.069c-.116.022-.16-.048-.183-.203a12.02 12.02 0 0 0-.249-1.064c-.136-.478-.384-.816-.974-.885-1.065-.114-2.628-.114-2.99-.114v1.406c0 1.222.044 3.421.044 3.873.023 1.177.589 1.631 1.292 1.768.453.091 1.11.159 1.676.159.385 0 1.518-.024 1.994-.068.387-.047 1.382-.296 1.971-.792.273-.227 1.54-1.858 1.857-2.381.069-.112.135-.203.271-.136l.361.204c.115.066.115.137.047.318l-1.203 3.328c-.067.204-.224.341-.497.341-.113 0-.613-.022-1.971-.044-1.36 0-3.557-.023-7.09-.023-.84 0-1.475.023-1.928.023-.475.021-.77.044-.973.044-.136 0-.204-.044-.204-.158v-.61c0-.092.068-.114.226-.114h.906c1.044 0 1.133-.159 1.133-.997V8.676c0-1.883-.044-4.713-.068-4.939-.088-.727-.313-.884-1.153-.884h-.815c-.113 0-.18-.023-.18-.159v-.611c0-.069.044-.114.158-.114.498 0 1.29.067 2.785.067h.999c2.24 0 4.484-.022 6.728-.022.361 0 .792-.045.904-.045.115 0 .161.045.183.114.091.315 1.087 3.418 1.156 3.646.022.091.022.158-.069.204l-.34.181c-.067.044-.16-.022-.182-.069-.044-.09-1.72-2.241-2.264-2.58-.477-.319-1.111-.592-1.721-.612l-4.033-.09V9.4zm14.994-4.419c0-1.337-.68-2.085-1.495-2.108l-.931-.021c-.112 0-.135-.09-.135-.159v-.59c0-.088.022-.134.135-.134.114 0 .295.022.635.022.34.023.84.045 1.609.045.771 0 1.248-.045 1.518-.045.293 0 .475.092.658.295.113.135 4.507 5.845 4.757 6.162.25.316 4.077 5.006 4.621 5.73h.093v-2.695c0-2.015-.022-3.126-.069-4.258-.023-.884-.136-3.104-.271-3.489-.181-.566-.613-.884-1.247-.884h-.724c-.091 0-.138-.045-.138-.159v-.59c0-.088.047-.134.138-.134.316 0 1.04.067 2.49.067 1.359 0 1.902-.067 2.197-.067.158 0 .182.067.182.158v.567c0 .09-.045.159-.135.159h-.612c-.612 0-.839.384-.884 1.245-.089 1.519-.089 3.762-.089 5.233v8.473c0 .318-.024.544-.116.544-.271 0-.475-.271-.543-.361-.021-.046-1.359-1.722-2.763-3.489-1.586-1.971-3.241-4.057-3.375-4.19-.251-.226-4.419-5.459-4.555-5.642h-.134v5.029c0 2.107.181 5.801.225 6.252.091.885.227 1.315.839 1.315h.68c.158 0 .181.068.181.204v.497c0 .138-.023.182-.181.182-.226 0-1.588-.067-2.197-.067-.477 0-2.039.067-2.265.067-.092 0-.114-.044-.114-.158v-.589c0-.067.022-.136.135-.136h.771c.659 0 .906-.272 1.02-1.381.045-.434.091-3.015.091-7.047V4.981zm24.828 10.149h.044c.089-.384 3.466-10.058 3.558-11.009.021-.182-.137-.568-.34-.839s-.499-.429-.908-.429h-.564c-.113 0-.137-.044-.137-.182v-.544c0-.091.023-.157.158-.157.205 0 .998.066 2.764.066 1.902 0 2.764-.066 2.992-.066.135 0 .158.066.158.157v.567c0 .09-.023.158-.158.158h-.907c-.565 0-.769.5-.634.905l3.535 11.373h.043c.25-.724 3.535-10.283 3.535-11.577 0-.361-.182-.701-.793-.701h-.612c-.136 0-.158-.068-.158-.205v-.52c0-.091.022-.157.181-.157.227 0 1.02.066 2.424.066 1.268 0 1.926-.066 2.107-.066.135 0 .16.044.16.157v.567c0 .09 0 .158-.16.158h-.543c-.385 0-.703.249-.908.613-.179.316-4.916 13.389-5.367 14.475-.114.249-.227.589-.477.589-.271 0-.383-.182-.499-.5l-4.19-12.435h-.046c-.202.612-4.327 12.256-4.462 12.506-.113.227-.249.429-.453.429-.183 0-.317-.09-.406-.362L96.012 3.668c-.225-.633-.543-.816-.974-.816h-.771c-.113 0-.138-.089-.138-.182v-.543c0-.113.024-.157.183-.157.181 0 .885.066 2.425.066 1.634 0 2.561-.066 2.788-.066.158 0 .18.066.18.133v.567c0 .114-.021.182-.18.182h-.387c-.59 0-.793.318-.655.816l3.648 11.462zm21.154 1.812c-1.609-.974-3.328-3.42-3.328-6.728 0-1.381.359-3.533 2.105-5.64 1.994-2.423 4.235-2.876 6.139-2.876 1.428 0 3.285.293 5.075 1.789 1.652 1.428 3.104 3.646 3.104 6.773 0 1.656-.523 3.376-1.701 4.963-1.381 1.835-3.398 3.192-6.524 3.192-1.11 0-3.081-.361-4.87-1.473m10.875-6.503c0-4.959-3.535-7.881-6.051-7.881-.338 0-1.879-.272-3.576 1.335-1.521 1.451-2.27 3.738-2.27 5.594 0 5.958 4.146 8.066 6.072 8.066 4.985.001 5.825-5.095 5.825-7.114m8.401 6.503c-1.607-.974-3.328-3.42-3.328-6.728 0-1.381.36-3.533 2.107-5.64 1.992-2.423 4.234-2.876 6.139-2.876 1.426 0 3.283.293 5.074 1.789 1.652 1.428 3.102 3.646 3.102 6.773 0 1.656-.52 3.376-1.699 4.963-1.379 1.835-3.396 3.192-6.522 3.192-1.114 0-3.084-.361-4.873-1.473m10.875-6.503c0-4.959-3.533-7.881-6.05-7.881-.339 0-1.881-.272-3.579 1.335-1.518 1.451-2.264 3.738-2.264 5.594 0 5.958 4.145 8.066 6.068 8.066 4.985.001 5.825-5.095 5.825-7.114m8.387-3.564c0-.676-.079-4.373-.13-4.817-.076-.626-.418-.729-1.121-.729h-1.43c-.132 0-.208-.026-.208-.183V.442c0-.104.076-.13.181-.13.34 0 1.484.079 3.828.079.676 0 3.281-.079 3.881-.079 3.36 0 6.174.391 8.465 2.344 1.692 1.458 2.894 3.62 2.894 6.642 0 2.996-.861 4.975-2.581 6.852-2.502 2.761-6.094 2.761-8.1 2.761-1.642 0-3.621-.079-4.794-.079-2.267 0-3.306.079-3.671.079-.132 0-.184-.053-.184-.183v-.678c0-.104.081-.158.21-.158h1.745c.496 0 .78-.206.833-.622.076-.549.182-6.41.182-8.441V6.875zm2.397 2.528c0 .34.026 4.766.053 6.38 0 .521.104.938.44 1.459.421.549 1.463.834 2.762.834 2.658 0 4.819-1.146 6.123-2.814 1.094-1.353 1.9-3.487 1.9-5.859 0-2.032-.887-4.377-2.137-5.755-1.354-1.485-3.646-2.502-6.537-2.502-.572 0-1.641 0-2.083.262-.364.232-.469.65-.495 1.224-.026 1.094-.026 4.507-.026 4.923v1.848zM32.267 29.734c-.26.129-.778.266-1.443.266-1.539 0-2.698-.979-2.698-2.77 0-1.709 1.16-2.869 2.852-2.869.682 0 1.109.146 1.296.243l-.17.576c-.268-.133-.647-.229-1.101-.229-1.281 0-2.131.819-2.131 2.255 0 1.336.77 2.195 2.099 2.195.428 0 .866-.09 1.15-.228l.146.561zm5.941-1.815c0 1.449-1.004 2.081-1.953 2.081-1.061 0-1.88-.778-1.88-2.017 0-1.313.859-2.082 1.945-2.082 1.125 0 1.888.818 1.888 2.018m-3.111.039c0 .858.494 1.508 1.191 1.508.681 0 1.189-.643 1.189-1.523 0-.665-.332-1.507-1.173-1.507-.843 0-1.207.777-1.207 1.522m5.632-.905c0-.407-.007-.738-.031-1.062h.623l.032.631h.026c.22-.371.583-.72 1.231-.72.535 0 .94.324 1.11.784h.015a1.66 1.66 0 0 1 .438-.511c.235-.177.494-.273.868-.273.518 0 1.288.341 1.288 1.7v2.309h-.697v-2.218c0-.754-.275-1.208-.851-1.208-.405 0-.721.3-.842.647a1.163 1.163 0 0 0-.057.355v2.423h-.697v-2.349c0-.623-.274-1.077-.818-1.077-.446 0-.768.356-.883.713a.985.985 0 0 0-.056.348v2.365h-.698v-2.857zm8.382 0c0-.407-.007-.738-.032-1.062h.624l.032.631h.025c.219-.371.583-.72 1.232-.72.534 0 .94.324 1.11.784h.015c.123-.217.276-.387.438-.511.235-.177.494-.273.867-.273.519 0 1.288.341 1.288 1.7v2.309h-.697v-2.218c0-.754-.274-1.208-.85-1.208-.406 0-.721.3-.844.647a1.196 1.196 0 0 0-.056.355v2.423h-.695v-2.349c0-.623-.277-1.077-.82-1.077-.447 0-.77.356-.882.713a.943.943 0 0 0-.058.348v2.365h-.698v-2.857zm11.662 1.787c0 .405.007.762.032 1.071h-.631l-.04-.639h-.018A1.473 1.473 0 0 1 58.82 30c-.614 0-1.353-.341-1.353-1.719v-2.292h.713v2.172c0 .744.227 1.248.875 1.248.478 0 .811-.331.94-.648.04-.106.062-.235.062-.364V25.99h.714v2.85zm2.806-1.787c0-.407-.007-.738-.032-1.062h.633l.04.647h.017c.194-.374.647-.736 1.296-.736.543 0 1.386.324 1.386 1.669v2.34h-.713v-2.259c0-.633-.235-1.159-.908-1.159-.47 0-.834.333-.956.729a1.026 1.026 0 0 0-.049.333v2.355h-.714v-2.857zm6.915-2.164c.008.242-.17.437-.452.437a.425.425 0 0 1-.432-.437c0-.25.187-.446.445-.446.269-.001.439.196.439.446M69.7 25.99h.713v3.921H69.7V25.99zm4.377-.941v.941h1.02v.542h-1.02v2.114c0 .487.136.763.535.763.192 0 .306-.015.412-.049l.032.533a1.658 1.658 0 0 1-.63.107c-.331 0-.6-.114-.771-.31-.203-.207-.275-.557-.275-1.019v-2.14h-.606v-.541h.606v-.722l.697-.219zm4.239-.16c.007.242-.172.437-.455.437a.423.423 0 0 1-.428-.437c0-.25.186-.446.444-.446.268-.001.439.196.439.446m-.794 1.101h.712v3.921h-.712V25.99zm3.914 2.089c.019.966.633 1.361 1.346 1.361.51 0 .818-.086 1.085-.202l.12.51c-.25.115-.678.252-1.302.252-1.208 0-1.93-.802-1.93-1.985s.7-2.113 1.841-2.113c1.279 0 1.619 1.126 1.619 1.846 0 .145-.017.261-.024.332h-2.755zm2.091-.51c.008-.453-.187-1.157-.989-1.157-.722 0-1.037.663-1.093 1.157h2.082zm3.097 1.613c.21.138.585.285.94.285.519 0 .76-.26.76-.584 0-.341-.2-.527-.728-.722-.704-.249-1.037-.641-1.037-1.108 0-.634.51-1.151 1.353-1.151.398 0 .745.115.965.242l-.179.518a1.544 1.544 0 0 0-.803-.226c-.421 0-.655.242-.655.536 0 .322.234.467.746.664.68.257 1.027.599 1.027 1.181 0 .688-.533 1.184-1.464 1.184a2.25 2.25 0 0 1-1.102-.274l.177-.545zm11.021-.212c0 .342.018.674.066.941h-.648l-.056-.492h-.024c-.217.306-.641.581-1.198.581-.795 0-1.201-.56-1.201-1.126 0-.947.844-1.467 2.357-1.459v-.08c0-.323-.092-.908-.89-.908-.368 0-.745.114-1.022.292l-.162-.469c.326-.212.795-.349 1.289-.349 1.197 0 1.488.817 1.488 1.604v1.465zm-.688-1.058c-.776-.02-1.66.119-1.66.882 0 .46.309.68.673.68a.979.979 0 0 0 .949-.657.786.786 0 0 0 .038-.225v-.68zm3.463-.859c0-.407-.009-.738-.032-1.062h.632l.042.647h.015c.195-.374.648-.736 1.297-.736.541 0 1.385.324 1.385 1.669v2.34h-.715v-2.259c0-.633-.234-1.159-.904-1.159-.471 0-.837.333-.955.729a.904.904 0 0 0-.051.333v2.355h-.713v-2.857zm9.506-2.894v4.738c0 .348.007.746.031 1.013h-.639l-.031-.68h-.018c-.219.439-.696.77-1.336.77-.947 0-1.678-.802-1.678-1.992-.008-1.306.803-2.106 1.758-2.106.6 0 1.004.283 1.182.6h.018V24.16h.713zm-.713 3.426c0-.09-.008-.209-.031-.298a1.05 1.05 0 0 0-1.03-.829c-.735 0-1.175.65-1.175 1.517 0 .794.389 1.449 1.158 1.449.479 0 .916-.316 1.047-.85.023-.096.031-.194.031-.308v-.681zm6.885-3.061a7.208 7.208 0 0 1 1.35-.114c.754 0 1.24.139 1.582.445.277.243.43.615.43 1.037 0 .722-.456 1.199-1.03 1.395v.022c.423.146.673.535.802 1.104.178.761.309 1.288.423 1.497h-.731c-.086-.162-.209-.624-.363-1.303-.16-.754-.452-1.038-1.092-1.062h-.666v2.364h-.703v-5.385zm.703 2.488h.721c.754 0 1.23-.413 1.23-1.037 0-.706-.508-1.013-1.255-1.023-.34 0-.583.034-.696.065v1.995zm5.682 1.067c.017.966.632 1.361 1.345 1.361.51 0 .817-.086 1.086-.202l.121.51c-.25.115-.68.252-1.305.252-1.207 0-1.93-.802-1.93-1.985s.699-2.113 1.842-2.113c1.279 0 1.619 1.126 1.619 1.846 0 .145-.018.261-.024.332h-2.754zm2.091-.51c.008-.453-.188-1.157-.989-1.157-.721 0-1.037.663-1.095 1.157h2.084zm3.096 1.613c.211.138.585.285.941.285.52 0 .762-.26.762-.584 0-.341-.201-.527-.729-.722-.706-.249-1.037-.641-1.037-1.108 0-.634.51-1.151 1.354-1.151a2 2 0 0 1 .964.242l-.181.518a1.536 1.536 0 0 0-.801-.226c-.424 0-.656.242-.656.536 0 .322.232.467.746.664.681.257 1.027.599 1.027 1.181 0 .688-.533 1.184-1.467 1.184-.428 0-.826-.114-1.101-.274l.178-.545zm8.476-1.263c0 1.449-1.006 2.081-1.951 2.081-1.062 0-1.881-.778-1.881-2.017 0-1.313.861-2.082 1.945-2.082 1.127 0 1.887.818 1.887 2.018m-3.11.039c0 .858.493 1.508 1.189 1.508.683 0 1.192-.643 1.192-1.523 0-.665-.334-1.507-1.175-1.507-.842 0-1.206.777-1.206 1.522m5.634-.745c0-.46-.006-.857-.031-1.223h.623l.025.77h.03c.179-.527.609-.858 1.087-.858.082 0 .138.008.203.025v.672a1.103 1.103 0 0 0-.246-.025c-.5 0-.856.38-.955.914a2.052 2.052 0 0 0-.033.334v2.089h-.703v-2.698zm5.324-2.164v.941h1.021v.542h-1.021v2.114c0 .487.14.763.535.763.195 0 .308-.015.413-.049l.03.533a1.651 1.651 0 0 1-.629.106c-.333 0-.602-.114-.77-.31-.202-.207-.275-.557-.275-1.019v-2.14h-.607v-.54h.607v-.722l.696-.219zm3.35 4.133c.211.138.584.285.939.285.518 0 .762-.26.762-.584 0-.341-.201-.527-.729-.722-.705-.249-1.039-.641-1.039-1.108 0-.634.512-1.151 1.352-1.151a2 2 0 0 1 .967.242l-.18.518a1.545 1.545 0 0 0-.801-.226c-.421 0-.658.242-.658.536 0 .322.237.467.747.664.681.257 1.028.599 1.028 1.181 0 .688-.533 1.184-1.465 1.184-.43 0-.828-.114-1.104-.274l.181-.545zm31.366-13.3h-1.04v-.376h2.531v.376h-1.045v3.045h-.446zm4.63 1.54a31.345 31.345 0 0 1-.055-1.475h-.011a23.56 23.56 0 0 1-.434 1.3l-.603 1.659h-.334l-.561-1.63c-.16-.481-.293-.924-.39-1.329h-.009c-.012.427-.035 1-.066 1.513l-.092 1.467h-.422l.24-3.421h.562l.583 1.653c.144.423.253.803.345 1.158h.01c.092-.345.215-.726.366-1.158l.609-1.653h.562l.214 3.421h-.437l-.077-1.505z" fill="#FFF"/></svg>