<?xml version="1.0" encoding="utf-8"?>
<!-- Generator: Adobe Illustrator 16.0.0, SVG Export Plug-In . SVG Version: 6.00 Build 0)  -->
<!DOCTYPE svg PUBLIC "-//W3C//DTD SVG 1.1//EN" "http://www.w3.org/Graphics/SVG/1.1/DTD/svg11.dtd">
<svg version="1.1" id="_x32__trees_x5F_in_sun_copy_3"
	 xmlns="http://www.w3.org/2000/svg" xmlns:xlink="http://www.w3.org/1999/xlink" x="0px" y="0px" width="412.982px"
	 height="93.461px" viewBox="0 0 412.982 93.461" enable-background="new 0 0 412.982 93.461" xml:space="preserve">
<g>
	<g>
		<path fill="#FEBE10" d="M21.135,31.914c-1.585,0.217-3.186,0.386-4.65,0.456l0.062,0.111c0,0,0.446,0.825,1.067,2.068
			c1.034-0.474,2.183-0.983,3.377-1.494C21.049,32.569,21.103,32.18,21.135,31.914z M26.145,32.892
			c-0.121,2.083-1.354,5.115-2.555,7.636c1.809-2.583,4.104-5.271,5.035-6.338c-0.402-0.835-0.791-1.505-1.088-1.979
			C27.09,32.434,26.624,32.659,26.145,32.892z M24.781,33.54c-0.829,0.386-1.68,0.763-2.533,1.127
			c0.022,0.375,0.034,0.77,0.034,1.174c0,1.456-0.138,3.051-0.316,4.519C22.787,37.965,23.952,35.32,24.781,33.54z M30.312,39.65
			c-1.363,1.303-3.602,2.694-5.542,3.786c2.06-0.776,4.422-1.477,5.714-1.843c-0.004-0.103-0.008-0.204-0.014-0.3
			C30.447,40.734,30.393,40.186,30.312,39.65z M24.895,45.624c2.1,0.477,4.412,1.175,5.727,1.589
			c-0.013-0.621-0.021-1.229-0.032-1.811c-1.101,0.192-2.489,0.255-3.858,0.255C26.104,45.657,25.48,45.644,24.895,45.624z
			 M24.699,44.589c1.273-0.091,2.691-0.118,3.953-0.118c0.705,0,1.357,0.005,1.916,0.019c-0.018-0.755-0.035-1.454-0.057-2.083
			C29.103,43.257,26.709,44.032,24.699,44.589z M24.115,42.312c2.05-1.458,4.532-2.928,5.998-3.767
			c-0.271-1.278-0.659-2.439-1.078-3.434C28.342,37.249,26.027,40.151,24.115,42.312z M20.74,35.282
			c-0.805,0.317-1.594,0.604-2.353,0.851c0.673,1.408,1.412,3.046,2.009,4.604C20.423,38.921,20.574,36.942,20.74,35.282z
			 M15.434,36.888c1.022,1.141,2.213,2.526,3.262,3.894c-0.678-1.356-1.35-2.833-1.824-4.203
			C16.366,36.71,15.881,36.815,15.434,36.888z M21.621,31.847c0.128,0.234,0.234,0.504,0.317,0.805
			c1.243-0.519,2.507-1.022,3.726-1.471C24.406,31.413,23.026,31.647,21.621,31.847z M36.299,0C16.252,0,0,16.252,0,36.303
			c0,10.957,4.862,20.776,12.54,27.43c3.239-0.523,6.671-0.938,10.239-1.24c-0.293-2.109-1.176-8.4-1.604-10.828
			c-0.434-2.473-1.825-4.196-2.225-4.646c-2.264,1.542-5.461,3.554-7.084,3.564c-0.088,0-0.17-0.004-0.252-0.016l-0.259-0.043
			l0.217-0.148c0.002-0.002,3.079-2.117,5.894-3.675c-2.102,0.684-4.691,1.408-6.333,1.408c-0.454,0-0.837-0.056-1.124-0.188
			l-0.244-0.114l0.254-0.082c0.002-0.003,3.938-1.332,7.186-2.046h-0.237c-2.693-0.006-5.798-0.174-6.796-1.07L9.976,44.43
			l0.268-0.006c0,0,0.612-0.015,1.558-0.015c1.264,0,3.107,0.026,4.863,0.137c-3.058-0.741-6.616-1.84-7.504-3.242l-0.132-0.211
			l0.246,0.049c0.002,0.004,4.233,0.929,7.785,2.113c-3.031-1.816-6.823-4.403-7.258-6.429l-0.05-0.232l0.208,0.118
			c0.002,0.004,4.04,2.361,7.271,4.806c-1.328-1.45-2.683-3.092-3.537-4.56c-0.185-0.02-0.362-0.049-0.521-0.099l-0.254-0.081
			l0.237-0.118c0,0,0.103-0.051,0.292-0.144c-0.399-0.759-0.643-1.456-0.646-2.055c0-0.047,0.005-0.091,0.009-0.134l0.02-0.232
			l0.162,0.166c0.002,0.002,0.66,0.676,1.599,1.7c0.51-0.242,1.134-0.54,1.841-0.869c-0.142-0.597-0.226-1.147-0.226-1.639
			c0-0.355,0.045-0.677,0.147-0.958l0.042-0.124c-0.439,0.021-0.869,0.03-1.278,0.03c-1.818,0-3.31-0.2-4.162-0.751l-0.221-0.146
			l0.259-0.048c0.002,0,8.242-1.539,14.434-1.912c-5.123-0.667-11.64-1.842-13.306-3.837l-0.167-0.205l0.264,0.032
			c0.002,0,6.9,0.824,12.676,2.099c-5.557-2.15-12.453-5.273-13.736-8.167l-0.097-0.229l0.229,0.086
			c0.004,0,8.045,2.994,14.293,6.195c-5.119-4.092-11.848-10.107-12.108-13.973l-0.013-0.235l0.184,0.146
			c0.002,0.003,7.39,5.852,12.7,11.351c-3.304-4.716-6.849-10.567-6.855-14.119c0-0.308,0.026-0.597,0.081-0.868l0.05-0.234
			l0.142,0.19c0,0.003,5.471,7.455,9.137,14.114c-1.533-4.434-3.031-9.677-3.031-13.344c0-1.253,0.174-2.326,0.592-3.123
			l0.111-0.209l0.084,0.221c0,0.004,3.297,8.926,4.963,16.406c1.133-7.616,3.875-16.941,3.875-16.943l0.07-0.23l0.125,0.204
			c0.592,0.975,0.825,2.413,0.825,4.124c0,3.722-1.124,8.736-2.29,12.94c3.551-7.232,9.617-15.988,9.617-15.992l0.137-0.195
			l0.055,0.231c0.072,0.319,0.109,0.667,0.111,1.033c-0.011,3.966-4.007,10.679-7.428,15.728
			c5.135-5.683,12.436-11.829,12.436-11.829l0.184-0.156l-0.008,0.238c-0.155,3.978-7.039,10.413-12.057,14.641
			c6.297-3.354,14.997-6.616,15.001-6.618l0.235-0.088L52.41,19.16c-1.376,3.104-9.157,6.472-14.83,8.614
			c5.951-1.447,13.926-2.409,13.928-2.409l0.266-0.035l-0.168,0.208c-1.76,2.12-8.957,3.316-14.156,3.954
			c6.195,0.321,14.797,1.938,14.799,1.938l0.26,0.046l-0.221,0.146c-0.848,0.556-2.332,0.751-4.141,0.754
			c-3.176,0-7.336-0.636-10.616-1.248c5.731,2.084,12.757,5.599,12.757,5.601l0.236,0.121l-0.252,0.078
			c-0.302,0.092-0.649,0.131-1.041,0.131c-3.255-0.004-9.543-2.91-13.732-5.035c-0.881,1.64-2.271,5.219-2.614,7.693
			c-0.17,1.206-0.212,7.346-0.212,12.908c0,4.254,0.024,8.182,0.034,9.348l0,0c1.15-0.025,2.31-0.043,3.479-0.043
			c8.571,0,16.664,0.664,23.835,1.838c7.702-6.656,12.581-16.489,12.581-27.463C72.602,16.252,56.352,0,36.299,0z M30.551,47.946
			c-1.846-0.002-4.875-0.902-7.053-1.639c-0.305,0.683-0.776,3.078-0.782,4.544v0.047c0.021,1.215,1.181,9.229,1.508,11.465
			l0.002,0.012c2.128-0.16,4.308-0.275,6.528-0.352V62.02c-0.008-1.588-0.035-8.33-0.122-14.076
			C30.603,47.946,30.576,47.946,30.551,47.946z"/>
	</g>
</g>
<g>
	<g>
		<g>
			<path fill="#004270" d="M382.88,30.848c0-0.41-0.248-0.557-0.479-0.557c-0.127,0-0.299,0.059-0.391,0.34
				c-0.131,0.34-0.232,1.088-0.314,1.711c-1.32,0.547-3.729,0.922-7.158,1.117c-0.109,0.006-0.215,0.01-0.318,0.01
				c-0.215,0-0.436-0.014-0.664-0.043c-0.096-1.746-0.098-4.969-0.098-7.209h1.09c1.674,0,4.916,0.236,6.191,0.598l0.004,0.02
				c0.08,0.676,0.115,0.758,0.307,1.139c0.098,0.25,0.297,0.289,0.406,0.289c0.205,0,0.426-0.133,0.426-0.508
				c0-0.199-0.023-0.447-0.051-0.762c-0.045-0.498-0.041-0.506-0.041-1.361c0-0.822-0.004-1.012,0.041-1.436
				c0.025-0.227,0.043-0.396,0.043-0.508c0-0.375-0.221-0.508-0.426-0.508c-0.109,0-0.309,0.039-0.412,0.305l-0.102,0.426
				c-0.092,0.385-0.096,0.271-0.141,0.578c-1.299,0.504-4.633,0.877-6.246,0.877h-1.09c0-2.354,0.002-5.455,0.096-7.127
				c0.303-0.031,0.654-0.031,0.994-0.031c1.531,0.049,5.236,0.256,6.9,1.1c0.031,0.42,0.09,1.186,0.242,1.67
				c0.086,0.299,0.236,0.451,0.443,0.451c0.287,0,0.48-0.236,0.48-0.588c0-0.25-0.033-0.6-0.07-0.971
				c-0.043-0.438-0.092-0.932-0.092-1.344c0-0.41,0.057-0.959,0.1-1.4c0.035-0.332,0.062-0.617,0.062-0.783
				c0-0.312-0.176-0.531-0.428-0.531c-0.266,0-0.346,0.162-0.396,0.271c-0.094,0.162-0.172,0.469-0.244,0.938
				c-1.713,0.125-3.469,0.229-6.998,0.229c-1.383,0-2.594-0.035-3.566-0.062l-0.74-0.02c-0.98-0.049-1.758-0.078-1.975-0.078
				c-0.262,0-0.453,0.189-0.453,0.451c0,0.201,0.164,0.344,0.316,0.391c0.547,0.176,1.709,0.299,2.248,0.324
				c0.098,1.82,0.098,5.129,0.098,7.564c0,2.309,0,5.762-0.098,7.59c-0.539,0.027-1.699,0.148-2.248,0.324
				c-0.154,0.049-0.316,0.191-0.316,0.389c0,0.264,0.191,0.453,0.453,0.453c0.068,0,0.207-0.006,0.408-0.018
				c0.342-0.018,0.873-0.045,1.566-0.062c1.074-0.053,2.523-0.078,4.307-0.078c3.883,0,5.523,0.047,7.234,0.32
				c0.023,0.186,0.059,0.429,0.148,0.696c0.107,0.322,0.301,0.391,0.443,0.391c0.293,0,0.506-0.234,0.506-0.559
				c0-0.159-0.025-0.433-0.059-0.778c-0.045-0.479-0.102-1.07-0.102-1.535c0-0.545,0.064-1.119,0.111-1.537
				C382.859,31.164,382.88,30.965,382.88,30.848z"/>
			<path fill="#004270" d="M98.836,12.641c-1.117,0-2.318,0.062-3.555,0.135c-1.299,0.111-2.268,0.166-2.965,0.166
				c-0.49,0-1.102-0.031-1.691-0.061c-0.295-0.014-0.592-0.029-0.875-0.039c-0.816-0.062-1.635-0.1-2.182-0.1
				c-0.303,0-0.521,0.219-0.521,0.52c0,0.223,0.186,0.387,0.361,0.445c0.691,0.221,2.203,0.352,2.857,0.398
				c0.125,2.277,0.125,6.473,0.125,9.557c0,2.924,0,7.305-0.125,9.59c-0.652,0.047-2.162,0.178-2.855,0.398
				c-0.178,0.059-0.363,0.223-0.363,0.443c0,0.303,0.219,0.521,0.521,0.521c0.066,0,0.225-0.012,0.465-0.031
				c0.719-0.055,2.213-0.168,4.182-0.168c2.137,0,3.814,0.113,4.619,0.168c0.275,0.02,0.457,0.031,0.533,0.031
				c0.301,0,0.52-0.219,0.52-0.521c0-0.221-0.188-0.383-0.359-0.443c-0.885-0.236-2.76-0.365-3.361-0.4
				c-0.123-2.123-0.127-6.023-0.127-8.488c0.246,0.014,0.49,0.029,0.736,0.043c0.947,0.057,1.926,0.113,2.891,0.113
				c4.967,0,8.713-2.84,8.713-6.607C106.379,14.654,103.701,12.641,98.836,12.641z M102.562,19.047c0,3.07-2.113,4.832-5.799,4.832
				c-0.713,0-1.441-0.057-2.146-0.111c-0.191-0.016-0.385-0.031-0.578-0.045c0-2.818,0.004-7.33,0.127-9.727
				c0.119-0.02,0.252-0.043,0.398-0.068c0.574-0.104,1.361-0.244,2.4-0.244C99.66,13.684,102.562,15.361,102.562,19.047z"/>
			<path fill="#004270" d="M126.396,33.732c-0.439-0.154-1.369-0.258-2.113-0.318l-3.014-7.348c-1.121-2.73-2.514-6.711-2.898-7.971
				c-0.449-1.418-0.527-1.621-0.764-1.621c-0.215,0-0.303,0.205-0.381,0.385l-0.031,0.07c-1.143,3.281-4.584,11.719-7.418,16.537
				c-0.705,0.051-1.561,0.127-1.996,0.266c-0.152,0.049-0.316,0.193-0.316,0.389c0,0.264,0.191,0.453,0.453,0.453
				c0.023,0,0.096-0.006,0.211-0.016c0.42-0.039,1.531-0.143,2.957-0.143c1.568,0,2.762,0.092,3.336,0.137
				c0.178,0.014,0.293,0.021,0.338,0.021c0.262,0,0.453-0.189,0.453-0.453c0-0.197-0.164-0.34-0.314-0.389
				c-0.656-0.178-2.121-0.281-2.721-0.316c0.158-0.971,0.727-2.893,1.223-4.299h5.871c0.443,0.977,1.008,2.777,1.385,3.984
				l0.109,0.344c-0.57,0.035-1.941,0.131-2.639,0.281c-0.17,0.055-0.334,0.199-0.334,0.395c0,0.264,0.191,0.453,0.453,0.453
				c0.068,0,0.221-0.01,0.449-0.025c0.646-0.043,1.992-0.133,3.783-0.133c1.66,0,2.869,0.094,3.451,0.137
				c0.172,0.014,0.283,0.021,0.328,0.021c0.264,0,0.453-0.189,0.453-0.453C126.711,33.924,126.549,33.781,126.396,33.732z
				 M118.902,28.213h-5.154c0.488-1.297,1.809-4.418,2.604-6.275L118.902,28.213z"/>
			<path fill="#004270" d="M145.959,30.316c0-0.412-0.248-0.559-0.48-0.559c-0.127,0-0.297,0.059-0.391,0.34
				c-0.146,0.441-0.281,1.477-0.344,1.992c-1.473,0.82-4.471,1.369-6.398,1.369c-0.363,0-0.684,0-0.994-0.035
				c-0.098-1.848-0.098-5.299-0.098-7.605c0-2.439,0-5.752,0.098-7.57c0.537-0.041,1.709-0.145,2.248-0.318
				c0.152-0.047,0.316-0.191,0.316-0.391c0-0.262-0.189-0.451-0.453-0.451c-0.045,0-0.158,0.008-0.334,0.021
				c-0.576,0.045-1.773,0.139-3.363,0.139c-1.523,0-2.67-0.088-3.287-0.135c-0.211-0.016-0.352-0.025-0.414-0.025
				c-0.262,0-0.453,0.189-0.453,0.451c0,0.201,0.164,0.344,0.316,0.391c0.539,0.174,1.709,0.277,2.248,0.318
				c0.096,1.818,0.096,5.131,0.096,7.57c0,2.312,0,5.77-0.096,7.598c-0.539,0.041-1.709,0.145-2.248,0.316
				c-0.154,0.049-0.316,0.191-0.316,0.389c0,0.264,0.191,0.453,0.453,0.453c0.068,0,0.205-0.006,0.406-0.018
				c0.342-0.018,0.873-0.045,1.566-0.062c1.074-0.053,2.523-0.078,4.309-0.078c3.543,0,4.957,0.045,6.514,0.318
				c0.023,0.188,0.061,0.429,0.15,0.696c0.107,0.324,0.299,0.393,0.443,0.393c0.293,0,0.506-0.234,0.506-0.559
				c0-0.146-0.025-0.409-0.057-0.745c-0.047-0.488-0.105-1.096-0.105-1.568c0-0.326,0.049-0.959,0.092-1.518
				C145.928,30.941,145.959,30.518,145.959,30.316z"/>
			<path fill="#004270" d="M173.621,33.732c-0.543-0.174-1.719-0.277-2.256-0.316c-0.279-3.207-0.947-11.613-0.969-15.094
				c0.521-0.049,1.533-0.195,1.936-0.373c0.15-0.033,0.352-0.234,0.352-0.436c0-0.193-0.117-0.4-0.451-0.4
				c-0.246,0-0.574,0.029-0.922,0.061c-0.396,0.037-0.809,0.074-1.154,0.074c-0.648,0-1.803-0.084-2.158-0.133l-0.145-0.021
				l-0.055,0.135l-0.24,0.596c-0.262,0.654-0.51,1.273-0.795,1.902l-3.26,7.412l-3.596-6.102c-0.518-0.838-1.018-1.713-1.502-2.559
				c-0.242-0.426-0.486-0.852-0.732-1.273l-0.064-0.109l-0.125,0.02c-0.562,0.084-1.135,0.133-1.57,0.133
				c-0.57,0-1.379-0.055-1.969-0.096c-0.342-0.021-0.611-0.039-0.719-0.039c-0.305,0-0.508,0.17-0.508,0.426
				c0,0.465,0.553,0.543,1.088,0.617c0.426,0.061,0.906,0.127,1.119,0.361c0.525,0.6,0.881,1.176,1.17,1.674
				c-0.041,0.48-0.084,1.012-0.131,1.58c-0.301,3.666-0.754,9.172-1.445,11.643c-0.521,0.037-1.73,0.143-2.281,0.318
				c-0.154,0.049-0.316,0.191-0.316,0.389c0,0.264,0.191,0.453,0.453,0.453c0.045,0,0.16-0.008,0.334-0.023
				c0.533-0.043,1.646-0.135,3.1-0.135c1.316,0,2.418,0.09,2.947,0.135c0.184,0.014,0.305,0.023,0.354,0.023
				c0.262,0,0.451-0.189,0.451-0.453c0-0.197-0.162-0.34-0.314-0.389c-0.535-0.172-1.664-0.273-2.26-0.316
				c-0.152-1.307-0.301-3.395-0.301-5.018c0-1.564,0.221-5.344,0.312-6.807l3.121,5.305c0.557,0.959,1.225,2.104,1.73,2.957
				l0.027,0.045c0.338,0.566,0.525,0.818,0.746,0.818c0.252,0,0.408-0.303,0.605-0.732c0.023-0.055,0.047-0.104,0.066-0.143
				c1.01-2.5,2.93-6.504,4.125-8.896c0.275,2.631,0.846,9.781,0.871,12.471c-0.545,0.041-1.703,0.145-2.238,0.316
				c-0.154,0.049-0.316,0.191-0.316,0.389c0,0.264,0.189,0.453,0.453,0.453c0.053,0,0.18-0.008,0.373-0.023
				c0.57-0.043,1.76-0.135,3.326-0.135c1.5,0,2.682,0.092,3.25,0.137c0.18,0.014,0.297,0.021,0.344,0.021
				c0.262,0,0.453-0.189,0.453-0.453C173.936,33.926,173.773,33.783,173.621,33.732z"/>
			<path fill="#004270" d="M196.562,30.848c0-0.41-0.248-0.557-0.479-0.557c-0.127,0-0.299,0.059-0.391,0.34
				c-0.131,0.34-0.232,1.088-0.314,1.711c-1.32,0.547-3.729,0.922-7.158,1.117c-0.109,0.006-0.215,0.01-0.318,0.01
				c-0.215,0-0.436-0.014-0.664-0.043c-0.096-1.746-0.098-4.969-0.098-7.209h1.09c1.674,0,4.916,0.236,6.191,0.598l0.004,0.02
				c0.08,0.676,0.115,0.758,0.307,1.139c0.098,0.25,0.297,0.289,0.406,0.289c0.205,0,0.426-0.133,0.426-0.508
				c0-0.199-0.023-0.447-0.051-0.762c-0.045-0.498-0.041-0.506-0.041-1.361c0-0.822-0.004-1.012,0.041-1.436
				c0.025-0.227,0.043-0.396,0.043-0.508c0-0.375-0.221-0.508-0.426-0.508c-0.109,0-0.309,0.039-0.412,0.305l-0.102,0.426
				c-0.092,0.385-0.096,0.271-0.141,0.578c-1.299,0.504-4.633,0.877-6.246,0.877h-1.09c0-2.354,0.002-5.455,0.096-7.127
				c0.303-0.031,0.654-0.031,0.994-0.031c1.531,0.049,5.236,0.256,6.9,1.1c0.031,0.42,0.09,1.186,0.242,1.67
				c0.086,0.299,0.236,0.451,0.443,0.451c0.287,0,0.48-0.236,0.48-0.588c0-0.25-0.033-0.6-0.07-0.971
				c-0.043-0.438-0.092-0.932-0.092-1.344c0-0.41,0.057-0.959,0.1-1.4c0.035-0.332,0.062-0.617,0.062-0.783
				c0-0.312-0.176-0.531-0.428-0.531c-0.266,0-0.346,0.162-0.396,0.271c-0.094,0.162-0.172,0.469-0.244,0.938
				c-1.713,0.125-3.469,0.229-6.998,0.229c-1.383,0-2.594-0.035-3.566-0.062l-0.74-0.02c-0.98-0.049-1.758-0.078-1.975-0.078
				c-0.262,0-0.453,0.189-0.453,0.451c0,0.201,0.164,0.344,0.316,0.391c0.547,0.176,1.709,0.299,2.248,0.324
				c0.098,1.82,0.098,5.129,0.098,7.564c0,2.309,0,5.762-0.098,7.59c-0.539,0.027-1.699,0.148-2.248,0.324
				c-0.154,0.049-0.316,0.191-0.316,0.389c0,0.264,0.191,0.453,0.453,0.453c0.068,0,0.207-0.006,0.408-0.018
				c0.342-0.018,0.873-0.045,1.566-0.062c1.074-0.053,2.523-0.078,4.307-0.078c3.883,0,5.523,0.047,7.234,0.32
				c0.023,0.186,0.059,0.429,0.148,0.696c0.107,0.322,0.301,0.391,0.443,0.391c0.293,0,0.506-0.234,0.506-0.559
				c0-0.159-0.025-0.433-0.059-0.778c-0.045-0.479-0.102-1.07-0.102-1.535c0-0.545,0.064-1.119,0.111-1.537
				C196.541,31.164,196.562,30.965,196.562,30.848z"/>
			<path fill="#004270" d="M221.264,16.129c0-0.324-0.211-0.559-0.504-0.559c-0.145,0-0.338,0.068-0.441,0.395
				c-0.088,0.299-0.111,0.592-0.127,0.805c-0.002,0.02-0.004,0.039-0.004,0.057c-1.975,0.4-6.219,0.422-7.066,0.422
				c-1.189,0-5.15-0.031-7.068-0.422c-0.002-0.021-0.004-0.043-0.006-0.066c-0.016-0.211-0.037-0.5-0.119-0.789
				c-0.111-0.332-0.303-0.4-0.447-0.4c-0.293,0-0.506,0.234-0.506,0.559c0,0.156,0.029,0.539,0.064,0.984
				c0.045,0.588,0.096,1.256,0.096,1.598c0,0.539-0.07,1.309-0.117,1.818c-0.025,0.271-0.043,0.479-0.043,0.553
				c0,0.41,0.248,0.557,0.48,0.557c0.113,0,0.314-0.045,0.393-0.352c0.102-0.359,0.232-1.229,0.291-1.936
				c1.125-0.697,2.984-1.074,5.395-1.092c0.096,1.844,0.096,5.15,0.096,7.584c0,2.439,0,5.754-0.096,7.572
				c-0.539,0.041-1.711,0.145-2.25,0.316c-0.154,0.049-0.316,0.191-0.316,0.389c0,0.264,0.191,0.453,0.453,0.453
				c0.045,0,0.16-0.008,0.336-0.021c0.576-0.045,1.775-0.137,3.365-0.137c1.52,0,2.666,0.086,3.281,0.133
				c0.213,0.016,0.354,0.025,0.418,0.025c0.262,0,0.451-0.189,0.451-0.453c0-0.197-0.162-0.34-0.312-0.389
				c-0.535-0.17-1.652-0.271-2.25-0.316c-0.098-1.818-0.098-5.133-0.098-7.572c0-2.434,0-5.74,0.098-7.584
				c2.379,0.018,4.146,0.377,5.393,1.096c0.061,0.705,0.189,1.572,0.291,1.936c0.084,0.234,0.215,0.348,0.395,0.348
				c0.23,0,0.477-0.146,0.477-0.557c0-0.074-0.018-0.279-0.041-0.553c-0.047-0.51-0.117-1.279-0.117-1.818
				c0-0.342,0.051-1.01,0.096-1.598C221.234,16.668,221.264,16.285,221.264,16.129z"/>
			<path fill="#004270" d="M245.172,16.129c0-0.318-0.219-0.559-0.508-0.559c-0.143,0-0.334,0.068-0.441,0.393
				c-0.088,0.301-0.109,0.592-0.125,0.805c-0.002,0.02-0.004,0.041-0.006,0.059c-1.977,0.4-6.219,0.422-7.066,0.422
				c-1.189,0-5.148-0.031-7.066-0.422c-0.002-0.016-0.004-0.035-0.006-0.053c-0.016-0.215-0.037-0.508-0.121-0.803
				c-0.111-0.332-0.305-0.4-0.447-0.4c-0.293,0-0.506,0.234-0.506,0.559c0,0.156,0.029,0.539,0.064,0.984
				c0.045,0.588,0.096,1.256,0.096,1.598c0,0.539-0.07,1.309-0.117,1.818c-0.023,0.271-0.043,0.479-0.043,0.553
				c0,0.41,0.248,0.557,0.48,0.557c0.092,0,0.316-0.033,0.395-0.354c0.109-0.383,0.234-1.285,0.289-1.934
				c1.127-0.697,2.986-1.074,5.395-1.092c0.098,1.844,0.098,5.15,0.098,7.584c0,2.439,0,5.754-0.098,7.572
				c-0.6,0.045-1.717,0.146-2.25,0.316c-0.152,0.049-0.314,0.193-0.314,0.389c0,0.264,0.189,0.453,0.451,0.453
				c0.045,0,0.16-0.008,0.336-0.021c0.578-0.045,1.777-0.137,3.365-0.137c1.52,0,2.668,0.086,3.283,0.133
				c0.211,0.016,0.354,0.025,0.416,0.025c0.262,0,0.453-0.189,0.453-0.453c0-0.197-0.164-0.34-0.314-0.389
				c-0.533-0.17-1.65-0.271-2.25-0.316c-0.098-1.818-0.098-5.133-0.098-7.572c0-2.434,0-5.74,0.098-7.584
				c2.379,0.018,4.145,0.377,5.393,1.096c0.057,0.652,0.18,1.543,0.293,1.936c0.094,0.289,0.266,0.348,0.393,0.348
				c0.232,0,0.48-0.146,0.48-0.557c0-0.074-0.02-0.281-0.043-0.553c-0.047-0.51-0.119-1.279-0.119-1.818
				c0-0.342,0.053-1.01,0.098-1.598C245.143,16.668,245.172,16.285,245.172,16.129z"/>
			<path fill="#004270" d="M262.394,16.795c-5.449,0-9.557,3.902-9.557,9.076c0,5.549,3.662,8.996,9.557,8.996
				c5.121,0,9.131-3.951,9.131-8.996C271.525,20.357,267.941,16.795,262.394,16.795z M267.957,25.871c0,4.027-1.719,8.09-5.562,8.09
				c-4.42,0-5.99-4.357-5.99-8.09c0-5.117,2.24-8.172,5.99-8.172C267.8,17.699,267.957,25.035,267.957,25.871z"/>
			<path fill="#004270" d="M299.531,12.742c-0.852,0-1.922,0.053-2.957,0.104c-0.979,0.049-1.902,0.096-2.594,0.096
				c-1.117,0-2.258-0.072-3.176-0.129c-0.607-0.039-1.131-0.07-1.471-0.07c-0.309,0-0.523,0.213-0.523,0.52
				c0,0.223,0.188,0.387,0.361,0.445c0.693,0.221,2.207,0.352,2.861,0.398c0.121,2.277,0.121,6.473,0.121,9.557
				c0,2.922,0,7.303-0.121,9.59c-0.654,0.047-2.164,0.178-2.859,0.398c-0.176,0.059-0.363,0.223-0.363,0.443
				c0,0.307,0.215,0.521,0.523,0.521c0.066,0,0.225-0.012,0.463-0.029c0.719-0.057,2.213-0.17,4.184-0.17
				c0.9,0,1.668,0.053,2.41,0.104c0.729,0.049,1.416,0.096,2.205,0.096c5.918,0,11.889-3.5,11.889-11.322
				C310.484,17.08,305.98,12.742,299.531,12.742z M306.3,23.828c0,6.104-2.943,9.746-7.873,9.746c-0.568,0-1.064-0.094-1.588-0.193
				c-0.291-0.057-0.592-0.113-0.91-0.154c-0.125-2.381-0.125-6.861-0.125-9.564s0-7.191,0.125-9.57l0.107-0.018
				c0.922-0.15,1.793-0.291,2.76-0.291C304.732,13.783,306.3,20.354,306.3,23.828z"/>
			<path fill="#004270" d="M334.718,17.088c-0.033,0-0.119,0.008-0.252,0.021c-0.42,0.045-1.293,0.139-2.408,0.139
				c-1.455,0-2.566-0.094-3.1-0.137c-0.174-0.016-0.287-0.023-0.334-0.023c-0.262,0-0.453,0.189-0.453,0.451
				c0,0.201,0.164,0.344,0.316,0.391c0.537,0.172,1.672,0.275,2.266,0.318c0.223,1.408,0.613,5.346,0.613,7.941
				c0,2.908,0,7.771-5.217,7.771c-1.486,0-2.498-0.416-3.18-1.311c-0.791-1.035-0.99-2.107-1.08-3.018
				c-0.18-1.775-0.088-7.447-0.055-8.867c0.012-0.594,0.023-1.062,0.033-1.449c0.01-0.445,0.02-0.783,0.021-1.07
				c0.6-0.045,1.711-0.146,2.238-0.316c0.152-0.047,0.314-0.189,0.314-0.391c0-0.262-0.189-0.451-0.451-0.451
				c-0.045,0-0.158,0.008-0.334,0.021c-0.574,0.045-1.773,0.139-3.365,0.139c-1.564,0-2.754-0.092-3.326-0.137
				c-0.193-0.016-0.32-0.023-0.375-0.023c-0.262,0-0.453,0.189-0.453,0.451c0,0.199,0.164,0.342,0.316,0.391
				c0.541,0.174,1.715,0.277,2.254,0.318c0.1,1.416,0.098,2.934,0.096,5.85l-0.002,1.721c0,0.43-0.008,0.998-0.016,1.523
				c-0.006,0.449-0.012,0.867-0.012,1.139c0,5.764,4.857,6.387,6.947,6.387c3.762,0,6.078-1.947,6.521-5.486
				c0.076-0.512,0.266-2.531,0.266-3.191c0-2.592,0.43-6.475,0.619-7.945c0.615-0.061,1.367-0.164,1.742-0.318
				c0.137-0.043,0.301-0.186,0.301-0.387C335.171,17.277,334.98,17.088,334.718,17.088z"/>
			<path fill="#004270" d="M359.927,17.088c-0.031,0-0.119,0.008-0.254,0.02c-0.426,0.043-1.424,0.141-2.699,0.141
				c-1.432,0-2.602-0.094-3.164-0.137c-0.184-0.016-0.305-0.023-0.35-0.023c-0.264,0-0.455,0.189-0.455,0.451
				c0,0.199,0.166,0.342,0.32,0.391c0.617,0.182,1.963,0.285,2.475,0.32c0.275,1.779,0.562,4.928,0.562,7.834v3.299l-10.398-12.205
				l-0.061-0.07l-0.094,0.006c-0.172,0.01-0.393,0.029-0.631,0.051c-0.426,0.039-0.906,0.084-1.275,0.084
				c-0.521,0-1.008-0.047-1.398-0.084c-0.287-0.027-0.533-0.051-0.73-0.051c-0.309,0-0.531,0.201-0.531,0.48
				c0,0.375,0.4,0.471,0.754,0.553c0.799,0.193,1.59,0.99,2.465,1.941c-0.002,7.414-0.227,10.359-0.668,13.328
				c-0.461,0.041-1.451,0.143-1.949,0.318c-0.148,0.047-0.311,0.189-0.311,0.387c0,0.264,0.189,0.453,0.453,0.453
				c0.031,0,0.127-0.008,0.273-0.02c0.457-0.043,1.529-0.139,2.762-0.139c1.549,0,2.725,0.098,3.227,0.139
				c0.152,0.012,0.25,0.02,0.287,0.02c0.264,0,0.453-0.189,0.453-0.453c0-0.197-0.164-0.34-0.316-0.389
				c-0.578-0.176-1.949-0.277-2.531-0.318c-0.404-2.707-0.629-5.527-0.639-12.119l7.416,8.717c1.285,1.527,2.148,2.57,2.736,3.279
				c1.309,1.576,1.309,1.576,1.557,1.576c0.221,0,0.373-0.197,0.373-0.479c0-0.039-0.006-0.168-0.014-0.383
				c-0.043-0.965-0.174-3.898-0.174-7.922c0-2.943,0.27-6.131,0.658-7.836c0.527-0.045,1.531-0.148,2.014-0.32
				c0.146-0.045,0.311-0.189,0.311-0.389C360.38,17.277,360.191,17.088,359.927,17.088z"/>
			<path fill="#004270" d="M401.201,24.523c-0.895-0.322-2.043-0.445-3.152-0.562c-2.463-0.262-4.791-0.51-4.791-2.721
				c0-2.445,3.18-2.637,4.152-2.637c2.463,0,4.066,1.059,5.191,2.004c0.012,2.043,0.395,2.043,0.561,2.043
				c0.451,0,0.451-0.34,0.451-0.666v-2.527c0-0.699,0.117-1.965,0.188-2.721c0.031-0.336,0.053-0.576,0.053-0.635
				c0-0.297-0.176-0.506-0.426-0.506c-0.459,0-0.547,0.666-0.709,1.875l-0.008,0.062c-1.543-0.486-2.51-0.738-4.422-0.738
				c-3,0-6.23,1.682-6.23,5.377c0,1.859,0.84,3.574,2.141,4.363c0.91,0.559,2.289,0.736,3.75,0.924
				c2.523,0.322,5.131,0.656,5.131,3.07c0,1.572-1.289,2.369-3.832,2.369c-2.639,0-4.312-1.023-5.996-2.564l-0.02-0.236
				c-0.084-1.031-0.17-2.098-0.744-2.098c-0.219,0-0.373,0.188-0.373,0.453c0,0.133,0.02,0.492,0.047,0.953
				c0.047,0.84,0.111,1.988,0.111,2.773c0,0.695-0.059,1.629-0.105,2.381c-0.029,0.473-0.053,0.845-0.053,1.024
				c0,0.299,0.176,0.506,0.426,0.506c0.459,0,0.568-0.812,0.672-1.96c0.006-0.072,0.014-0.143,0.02-0.209
				c1.869,0.648,2.732,0.945,4.658,0.945c3.93,0,6.467-2.225,6.467-5.67C404.357,26.861,403.294,25.289,401.201,24.523z"/>
		</g>
		<g>
			<path fill="#004270" d="M407.974,17.395v3.168h-0.506v-3.168h-1.193v-0.49h2.891v0.49H407.974z M412.474,20.562v-2.451
				l-0.98,2.451h-0.508l-0.98-2.451v2.451h-0.492v-3.658h0.508l1.229,3.047l1.207-3.047h0.525v3.658H412.474z"/>
		</g>
	</g>
	<g>
		<path fill="#004270" d="M139.389,46.989c-4.133,0-4.578,4.091-4.578,5.849c0,1.76,0.445,5.852,4.578,5.852
			c2.906,0,4.574-2.133,4.574-5.852C143.963,49.122,142.295,46.989,139.389,46.989z M139.389,48.38c2.631,0,3.184,2.425,3.184,4.458
			c0,2.035-0.553,4.461-3.184,4.461c-2.105,0-3.172-1.5-3.172-4.461C136.217,49.879,137.283,48.38,139.389,48.38z"/>
		<path fill="#004270" d="M153.953,48.38c1.152,0,1.785,0.503,2.551,1.431l0.092,0.111l0.113-0.094l0.844-0.701l0.111-0.094
			l-0.092-0.111c-0.957-1.16-1.938-1.933-3.619-1.933c-2.875,0-4.59,2.187-4.59,5.849c0,3.664,1.715,5.852,4.59,5.852
			c1.682,0,2.662-0.773,3.619-1.932l0.092-0.113l-0.111-0.092l-0.844-0.703l-0.113-0.094l-0.092,0.113
			c-0.766,0.928-1.398,1.43-2.551,1.43c-2.617,0-3.168-2.426-3.168-4.461C150.785,50.805,151.336,48.38,153.953,48.38z"/>
		<polygon fill="#004270" points="163.396,47.134 163.25,47.134 163.25,47.278 163.25,58.401 163.25,58.545 163.396,58.545 
			170.473,58.545 170.619,58.545 170.619,58.401 170.619,57.301 170.619,57.155 170.473,57.155 164.641,57.155 164.641,53.27 
			169.723,53.27 169.869,53.27 169.869,53.125 169.869,52.059 169.869,51.915 169.723,51.915 164.641,51.915 164.641,48.524 
			170.473,48.524 170.619,48.524 170.619,48.378 170.619,47.278 170.619,47.134 170.473,47.134 		"/>
		<path fill="#004270" d="M181.582,47.226l-0.035-0.092h-0.1h-1.211h-0.1l-0.037,0.092l-4.303,11.123l-0.078,0.197h0.213h1.182h0.1
			l0.035-0.092l1.254-3.205h4.678l1.24,3.205l0.035,0.092h0.1h1.195h0.213l-0.078-0.197L181.582,47.226z M182.668,53.887h-3.654
			l1.828-4.709L182.668,53.887z"/>
		<polygon fill="#004270" points="197.965,47.134 197.82,47.134 197.82,47.278 197.82,55.895 192.641,47.204 192.6,47.134 
			192.516,47.134 191.416,47.134 191.271,47.134 191.271,47.278 191.271,58.401 191.271,58.545 191.416,58.545 192.516,58.545 
			192.662,58.545 192.662,58.401 192.662,49.784 197.84,58.475 197.883,58.545 197.965,58.545 199.066,58.545 199.213,58.545 
			199.213,58.401 199.213,47.278 199.213,47.134 199.066,47.134 		"/>
		<polygon fill="#004270" points="205.711,47.134 205.564,47.134 205.564,47.278 205.564,58.401 205.564,58.545 205.711,58.545 
			206.809,58.545 206.955,58.545 206.955,58.401 206.955,53.303 212.037,53.303 212.184,53.303 212.184,53.159 212.184,52.09 
			212.184,51.946 212.037,51.946 206.955,51.946 206.955,48.524 212.627,48.524 212.771,48.524 212.771,48.378 212.771,47.278 
			212.771,47.134 212.627,47.134 		"/>
		<path fill="#004270" d="M223.811,53.946c-0.088-0.17-0.191-0.324-0.309-0.461c1.52-0.279,2.594-1.559,2.594-3.146
			c0-2.068-1.336-3.205-3.764-3.205h-3.809h-0.146v0.145v11.123v0.145h0.146h1.102h0.145v-0.145v-4.857h1.463
			c0.629,0,0.902,0.27,1.213,0.803l2.404,4.127l0.043,0.072h0.084h1.291h0.256l-0.131-0.219L223.811,53.946z M219.77,48.524h2.562
			c1.629,0,2.355,0.559,2.355,1.814c0,1.314-0.732,1.926-2.309,1.926h-2.609V48.524z"/>
		<path fill="#004270" d="M236.039,46.989c-4.131,0-4.576,4.091-4.576,5.849c0,1.76,0.445,5.852,4.576,5.852
			c2.908,0,4.576-2.133,4.576-5.852C240.615,49.122,238.947,46.989,236.039,46.989z M236.039,48.38c2.633,0,3.186,2.425,3.186,4.458
			c0,2.035-0.553,4.461-3.186,4.461c-2.102,0-3.168-1.5-3.168-4.461C232.871,49.879,233.938,48.38,236.039,48.38z"/>
		<polygon fill="#004270" points="253.191,47.134 253.046,47.134 253.046,47.278 253.046,55.895 247.867,47.204 247.826,47.134 
			247.742,47.134 246.641,47.134 246.496,47.134 246.496,47.278 246.496,58.401 246.496,58.545 246.641,58.545 247.742,58.545 
			247.889,58.545 247.889,58.401 247.889,49.784 253.066,58.475 253.109,58.545 253.191,58.545 254.292,58.545 254.439,58.545 
			254.439,58.401 254.439,47.278 254.439,47.134 254.292,47.134 		"/>
		<polygon fill="#004270" points="260.039,47.134 259.892,47.134 259.892,47.278 259.892,48.364 259.892,48.508 260.039,48.508 
			263.349,48.508 263.349,58.401 263.349,58.545 263.494,58.545 264.613,58.545 264.757,58.545 264.757,58.401 264.757,48.508 
			268.07,48.508 268.216,48.508 268.216,48.364 268.216,47.278 268.216,47.134 268.07,47.134 		"/>
		<path fill="#004270" d="M287.453,53.946c-0.094-0.176-0.195-0.328-0.311-0.461c1.52-0.279,2.592-1.559,2.592-3.146
			c0-2.068-1.336-3.205-3.762-3.205h-3.809h-0.146v0.145v11.123v0.145h0.146h1.098h0.146v-0.145v-4.857h1.465
			c0.629,0,0.902,0.27,1.211,0.803l2.408,4.127l0.043,0.072h0.084h1.289h0.256l-0.131-0.219L287.453,53.946z M283.408,48.524h2.564
			c1.629,0,2.355,0.559,2.355,1.814c0,1.295-0.754,1.926-2.307,1.926h-2.613V48.524z"/>
		<polygon fill="#004270" points="295.736,47.134 295.589,47.134 295.589,47.278 295.589,58.401 295.589,58.545 295.736,58.545 
			302.812,58.545 302.958,58.545 302.958,58.401 302.958,57.301 302.958,57.155 302.812,57.155 296.98,57.155 296.98,53.27 
			302.06,53.27 302.207,53.27 302.207,53.125 302.207,52.059 302.207,51.915 302.06,51.915 296.98,51.915 296.98,48.524 
			302.812,48.524 302.958,48.524 302.958,48.378 302.958,47.278 302.958,47.134 302.812,47.134 		"/>
		<path fill="#004270" d="M312.582,51.825c-1.473-0.34-2.742-0.633-2.742-1.807c0-1.184,1.201-1.607,2.324-1.607
			c1.273,0,2.186,0.268,2.801,1.59l0.062,0.133l0.131-0.062l0.988-0.461l0.131-0.062l-0.061-0.131
			c-0.768-1.656-2.016-2.394-4.053-2.394c-1.85,0-3.715,0.926-3.715,2.996c0,2.285,1.986,2.721,3.74,3.107
			c1.594,0.35,2.969,0.654,2.969,2.105c0,1.453-1.387,2.115-2.674,2.115c-1,0-2.732-0.281-3.092-2.16l-0.029-0.15l-0.148,0.037
			l-1.086,0.271l-0.133,0.033l0.025,0.135c0.363,1.99,2.037,3.178,4.477,3.178c2.021,0,4.066-1.188,4.066-3.459
			C316.564,52.747,314.449,52.256,312.582,51.825z"/>
		<path fill="#004270" d="M326.476,46.989c-4.131,0-4.576,4.091-4.576,5.849c0,1.76,0.445,5.852,4.576,5.852
			c2.908,0,4.576-2.133,4.576-5.852C331.052,49.122,329.384,46.989,326.476,46.989z M326.476,48.38c2.633,0,3.186,2.425,3.186,4.458
			c0,2.035-0.553,4.461-3.186,4.461c-2.104,0-3.17-1.5-3.17-4.461C323.306,49.879,324.373,48.38,326.476,48.38z"/>
		<path fill="#004270" d="M342.369,53.946c-0.09-0.172-0.193-0.326-0.309-0.461c1.52-0.279,2.592-1.559,2.592-3.146
			c0-2.068-1.336-3.205-3.762-3.205h-3.811h-0.145v0.145v11.123v0.145h0.145h1.1h0.146v-0.145v-4.857h1.465
			c0.627,0,0.9,0.27,1.211,0.803l2.406,4.127l0.041,0.072h0.084h1.293h0.256l-0.131-0.219L342.369,53.946z M338.326,48.524h2.564
			c1.629,0,2.355,0.559,2.355,1.814c0,1.295-0.756,1.926-2.309,1.926h-2.611V48.524z"/>
		<polygon fill="#004270" points="357.845,47.134 349.814,47.134 349.669,47.134 349.669,47.278 349.669,48.364 349.669,48.508 
			349.814,48.508 353.125,48.508 353.125,58.401 353.125,58.545 353.269,58.545 354.388,58.545 354.533,58.545 354.533,58.401 
			354.533,48.508 357.845,48.508 357.992,48.508 357.992,48.364 357.992,47.278 357.992,47.134 		"/>
	</g>
	<g>
		<path fill="#636466" d="M320.494,71.799H170.367c-0.26,0-0.469-0.209-0.469-0.467c0-0.26,0.209-0.469,0.469-0.469h150.126
			c0.258,0,0.467,0.209,0.467,0.469C320.96,71.59,320.751,71.799,320.494,71.799z"/>
	</g>
	<path fill="#636466" d="M116.998,93.461v-3.896h-3.086v3.896h-1.779v-9.311h1.779v3.805h3.086v-3.805h1.779v9.311H116.998z"/>
	<path fill="#636466" d="M129.152,93.461v-9.311h1.779v9.311H129.152z"/>
	<path fill="#636466" d="M141.286,93.461v-9.311h1.779v7.689h4.136v1.621H141.286z"/>
	<path fill="#636466" d="M159.603,85.772v7.689h-1.779v-7.689h-2.382v-1.621h6.542v1.621H159.603z"/>
	<path fill="#636466" d="M177.267,92.52c-0.64,0.652-1.421,1.02-2.458,1.02s-1.83-0.367-2.471-1.02
		c-0.922-0.941-0.896-2.105-0.896-3.715c0-1.607-0.025-2.771,0.896-3.713c0.641-0.654,1.434-1.02,2.471-1.02s1.818,0.365,2.458,1.02
		c0.922,0.941,0.909,2.105,0.909,3.713C178.176,90.415,178.188,91.579,177.267,92.52z M175.948,86.19
		c-0.256-0.301-0.653-0.496-1.14-0.496s-0.896,0.195-1.152,0.496c-0.346,0.393-0.435,0.824-0.435,2.615s0.089,2.223,0.435,2.615
		c0.257,0.301,0.666,0.498,1.152,0.498s0.884-0.197,1.14-0.498c0.346-0.393,0.448-0.824,0.448-2.615S176.294,86.583,175.948,86.19z"
		/>
	<path fill="#636466" d="M193.673,93.461l-3.61-5.715v5.715h-1.779v-9.311h1.588l3.609,5.701v-5.701h1.78v9.311H193.673z"/>
	<path fill="#636466" d="M221.878,93.461v-3.896h-3.086v3.896h-1.779v-9.311h1.779v3.805h3.086v-3.805h1.779v9.311H221.878z"/>
	<path fill="#636466" d="M234.036,93.461v-9.311h6.004v1.621h-4.225v2.184h3.598v1.621h-3.598v2.264h4.225v1.621H234.036z"/>
	<path fill="#636466" d="M255.65,93.461l-0.537-1.648h-3.238l-0.552,1.648h-1.855l3.315-9.311h1.396l3.328,9.311H255.65z
		 M253.525,86.897l-1.152,3.387h2.268L253.525,86.897z"/>
	<path fill="#636466" d="M272.83,92.571c-0.602,0.615-1.461,0.891-2.408,0.891h-3.289v-9.311h3.289c0.947,0,1.807,0.273,2.408,0.889
		c1.023,1.047,0.922,2.328,0.922,3.727C273.751,90.167,273.853,91.526,272.83,92.571z M271.587,86.348
		c-0.307-0.381-0.717-0.576-1.332-0.576h-1.344v6.068h1.344c0.615,0,1.025-0.197,1.332-0.576c0.332-0.418,0.383-1.086,0.383-2.498
		S271.919,86.766,271.587,86.348z"/>
	<path fill="#636466" d="M295.195,93.461v-9.311h1.779v9.311H295.195z"/>
	<path fill="#636466" d="M309.998,93.54c-1.383,0-2.432-0.301-3.328-1.229l1.152-1.178c0.576,0.588,1.357,0.785,2.201,0.785
		c1.051,0,1.613-0.406,1.613-1.15c0-0.328-0.09-0.602-0.281-0.785c-0.18-0.17-0.385-0.262-0.807-0.328l-1.102-0.156
		c-0.781-0.117-1.357-0.365-1.766-0.771c-0.436-0.445-0.654-1.047-0.654-1.83c0-1.662,1.203-2.824,3.176-2.824
		c1.254,0,2.164,0.312,2.943,1.084l-1.125,1.139c-0.576-0.562-1.268-0.641-1.869-0.641c-0.947,0-1.408,0.535-1.408,1.176
		c0,0.236,0.076,0.484,0.268,0.668c0.18,0.17,0.475,0.312,0.846,0.365l1.074,0.158c0.834,0.117,1.357,0.352,1.742,0.719
		c0.486,0.471,0.703,1.15,0.703,1.975C313.376,92.52,311.906,93.54,309.998,93.54z"/>
	<path fill="#636466" d="M323.271,93.461v-9.311h1.779v7.689h4.135v1.621H323.271z"/>
	<path fill="#636466" d="M344.648,93.461l-0.537-1.648h-3.24l-0.551,1.648h-1.855l3.316-9.311h1.395l3.328,9.311H344.648z
		 M342.523,86.897l-1.152,3.387h2.266L342.523,86.897z"/>
	<path fill="#636466" d="M361.519,93.461l-3.611-5.715v5.715h-1.779v-9.311h1.588l3.609,5.701v-5.701h1.781v9.311H361.519z"/>
	<path fill="#636466" d="M379.183,92.571c-0.602,0.615-1.459,0.891-2.406,0.891h-3.291v-9.311h3.291
		c0.947,0,1.805,0.273,2.406,0.889c1.023,1.047,0.922,2.328,0.922,3.727C380.105,90.167,380.207,91.526,379.183,92.571z
		 M377.941,86.348c-0.307-0.381-0.717-0.576-1.33-0.576h-1.346v6.068h1.346c0.613,0,1.023-0.197,1.33-0.576
		c0.334-0.418,0.385-1.086,0.385-2.498S378.275,86.766,377.941,86.348z"/>
</g>
</svg>
